<?xml version="1.0" encoding="utf-8"?>
<!-- Generator: Adobe Illustrator 22.0.0, SVG Export Plug-In . SVG Version: 6.00 Build 0)  -->
<svg version="1.1" id="Layer_1" xmlns="http://www.w3.org/2000/svg" xmlns:xlink="http://www.w3.org/1999/xlink" x="0px" y="0px"
	 viewBox="0 0 1377.1 84.4" style="enable-background:new 0 0 1377.1 84.4;" xml:space="preserve">
<style type="text/css">
	.st0{fill:#E8BFC4;}
</style>
<path class="st0" d="M0.7,83.6c28.5-2.8,57.1-5.5,85.6-8l42.8-3.9l42.8-3.7l21.4-1.9l21.4-1.8l42.8-3.6l85.7-6.9
	c114.3-9,228.7-17,343.1-24.2l85.9-5.2l85.9-4.7l43-2.3l43-2l43-2c14.3-0.7,28.6-1.4,43-1.9l86-3.3l21.5-0.8l21.5-0.6l43-1.2l43-1.2
	l10.8-0.3l10.8-0.2l21.5-0.4l86.1-1.5v32l-85.8-0.5l-21.5-0.1l-10.7-0.1l-10.7,0.1l-42.9,0.2l-42.9,0.2l-21.5,0.1l-21.5,0.3
	l-85.9,1.3c-14.3,0.2-28.6,0.6-42.9,0.9l-42.9,1l-42.9,1l-42.9,1.3l-85.9,2.7l-85.9,3.2c-114.5,4.5-229,9.9-343.4,16.2l-85.8,4.9
	l-42.9,2.6l-21.5,1.3L172.5,72l-42.9,2.7l-42.9,2.9C57.9,79.5,29.3,81.5,0.7,83.6z"/>
</svg>
