<?xml version="1.0" standalone="no"?>
<!DOCTYPE svg PUBLIC "-//W3C//DTD SVG 1.1//EN" "http://www.w3.org/Graphics/SVG/1.1/DTD/svg11.dtd" >
<svg xmlns="http://www.w3.org/2000/svg" xmlns:xlink="http://www.w3.org/1999/xlink" version="1.1">
<metadata>
Created by FontForge 20170731 at Fri Jul 31 07:00:00 1998
 By Aleksey,,,
(c) Copyright HanYang I&#38;C Co.,Ltd. 2003
</metadata>
<defs>
<font id="HYnamL" horiz-adv-x="1024" vert-adv-y="1024" >
  <font-face 
    font-family="HYnamL"
    font-weight="400"
    font-stretch="normal"
    units-per-em="1024"
    panose-1="2 3 6 0 0 1 1 1 1 1"
    ascent="879"
    descent="-145"
    x-height="532"
    cap-height="735"
    bbox="0 -145 1024 879"
    underline-thickness="45"
    underline-position="-166"
    unicode-range="U+0001-FFE6"
  />
<missing-glyph 
d="M832 47h-640v640h640v-640zM145 735v-736h734v736h-734z" />
    <glyph glyph-name=".notdef" 
d="M832 47h-640v640h640v-640zM145 735v-736h734v736h-734z" />
    <glyph glyph-name="glyph1" horiz-adv-x="0" 
 />
    <glyph glyph-name="glyph2" horiz-adv-x="512" 
 />
    <glyph glyph-name="twodotenleader.vert" orientation="v" 
d="M573 624q0 30 -20 47q-18 15 -43 15t-42 -15q-18 -18 -18 -48q0 -28 18 -45q18 -16 43 -16q24 0 42 16q20 18 20 46zM573 112q0 30 -20 47q-18 15 -43 15t-42 -15q-18 -17 -18 -47q0 -29 18 -46q18 -16 43 -16q24 0 42 17q20 17 20 46v-1z" />
    <glyph glyph-name="twodotenleader.vert" orientation="v" 
d="M573 624q0 30 -20 47q-18 15 -43 15t-42 -15q-18 -18 -18 -48q0 -28 18 -45q18 -16 43 -16q24 0 42 16q20 18 20 46zM573 112q0 30 -20 47q-18 15 -43 15t-42 -15q-18 -17 -18 -47q0 -29 18 -46q18 -16 43 -16q24 0 42 17q20 17 20 46v-1z" />
    <glyph glyph-name="uni0001" 
d="M576 711q0 26 -20 44q-19 17 -44 17q-26 0 -45 -17q-18 -18 -18 -44t18 -45q19 -18 45 -18q25 0 44 18q20 19 20 45zM576 370q0 26 -20 44q-19 17 -44 17q-26 0 -45 -17q-18 -18 -18 -44t18 -45q19 -19 45 -19q25 0 44 19q20 19 20 45zM576 29q0 26 -20 45q-19 17 -44 17
q-26 0 -45 -17q-18 -19 -18 -45t18 -45q19 -19 45 -19q25 0 44 19q20 19 20 45z" />
    <glyph glyph-name="uni0002" 
d="M558 159v18v0v1q-22 11 -33 26q-12 19 -12 51q0 24 6 42q4 12 14 30q12 21 16 35q8 23 8 52q0 55 -27 103q-28 50 -69 61v-17q20 -9 32 -27q14 -21 14 -55q0 -23 -7 -44q-4 -12 -15 -34q-11 -21 -16 -33q-6 -21 -6 -45q0 -56 26 -102q26 -48 69 -62z" />
    <glyph glyph-name="uni0003" 
d="M922 -8q0 25 -8 38q-7 13 -21 16q-22 8 -26 13q-6 9 5 27q6 12 22 25q13 12 22 16l-15 12q-26 -11 -45 -30q-15 -15 -26 -34q-7 -14 -11 -28q-3 -12 -2 -12q-8 -43 7 -67q14 -22 45 -22q20 0 37 14q16 14 16 32z" />
    <glyph glyph-name="uni0004" 
d="M213 746q9 44 -6 68q-15 21 -45 21q-21 0 -37 -14t-16 -32q0 -24 7 -37q6 -13 21 -17q21 -6 26 -12q6 -9 -6 -28q-7 -11 -21 -25q-13 -11 -21 -16l14 -13q26 12 45 31q15 15 25 35q7 13 11 28z" />
    <glyph glyph-name="uni0005" 
d="M928 -18q0 25 -8 38q-7 13 -21 16q-22 7 -26 13q-7 9 5 27q6 12 22 25q13 12 22 16l-15 12q-26 -11 -45 -30q-15 -15 -26 -34q-7 -14 -11 -28q-3 -12 -2 -12q-9 -44 6 -67q14 -22 45 -22q21 0 37 14q17 14 17 32zM790 -18q0 25 -7 38t-22 16q-22 8 -26 13q-6 9 6 27
q6 11 21 25q13 12 22 16l-14 12q-26 -11 -45 -30q-15 -15 -26 -34q-7 -14 -11 -28q-3 -12 -2 -12q-9 -44 6 -67q14 -22 45 -22q20 0 37 14q16 14 16 32z" />
    <glyph glyph-name="uni0006" 
d="M359 745q9 44 -7 68q-14 21 -44 21q-21 0 -37 -14q-16 -13 -16 -32q0 -24 7 -38q6 -13 20 -17q22 -6 27 -12q6 -8 -6 -27q-7 -11 -21 -25q-13 -11 -21 -16l14 -13q25 12 44 31q15 15 26 35q7 13 11 28zM222 745q9 44 -7 68q-14 21 -44 21q-21 0 -37 -14q-16 -13 -16 -32
q0 -25 6 -38q7 -13 21 -17q22 -5 26 -12q6 -8 -5 -27q-7 -11 -21 -25q-13 -11 -21 -16l13 -13q26 12 45 31q15 15 26 35q7 13 11 28z" />
    <glyph glyph-name="uni0007" 
d="M986 -68l-50 241h-850v0l-50 -241l37 -13l40 194h794l41 -194z" />
    <glyph glyph-name="uni0008" 
d="M986 803l-38 12l-41 -193h-794l-40 193l-37 -12l50 -241v0h850z" />
    <glyph glyph-name="uni0009" unicode="&#x9;" 
d="M977 -35l-466 364l-464 -362l36 -48l428 335l430 -336z" />
    <glyph glyph-name="uni000A" unicode="&#xa;" 
d="M977 769l-36 48l-430 -336l-428 334l-36 -47l464 -363z" />
    <glyph glyph-name="uni000B" 
d="M977 101l-465 267l-465 -266l35 -55l429 247l429 -248zM977 -37l-466 267l-464 -267l35 -53l429 247l429 -248z" />
    <glyph glyph-name="uni000C" 
d="M977 772l-37 53l-429 -247l-429 246l-35 -53l464 -266zM977 634l-37 55l-429 -249l-429 247l-35 -53l465 -266z" />
    <glyph glyph-name="uni000D" unicode="&#xd;" 
d="M961 -82v321v0h-512v-65h454v-256h58z" />
    <glyph glyph-name="uni000E" 
d="M574 496v63h-454v256h-58v-319v0h512z" />
    <glyph glyph-name="uni000F" 
d="M959 -81v321v0h-512v-144h380v-177h132zM916 -33h-46v176h-378v50h424v0v-226z" />
    <glyph glyph-name="uni0010" 
d="M574 496v143h-379v176h-132v-319v0h511zM532 543h-424v0v225h43v-175h381v-50z" />
    <glyph glyph-name="uni0011" 
d="M958 -81v284h-896v0v-284h7q49 66 167 107q123 43 275 43q155 1 279 -42q120 -42 162 -108h6z" />
    <glyph glyph-name="uni0012" 
d="M958 533v284h-6q-42 -65 -162 -107q-124 -44 -279 -44q-151 0 -275 43q-118 42 -167 106h-7v-283v0z" />
    <glyph glyph-name="uni0013" 
d="M740 279v178l-155 -87v-7zM437 363v7l-155 87v-178z" />
    <glyph glyph-name="uni0014" 
d="M974 199h-1q-88 129 -197 193q-116 68 -264 68q-147 1 -265 -64q-106 -58 -196 -173l9 -7q118 90 213 127q106 41 239 40q135 0 238 -44q100 -43 217 -150z" />
    <glyph glyph-name="uni0015" 
d="M974 537l-7 9q-116 -106 -217 -149q-102 -45 -238 -45q-134 0 -239 41q-96 37 -213 125l-9 -6q89 -113 196 -171q118 -65 265 -65q148 0 264 68q109 64 197 192z" />
    <glyph glyph-name="uni0016" 
d="M975 702q9 45 -6 69q-15 21 -45 21q-21 0 -37 -14t-16 -32q0 -24 7 -38q7 -13 21 -17q21 -6 26 -12q6 -8 -6 -28q-6 -10 -21 -24q-13 -12 -21 -17l14 -12q26 12 45 31q15 15 25 34q7 14 11 28z" />
    <glyph glyph-name="uni0017" 
d="M974 751q0 23 -14 38q-16 17 -42 17t-40 -17q-13 -16 -13 -38q0 -20 13 -36q14 -18 40 -18t42 18q14 15 14 36z" />
    <glyph glyph-name="uni0018" 
d="M768 393q0 26 -18 40q-16 13 -37 13t-36 -13q-17 -14 -17 -40q0 -25 16 -41q15 -14 37 -14t38 14q17 16 17 41zM364 393q0 26 -18 40q-15 13 -37 13q-21 0 -36 -13q-17 -14 -17 -40q0 -25 16 -41q15 -14 37 -14t38 14q17 16 17 41z" />
    <glyph glyph-name="uni0019" 
d="M793 388q0 26 -18 40q-16 13 -38 13q-21 0 -36 -13q-17 -14 -17 -40q0 -25 17 -41q16 -14 36 -14q22 0 38 14q18 16 18 41zM392 387q0 21 -15 37q-14 16 -31 16q-25 0 -39 -7q-13 -7 -16 -22h-1q-6 -21 -11 -25q-9 -7 -28 4q-12 8 -25 22q-12 14 -15 22l-12 -15
q19 -46 63 -70q26 -15 40 -15q44 -7 68 8q22 15 22 45z" />
    <glyph glyph-name="uni001A" 
d="M976 282v158h-930v-158h38v85h853v-85h39z" />
    <glyph glyph-name="uni001B" 
d="M976 296v157h-39v-85h-853v85h-38v-157h930z" />
    <glyph glyph-name="uni001C" 
d="M983 239q-75 96 -146 125q-49 19 -148 19h-65l-104 153l-102 -154h-69q-100 0 -149 -19q-71 -29 -145 -124l6 -5q54 52 115 67q51 12 173 12h63l108 109l107 -107h64q119 0 171 -13q60 -15 115 -67z" />
    <glyph glyph-name="uni001D" 
d="M983 496l-6 5q-55 -51 -115 -67q-52 -14 -171 -14h-64l-107 -108l-108 109h-63q-122 0 -173 13q-61 16 -115 67l-6 -5q74 -94 145 -123q49 -21 149 -21h69l102 -153l104 153h65q99 0 148 21q71 29 146 123z" />
    <glyph glyph-name="space" unicode=" " horiz-adv-x="341" 
 />
    <glyph glyph-name="exclam" unicode="!" horiz-adv-x="294" 
d="M124 236v0h47v547h-47v-547zM119 21v0h56v110h-56v-110z" />
    <glyph glyph-name="quotedbl" unicode="&#x22;" horiz-adv-x="359" 
d="M218 539v0h49v217h-49v-217zM98 539v0h48v217h-48v-217z" />
    <glyph glyph-name="numbersign" unicode="#" horiz-adv-x="549" 
d="M206 449v0h132v-134h-132v134zM160 136v0h46v136h132v-136h47v136h117v43h-117v134h117v44h-117v122h-47v-122h-132v122h-46v-122h-113v-44h113v-134h-113v-43h113v-136z" />
    <glyph glyph-name="dollar" unicode="$" horiz-adv-x="506" 
d="M273 90v0q73 6 120 54q45 47 45 108q0 34 -14 64q-14 32 -38 54q-23 20 -58 34q-23 10 -67 22q-63 17 -87 35q-39 28 -39 80q0 30 8 50q10 23 34 40q17 13 37 19q19 5 43 5q50 0 85 -28q35 -29 44 -77h45q-10 59 -50 96q-41 37 -108 47v73h-40v-73q-68 -13 -106 -52
q-37 -39 -37 -96q0 -30 10 -57q11 -27 34 -48q20 -19 53 -32q22 -9 65 -21q67 -16 98 -42q42 -34 42 -95q0 -50 -41 -87t-98 -37q-56 0 -96 34t-45 87h-45q4 -60 50 -103q45 -42 116 -55v-73h40v74z" />
    <glyph glyph-name="percent" unicode="%" horiz-adv-x="721" 
d="M173 61v0l413 617l-37 24l-413 -617zM544 78v0q49 0 84 34q36 34 36 81q0 49 -36 83q-35 33 -84 33t-84 -33q-34 -34 -34 -83q0 -47 34 -81q35 -34 84 -34zM544 268v0q31 0 53 -22q23 -22 23 -53q0 -30 -23 -52q-22 -22 -53 -22t-53 22q-21 22 -21 52q0 31 21 53
q22 22 53 22zM176 444v0q48 0 83 35q36 35 36 82q0 49 -36 83q-34 33 -83 33q-50 0 -85 -33q-34 -34 -34 -83q0 -47 34 -82q35 -35 85 -35zM176 636v0q31 0 53 -22q23 -22 23 -53q0 -30 -23 -52q-22 -22 -53 -22t-53 22t-22 52q0 31 22 53t53 22z" />
    <glyph glyph-name="ampersand" unicode="&#x26;" horiz-adv-x="639" 
d="M528 75v0h58l-112 132q13 32 21 66q9 34 13 73h-45q0 -27 -6 -53q-4 -24 -14 -50l-150 178l15 11q60 39 83 65q38 43 38 99q0 54 -45 87q-42 30 -100 30q-55 0 -99 -33q-45 -34 -45 -84q0 -39 24 -81q14 -24 51 -68l13 -15l-17 -9q-74 -45 -104 -76q-50 -51 -50 -116
q0 -79 59 -124q55 -42 143 -42q58 0 107 27q49 26 84 75zM284 675v0q39 0 68 -22q31 -23 31 -57q0 -46 -37 -85q-22 -22 -76 -56l-3 -3l-25 31q-28 33 -39 52q-17 30 -17 61q0 33 30 57q30 22 68 22zM253 400v0l168 -199q-10 -24 -45 -53q-52 -42 -117 -42q-64 0 -109 33
q-48 35 -48 92q0 53 42 95q26 25 88 62z" />
    <glyph glyph-name="quotesingle" unicode="'" horiz-adv-x="245" 
d="M98 539v0h48v217h-48v-217z" />
    <glyph glyph-name="parenleft" unicode="(" horiz-adv-x="303" 
d="M142 347v0q0 123 33 236q33 112 102 223l-36 20q-70 -110 -106 -232q-37 -123 -37 -247q0 -120 36 -240q36 -118 104 -224l36 18q-68 108 -100 217t-32 229z" />
    <glyph glyph-name="parenright" unicode=")" horiz-adv-x="303" 
d="M65 -117v0q67 106 103 224q37 120 37 240q0 123 -38 247q-37 121 -105 232l-37 -20q68 -111 101 -223q35 -114 35 -236q0 -119 -33 -229q-33 -109 -100 -217z" />
    <glyph glyph-name="asterisk" unicode="*" horiz-adv-x="384" 
d="M318 376l22 37l-108 60l108 59l-22 38l-105 -64l2 123h-44l1 -123l-104 64l-22 -38l108 -59l-108 -60l22 -37l104 63l-1 -123h44l-2 122z" />
    <glyph glyph-name="plus" unicode="+" horiz-adv-x="497" 
d="M225 172v0h47v169h168v44h-168v169h-47v-169h-168v-44h168v-169z" />
    <glyph glyph-name="comma" unicode="," horiz-adv-x="265" 
d="M137 -84l29 218h-58l-10 -218h39z" />
    <glyph glyph-name="hyphen" unicode="-" horiz-adv-x="487" 
d="M98 320v0h291v44h-291v-44z" />
    <glyph glyph-name="period" unicode="." horiz-adv-x="263" 
d="M98 21v0h56v110h-56v-110z" />
    <glyph glyph-name="slash" unicode="/" horiz-adv-x="422" 
d="M71 3l327 771h-46l-327 -771h46z" />
    <glyph glyph-name="zero" unicode="0" horiz-adv-x="546" 
d="M450 140v0q30 38 40 87q8 35 8 96v149q0 57 -12 97q-15 48 -47 82q-33 35 -76 53q-42 17 -90 17q-51 0 -96 -20t-77 -58q-32 -36 -43 -79q-10 -36 -10 -92v-149q0 -64 8 -100q12 -49 45 -87q32 -38 77 -58q43 -19 96 -19q54 0 98 20q45 21 79 61zM453 457v0v-122
q0 -49 -4 -76q-5 -47 -21 -76q-26 -41 -66 -62q-39 -21 -89 -21q-48 0 -84 17q-38 18 -64 55q-21 30 -29 78q-4 31 -4 85v122q0 39 4 70q7 42 22 68q22 39 65 63q43 22 90 22q42 0 83 -19q42 -20 65 -54q19 -28 27 -73q4 -30 5 -77z" />
    <glyph glyph-name="one" unicode="1" horiz-adv-x="342" 
d="M196 70v0h47v644h-186v-43h139v-601z" />
    <glyph glyph-name="two" unicode="2" horiz-adv-x="542" 
d="M47 70v0h437v42h-382l244 210q12 11 25 23q12 11 25 23q39 39 59 73q24 43 24 91q0 38 -17 74q-17 34 -47 61q-32 30 -67 43q-34 13 -79 13q-94 0 -154 -57q-60 -56 -63 -147h47q0 29 4 48q5 22 17 40q21 35 61 55q39 20 83 20q68 0 118 -42q51 -44 51 -109
q0 -48 -39 -99q-24 -30 -77 -78l-270 -237v-47z" />
    <glyph glyph-name="three" unicode="3" horiz-adv-x="534" 
d="M260 62v0q90 0 153 59q64 59 64 143q0 52 -32 98q-34 49 -98 79q45 28 65 63q19 31 19 69q0 66 -49 107q-47 41 -117 41q-71 0 -117 -41q-46 -42 -53 -111h48q5 48 35 78q32 33 82 33q52 0 87 -31q37 -31 37 -80q0 -57 -49 -87q-44 -27 -111 -25v-41q33 0 49 -1
q25 -1 44 -8q50 -15 82 -54q33 -41 33 -90q0 -66 -51 -113t-123 -47q-42 0 -80 22q-36 20 -59 53q-12 18 -18 37q-5 18 -7 43h-47q6 -83 66 -139q61 -57 147 -57z" />
    <glyph glyph-name="four" unicode="4" horiz-adv-x="554" 
d="M442 187v0h65v43h-65v484h-67l-338 -476v-51h358v-117h47v117zM395 672v0v-442h-309z" />
    <glyph glyph-name="five" unicode="5" horiz-adv-x="561" 
d="M277 58v0q95 0 161 66q65 66 65 156q0 91 -65 155q-66 65 -160 65q-30 0 -59 -8q-33 -10 -77 -34l41 211h262v44h-298l-62 -310l39 -12q31 32 68 50q40 18 83 18q78 0 131 -55q51 -53 51 -126t-52 -125q-53 -54 -132 -54q-71 0 -121 46q-49 44 -60 112h-46
q15 -88 78 -143q64 -56 153 -56z" />
    <glyph glyph-name="six" unicode="6" horiz-adv-x="564" 
d="M441 125v0q30 32 48 72q18 42 18 82q0 85 -66 152q-67 67 -153 67q-28 0 -51 -4q-28 -5 -53 -19l170 238h-55q-12 -14 -81 -111q-78 -109 -118 -169q-28 -41 -39 -73q-14 -38 -14 -82q0 -89 66 -154q68 -66 163 -66q48 0 89 17q42 17 76 50zM276 458v0q79 0 133 -54
q52 -53 52 -127q0 -71 -54 -124q-55 -54 -131 -54q-81 0 -133 56q-50 54 -50 128q0 72 52 123q53 52 131 52z" />
    <glyph glyph-name="seven" unicode="7" horiz-adv-x="464" 
d="M137 70v0l290 594v49h-390v-44h344l-295 -599h51z" />
    <glyph glyph-name="eight" unicode="8" horiz-adv-x="533" 
d="M259 60v0q88 0 152 57q65 59 65 141q0 54 -30 96q-33 48 -102 80q45 22 71 58q25 34 25 70q0 69 -51 117q-51 47 -124 47q-76 0 -128 -44q-53 -45 -53 -115q0 -39 23 -76q26 -38 69 -59q-67 -28 -101 -78q-28 -43 -28 -96q0 -81 62 -139q62 -59 150 -59zM265 684v0
q52 0 89 -34q38 -34 38 -83q0 -47 -39 -82q-38 -35 -89 -35q-56 0 -94 35q-38 34 -38 85q0 50 40 83q39 31 93 31zM260 408v0q69 0 118 -42q51 -43 51 -108t-50 -110t-120 -45q-68 0 -117 44q-48 45 -48 107q0 65 47 110q48 44 119 44z" />
    <glyph glyph-name="nine" unicode="9" horiz-adv-x="564" 
d="M453 349v0q27 40 39 73q15 38 15 82q0 90 -67 155q-68 65 -161 65q-50 0 -91 -16q-42 -17 -75 -51q-31 -30 -48 -72q-18 -41 -18 -82q0 -84 65 -152q66 -68 153 -68q26 0 50 5q27 5 54 17l-169 -237h56q19 27 78 111q80 113 119 170zM278 683v0q79 0 132 -56
q51 -53 51 -129q0 -71 -53 -122q-54 -53 -130 -53q-79 0 -133 55q-52 53 -52 126q0 72 53 125q55 54 132 54z" />
    <glyph glyph-name="colon" unicode=":" horiz-adv-x="253" 
d="M98 529v0h56v109h-56v-109zM98 85v0h56v108h-56v-108z" />
    <glyph glyph-name="semicolon" unicode=";" horiz-adv-x="265" 
d="M108 533v0h55v110h-55v-110zM137 -19v0l29 218h-58l-10 -218h39z" />
    <glyph glyph-name="less" unicode="&#x3c;" horiz-adv-x="649" 
d="M78 327l524 -242v46l-484 225l484 221v47l-524 -241v-56z" />
    <glyph glyph-name="equal" unicode="=" horiz-adv-x="635" 
d="M119 450v0h397v44h-397v-44zM119 251v0h397v44h-397v-44z" />
    <glyph glyph-name="greater" unicode="&#x3e;" horiz-adv-x="649" 
d="M47 91l524 243v54l-524 244v-47l485 -224l-485 -222v-48z" />
    <glyph glyph-name="question" unicode="?" horiz-adv-x="577" 
d="M407 413v0q46 43 64 71q28 45 28 104q0 90 -61 140q-55 46 -141 46q-110 0 -171 -68q-59 -65 -59 -180h42q0 93 47 147q49 57 138 57q69 0 113 -33q50 -37 50 -109q0 -46 -32 -92q-20 -29 -69 -77q-44 -41 -64 -82q-27 -54 -27 -130h42q0 44 10 79q8 29 23 54
q11 19 31 39q11 12 36 34zM260 21v0h55v110h-55v-110z" />
    <glyph glyph-name="at" unicode="@" horiz-adv-x="759" 
d="M492 105v0q74 0 141 81q69 82 69 182q0 123 -91 205q-89 79 -218 79q-138 0 -237 -98q-99 -100 -99 -239q0 -143 96 -243q98 -101 243 -101q88 0 165 46q81 47 130 131h-51q-43 -63 -107 -101q-66 -38 -137 -38q-116 0 -204 85q-92 89 -92 215q0 125 86 215q88 91 209 91
q102 0 180 -66q83 -72 83 -178q0 -76 -50 -148q-51 -73 -107 -73q-13 0 -21 8q-8 7 -8 17q0 11 13 56q11 36 31 95l58 173h-49l-16 -56q-13 35 -38 53q-27 20 -64 20q-92 0 -157 -88q-60 -83 -60 -183q0 -57 33 -97q34 -43 87 -43q33 0 63 15t55 42q5 -28 23 -43
q16 -14 41 -14zM401 478v0q47 0 67 -37q12 -25 13 -65q0 -35 -17 -81q-16 -47 -40 -82q-23 -31 -50 -50q-28 -20 -51 -20q-40 0 -65 29q-26 30 -26 77q0 77 47 150q53 79 122 79z" />
    <glyph glyph-name="A" unicode="A" horiz-adv-x="633" 
d="M559 69v0h49l-267 654h-44l-272 -654h49l91 222h303zM321 664v0l130 -330h-268z" />
    <glyph glyph-name="B" unicode="B" horiz-adv-x="614" 
d="M330 68v0q103 0 162 44q64 47 64 132q0 67 -35 111q-31 41 -85 56q45 17 73 58q26 39 26 85q0 70 -46 111q-52 48 -159 48h-232v-645h232zM330 669v0q72 0 113 -23q49 -28 49 -89q0 -57 -42 -92q-44 -38 -120 -38h-186v242h186zM330 385v0q74 0 122 -29q59 -36 60 -112
q0 -65 -49 -99q-48 -34 -133 -34h-186v274h186z" />
    <glyph glyph-name="C" unicode="C" horiz-adv-x="725" 
d="M390 59v0q80 0 155 43t126 117h-52q-44 -55 -103 -86q-61 -32 -127 -32q-117 0 -202 85q-86 85 -86 202q0 113 83 197q85 85 201 85q67 0 127 -28q64 -30 104 -86h54q-22 33 -51 62q-25 24 -52 41q-41 27 -88 41q-47 13 -95 13q-135 0 -231 -95t-96 -230q0 -139 96 -234
q97 -95 237 -95z" />
    <glyph glyph-name="D" unicode="D" horiz-adv-x="701" 
d="M537 153v0q49 46 77 108q28 63 28 132q0 70 -32 135q-31 66 -86 110q-52 42 -120 60q-58 15 -136 15h-170v-644h174q85 0 142 17q68 19 123 67zM488 612v0q54 -41 82 -97q28 -55 28 -122q0 -65 -29 -123q-28 -57 -80 -98q-51 -40 -118 -52q-41 -8 -130 -8h-96v560h96
q86 0 128 -7q68 -12 119 -53z" />
    <glyph glyph-name="E" unicode="E" horiz-adv-x="605" 
d="M98 70v0h440v44h-394v272h365v42h-365v241h388v44h-434v-643z" />
    <glyph glyph-name="F" unicode="F" horiz-adv-x="561" 
d="M144 669v0h359v44h-405v-643h46v313h324v44h-324v242z" />
    <glyph glyph-name="G" unicode="G" horiz-adv-x="787" 
d="M395 65v0q123 0 218 83t117 210h-386v-39h332q-32 -100 -112 -158q-74 -56 -165 -56q-124 0 -211 83q-88 83 -88 205q0 57 26 114q25 55 68 93q41 39 94 58q51 19 107 19q69 0 133 -31q65 -33 104 -91h52q-20 35 -50 64q-26 27 -54 44q-39 27 -88 40q-47 13 -97 13
q-69 0 -130 -24q-62 -24 -111 -72q-45 -44 -71 -103q-26 -61 -26 -124q0 -135 100 -232q99 -96 238 -96z" />
    <glyph glyph-name="H" unicode="H" horiz-adv-x="688" 
d="M544 70v0h45v643h-45v-286h-399v286h-47v-643h47v313h399v-313z" />
    <glyph glyph-name="I" unicode="I" horiz-adv-x="285" 
d="M119 69v0h47v645h-47v-645z" />
    <glyph glyph-name="J" unicode="J" horiz-adv-x="476" 
d="M378 265v0v448h-49v-439v-19q1 -26 0 -39q-2 -22 -7 -38q-15 -35 -48 -57t-73 -22q-53 0 -91 31q-39 30 -49 81h-46q11 -68 61 -110q49 -43 119 -43q43 0 80 16q39 17 66 47q23 29 31 68q6 28 6 76z" />
    <glyph glyph-name="K" unicode="K" horiz-adv-x="589" 
d="M492 62v0h53l-267 331l267 315h-53l-348 -407v407h-46v-646h46v177l106 119z" />
    <glyph glyph-name="L" unicode="L" horiz-adv-x="532" 
d="M98 70v0h406v44h-360v601h-46v-645z" />
    <glyph glyph-name="M" unicode="M" horiz-adv-x="813" 
d="M667 63v0h47v645h-61l-246 -586l-247 586h-62v-645h47v564l240 -564h45l237 563v-563z" />
    <glyph glyph-name="N" unicode="N" horiz-adv-x="695" 
d="M544 70v0h52v645h-46l-1 -572l-395 572h-56v-645h47v578z" />
    <glyph glyph-name="O" unicode="O" horiz-adv-x="761" 
d="M380 64v0q137 0 235 96q99 96 99 233q0 134 -101 229q-98 93 -233 93q-139 0 -236 -95t-97 -233q0 -133 99 -229q99 -94 234 -94zM381 674v0q116 0 201 -81q88 -83 88 -200q0 -120 -86 -204q-84 -84 -203 -84q-117 0 -203 83q-87 83 -87 199q0 119 86 204q86 83 204 83z
" />
    <glyph glyph-name="P" unicode="P" horiz-adv-x="592" 
d="M468 366v0q37 27 57 67q19 39 19 85q0 50 -22 92q-23 43 -65 68q-37 24 -88 32q-32 4 -96 4h-175v-644h47v253h146q57 0 94 8q47 10 83 35zM402 659v0q45 -18 70 -55q26 -37 26 -85q0 -38 -18 -71q-18 -34 -50 -55q-30 -17 -70 -23q-25 -4 -74 -4h-7h-134v305h103l21 1
q46 0 70 -1q41 -3 63 -12z" />
    <glyph glyph-name="Q" unicode="Q" horiz-adv-x="761" 
d="M380 64v0q50 0 98 15q46 15 87 41l71 -86l30 28l-68 82q53 46 84 110q32 66 32 139q0 134 -101 229q-99 94 -233 94q-139 0 -236 -95q-97 -96 -97 -234q0 -133 99 -229q99 -94 234 -94zM381 674v0q116 0 201 -81q88 -83 88 -200q0 -63 -28 -121q-26 -55 -72 -96l-90 108
l-29 -27l87 -105q-35 -22 -75 -34t-82 -12q-117 0 -203 82q-87 84 -87 199q0 119 86 204q86 83 204 83z" />
    <glyph glyph-name="R" unicode="R" horiz-adv-x="603" 
d="M335 320v0q100 7 162 64q59 55 59 131q0 57 -27 100q-27 42 -78 69q-37 20 -91 26q-32 4 -95 4l-10 -1h-157v-644h47v602h124l17 1q52 0 78 -4q43 -5 73 -25q34 -22 54 -54q21 -33 21 -69q0 -46 -28 -85q-27 -37 -74 -58q-30 -11 -70 -14q-24 -2 -72 -1h-15l223 -293h58z
" />
    <glyph glyph-name="S" unicode="S" horiz-adv-x="529" 
d="M266 60v0q82 0 143 53q63 54 63 129q0 38 -17 73q-17 34 -45 58q-27 22 -62 35q-21 8 -66 19l-6 1q-75 19 -106 41q-46 31 -46 88q0 54 38 92q40 38 99 38q56 0 97 -31q40 -32 51 -86h44q-8 69 -60 113q-52 42 -122 42q-82 0 -137 -45q-55 -47 -55 -121q0 -34 14 -64
t42 -52q21 -17 53 -29q20 -7 61 -17q44 -11 64 -18q35 -13 60 -32q24 -18 39 -46t15 -58q0 -61 -49 -103q-47 -41 -114 -41q-61 0 -106 39q-45 38 -54 96h-47q7 -78 67 -127q59 -47 142 -47z" />
    <glyph glyph-name="T" unicode="T" horiz-adv-x="431" 
d="M241 674v0h163v40h-378v-40h166v-604h49v604z" />
    <glyph glyph-name="U" unicode="U" horiz-adv-x="614" 
d="M486 145v0q29 38 41 89q10 40 10 100v379h-46v-379q0 -49 -8 -83q-10 -45 -35 -79q-24 -31 -63 -50q-37 -18 -77 -18q-47 0 -86 21q-40 20 -62 57q-22 32 -30 75q-5 31 -5 77v379h-47v-379q0 -65 9 -104q12 -52 45 -91q31 -37 78 -58q46 -21 98 -21t99 23q48 22 79 62z
" />
    <glyph glyph-name="V" unicode="V" horiz-adv-x="580" 
d="M316 70l240 645h-48l-218 -588l-216 588h-49l240 -645h51z" />
    <glyph glyph-name="W" unicode="W" horiz-adv-x="865" 
d="M655 63l185 645h-46q-2 -7 -73 -259q-76 -265 -91 -319l-170 578h-56l-167 -582l-164 582h-47l185 -645h51l170 586l171 -586h52z" />
    <glyph glyph-name="X" unicode="X" horiz-adv-x="585" 
d="M507 63h56l-240 332l227 313h-53l-204 -277l-200 277h-55l226 -313l-242 -332h56l215 296z" />
    <glyph glyph-name="Y" unicode="Y" horiz-adv-x="610" 
d="M328 341v0l258 367h-53l-228 -327l-227 327h-56l258 -367v-278h48v278z" />
    <glyph glyph-name="Z" unicode="Z" horiz-adv-x="551" 
d="M32 63v0h487v44h-435l427 560v41h-454v-44h399l-424 -560v-41z" />
    <glyph glyph-name="bracketleft" unicode="[" horiz-adv-x="277" 
d="M113 -106v0h145v38h-103v865h103v38h-145v-941z" />
    <glyph glyph-name="backslash" unicode="\" horiz-adv-x="429" 
d="M363 19h41l-337 765h-42z" />
    <glyph glyph-name="bracketright" unicode="]" horiz-adv-x="295" 
d="M32 -106v0h144v941h-144v-38h101v-865h-101v-38z" />
    <glyph glyph-name="asciicircum" unicode="^" horiz-adv-x="567" 
d="M475 293h47l-212 410h-51l-215 -410h47l193 367z" />
    <glyph glyph-name="underscore" unicode="_" horiz-adv-x="601" 
d="M58 -105v0h486v43h-486v-43z" />
    <glyph glyph-name="grave" unicode="`" horiz-adv-x="256" 
 />
    <glyph glyph-name="a" unicode="a" horiz-adv-x="642" 
d="M509 76v0h44v464h-44v-107q-36 55 -91 88q-57 33 -121 33q-104 0 -177 -71q-73 -72 -73 -174q0 -101 73 -173t177 -72q64 0 121 34q55 32 91 86v-108zM302 511v0q85 0 146 -59t61 -143q0 -83 -61 -143t-146 -60q-87 0 -148 60t-61 143q0 84 61 143t148 59z" />
    <glyph glyph-name="b" unicode="b" horiz-adv-x="642" 
d="M346 65v0q102 0 175 72q74 72 74 173q0 102 -74 174q-73 71 -175 71q-65 0 -123 -33q-56 -32 -91 -88v287h-44v-643h46l-1 107q35 -54 90 -86q58 -34 123 -34zM340 513v0q86 0 147 -59t61 -144q0 -84 -61 -143q-61 -60 -147 -60t-146 60q-60 59 -60 143q0 85 60 144
t146 59z" />
    <glyph glyph-name="c" unicode="c" horiz-adv-x="572" 
d="M475 412v0h52q-36 66 -97 103q-60 35 -128 35q-104 0 -179 -70q-76 -71 -76 -174q0 -105 76 -176q74 -70 181 -70q68 0 125 34q57 35 96 99h-50q-36 -46 -78 -68q-44 -24 -100 -24q-86 0 -145 60q-57 60 -57 145q0 87 61 146q60 57 147 57q50 0 96 -26t76 -71z" />
    <glyph glyph-name="d" unicode="d" horiz-adv-x="642" 
d="M509 75v0h44v648h-44v-290q-36 55 -91 87q-57 32 -121 32q-104 0 -177 -71t-73 -173q0 -101 73 -173t177 -72q64 0 121 34q55 32 91 87v-109zM302 510v0q85 0 146 -58q61 -59 61 -144q0 -83 -61 -143t-146 -60q-87 0 -148 60t-61 143q0 85 61 144q61 58 148 58z" />
    <glyph glyph-name="e" unicode="e" horiz-adv-x="585" 
d="M95 294v0h443q-4 56 -14 92q-13 42 -41 77q-37 44 -85 67q-50 24 -105 24q-104 0 -175 -72t-71 -176q0 -103 71 -174q72 -72 176 -72q73 0 133 37q62 38 100 112h-54q-29 -52 -74 -79q-47 -28 -111 -28q-73 0 -129 53q-59 55 -64 139zM294 511v0q71 0 127 -50
q58 -52 68 -129h-395q17 84 73 133q54 46 127 46z" />
    <glyph glyph-name="f" unicode="f" horiz-adv-x="336" 
d="M159 490v0h140v44h-140v22q0 57 36 87q36 28 103 29v42q-90 0 -137 -45q-49 -46 -47 -135h-88v-44h87v-420h46v420z" />
    <glyph glyph-name="g" unicode="g" horiz-adv-x="614" 
d="M480 -65v0q36 40 47 79q9 31 9 94v397h-44v-87q-35 53 -88 83q-56 31 -117 31q-100 0 -170 -68q-70 -69 -70 -168q0 -97 70 -166t170 -69q61 0 117 32q53 31 88 83v-68q0 -18 -1 -31q-2 -15 -4 -28q-10 -66 -66 -106q-53 -38 -127 -38q-64 0 -110 29q-46 27 -77 82h-45
q27 -72 92 -115q61 -42 135 -42q53 0 104 20q54 21 87 56zM293 491v0q81 0 139 -57q59 -57 59 -138q0 -80 -59 -137q-58 -57 -139 -57q-83 0 -141 57t-58 137q0 81 58 138t141 57z" />
    <glyph glyph-name="h" unicode="h" horiz-adv-x="608" 
d="M483 70v0h47v233q0 53 -11 90q-12 44 -41 77q-32 37 -78 56q-45 19 -93 19q-46 0 -89 -18q-51 -21 -83 -63v250h-47v-644h47v233q0 46 4 70q6 37 26 61q24 31 62 50q38 18 77 18q43 0 81 -17q40 -19 66 -53q19 -27 26 -63q6 -26 6 -66v-233z" />
    <glyph glyph-name="i" unicode="i" horiz-adv-x="265" 
d="M108 614v0h47v101h-47v-101zM108 70v0h47v469h-47v-469z" />
    <glyph glyph-name="j" unicode="j" horiz-adv-x="234" 
d="M88 611v0h47v102h-47v-102zM135 22v0v513h-47v-510q0 -50 -12 -67q-11 -17 -44 -17l-26 2v-39q9 -1 19 -1q5 -1 13 -1q55 0 78 38q19 28 19 82z" />
    <glyph glyph-name="k" unicode="k" horiz-adv-x="514" 
d="M412 70v0h59l-207 247l194 244h-56l-267 -333v486h-47v-644h47v90l100 123z" />
    <glyph glyph-name="l" unicode="l" horiz-adv-x="242" 
d="M98 70v0h46v645h-46v-645z" />
    <glyph glyph-name="m" unicode="m" horiz-adv-x="903" 
d="M779 70v0h46v250q0 92 -50 155q-55 69 -146 69q-61 0 -105 -31q-39 -27 -67 -80q-27 48 -65 76q-49 35 -111 35q-42 0 -76 -17q-39 -21 -70 -65v71h-47v-463h48v251q0 40 3 60q6 29 24 53q21 31 52 49q32 17 67 17q37 0 70 -18t54 -50q17 -25 23 -54q4 -19 4 -57v-251h46
v244l-1 4q0 41 3 60q5 32 22 54q20 31 53 49q34 19 69 19q39 0 71 -16q32 -17 54 -50q17 -24 24 -59q5 -24 5 -61v-244z" />
    <glyph glyph-name="n" unicode="n" horiz-adv-x="608" 
d="M483 70v0h47v231q0 54 -11 91q-12 44 -41 77q-32 37 -78 56q-45 19 -93 19q-46 0 -89 -18q-51 -22 -83 -63v63h-47v-456h47v231q0 48 3 71q6 37 27 62q23 31 61 50q38 18 78 18q43 0 81 -17q41 -19 66 -53q19 -27 26 -63q6 -26 6 -68v-231z" />
    <glyph glyph-name="o" unicode="o" horiz-adv-x="584" 
d="M293 64v0q100 0 172 74q72 73 72 174q0 98 -74 170q-73 72 -170 72q-104 0 -175 -72t-71 -176q0 -99 73 -171q72 -71 173 -71zM430 454v0q31 -28 46 -64q15 -35 15 -78q0 -84 -56 -144q-57 -61 -142 -61q-83 0 -142 59q-58 58 -58 140q0 85 57 144q58 60 143 60
q38 0 74 -14q35 -15 63 -42z" />
    <glyph glyph-name="p" unicode="p" horiz-adv-x="641" 
d="M344 55v0q102 0 176 73q74 72 74 172q0 102 -74 174q-73 71 -176 71q-64 0 -121 -31q-55 -30 -90 -83v103h-45v-627h45v264q35 -53 90 -84q56 -32 121 -32zM339 503v0q85 0 145 -59q61 -59 61 -144q0 -83 -61 -142q-60 -60 -145 -60q-80 0 -139 53q-59 52 -67 128v43
q8 77 67 129t139 52z" />
    <glyph glyph-name="q" unicode="q" horiz-adv-x="641" 
d="M508 -90v0h45v626h-45v-103q-36 53 -91 83q-57 31 -120 31q-104 0 -177 -71t-73 -173q0 -101 73 -173t177 -72q64 0 120 32q55 31 91 83v-263zM507 324v0v-43q-8 -76 -67 -128q-59 -53 -138 -53q-87 0 -148 60q-60 59 -60 143q0 85 60 144q61 58 148 58q80 0 138 -51
q59 -52 67 -130z" />
    <glyph glyph-name="r" unicode="r" horiz-adv-x="329" 
d="M202 472v0q21 16 46 23q18 5 55 10v44q-50 0 -93 -22q-47 -25 -77 -74v86h-45v-468h45v249q0 51 12 83q16 39 57 69z" />
    <glyph glyph-name="s" unicode="s" horiz-adv-x="410" 
d="M200 62v0q71 0 116 40q47 41 47 105q0 56 -42 88q-31 24 -102 45q-53 15 -73 30q-31 22 -31 61q0 33 25 56q26 22 64 22q36 0 62 -17q27 -18 34 -51h48q-10 49 -49 80q-38 30 -88 30q-60 0 -102 -35q-42 -36 -42 -90q0 -24 10 -47q10 -22 30 -38q17 -14 42 -25
q21 -8 52 -16q50 -13 76 -32q37 -27 37 -72q0 -40 -32 -66q-30 -26 -75 -26q-44 0 -75 26t-37 66h-48q5 -57 49 -95q44 -39 104 -39z" />
    <glyph glyph-name="t" unicode="t" horiz-adv-x="344" 
d="M189 489v0h128v44h-128v180h-48v-180h-115v-44h115v-419h48v419z" />
    <glyph glyph-name="u" unicode="u" horiz-adv-x="598" 
d="M473 76v0h47v456h-47v-232q0 -44 -5 -68q-6 -37 -25 -62q-24 -31 -62 -50q-38 -18 -77 -18q-44 0 -82 18q-40 19 -64 52q-20 28 -28 63q-5 26 -5 65v232h-47v-232q0 -53 9 -89q12 -44 43 -79q32 -35 77 -54q45 -20 94 -20q45 0 89 19q50 21 83 62v-63z" />
    <glyph glyph-name="v" unicode="v" horiz-adv-x="441" 
d="M251 70l177 466h-49l-154 -409l-160 409h-50l187 -466h49z" />
    <glyph glyph-name="w" unicode="w" horiz-adv-x="674" 
d="M509 70l151 467h-49l-125 -406l-122 406h-53l-123 -406l-126 406h-47l148 -467h50l124 403l123 -403h49z" />
    <glyph glyph-name="x" unicode="x" horiz-adv-x="449" 
d="M379 70h57l-184 245l169 222h-56l-141 -188l-141 188h-59l171 -222l-183 -245h55l157 213z" />
    <glyph glyph-name="y" unicode="y" horiz-adv-x="488" 
d="M182 -112l293 646h-49l-185 -407l-177 407h-49l198 -461l-79 -185h48z" />
    <glyph glyph-name="z" unicode="z" horiz-adv-x="425" 
d="M26 69v0h373v43h-316l301 386v38h-334v-43h277l-301 -385v-39z" />
    <glyph glyph-name="braceleft" unicode="{" horiz-adv-x="364" 
d="M212 -116v0h54v38h-51q-30 0 -41 23q-11 22 -11 80v161q0 47 -10 83q-8 29 -21 50q-6 10 -16 19q-6 5 -19 16l-4 3l4 2q38 19 55 72q12 38 12 92v161q0 59 10 81q11 22 41 22h51v38h-54q-46 0 -68 -26q-24 -29 -24 -97v-163q0 -71 -14 -110q-18 -50 -59 -53v-44
q41 -2 59 -51q14 -39 14 -113v-161q0 -68 24 -97q21 -26 68 -26z" />
    <glyph glyph-name="bar" unicode="|" horiz-adv-x="445" 
d="M201 3v0h43v771h-43v-771z" />
    <glyph glyph-name="braceright" unicode="}" horiz-adv-x="409" 
d="M288 168v0q0 74 14 113q18 49 60 51v44q-43 3 -61 53q-14 39 -14 110v163q0 68 -24 97q-22 26 -68 26h-52v-38h51q29 0 40 -22t11 -81v-161q0 -53 11 -91q16 -52 55 -73l5 -2l-7 -4q-12 -10 -18 -16q-9 -8 -15 -18q-15 -20 -22 -50q-9 -35 -9 -83v-161q0 -59 -11 -80
q-11 -23 -40 -23h-51v-38h52q46 0 68 26q25 29 25 97v161z" />
    <glyph glyph-name="asciitilde" unicode="~" horiz-adv-x="614" 
d="M416 265v0q39 0 74 29q25 21 52 61l-31 32q-19 -32 -41 -53q-28 -25 -54 -25q-21 0 -43 9q-14 5 -40 18l-20 10l-5 3q-39 16 -56 22q-26 7 -53 7q-44 0 -75 -22q-27 -20 -52 -65l32 -33q17 36 35 53q27 24 66 24q17 0 48 -10q23 -9 45 -20q40 -20 62 -29q29 -11 56 -11z
" />
    <glyph glyph-name="uni007F" horiz-adv-x="512" 
d="M401 47h-290v640h290v-640zM64 735v-736h384v736h-384z" />
    <glyph glyph-name="uni0080" horiz-adv-x="512" 
d="M401 47h-290v640h290v-640zM64 735v-736h384v736h-384z" />
    <glyph glyph-name="uni0080" unicode="&#xe0;" horiz-adv-x="512" 
d="M401 47h-290v640h290v-640zM64 735v-736h384v736h-384z" />
    <glyph glyph-name="uni0080" unicode="&#xc0;" horiz-adv-x="512" 
d="M401 47h-290v640h290v-640zM64 735v-736h384v736h-384z" />
    <glyph glyph-name="uni0080" unicode="&#xa0;" horiz-adv-x="512" 
d="M401 47h-290v640h290v-640zM64 735v-736h384v736h-384z" />
    <glyph glyph-name="uni0080" horiz-adv-x="512" 
d="M401 47h-290v640h290v-640zM64 735v-736h384v736h-384z" />
    <glyph glyph-name="uni0081" horiz-adv-x="512" 
d="M401 47h-290v640h290v-640zM64 735v-736h384v736h-384z" />
    <glyph glyph-name="uni0081" unicode="&#xf1;" horiz-adv-x="512" 
d="M401 47h-290v640h290v-640zM64 735v-736h384v736h-384z" />
    <glyph glyph-name="uni0081" unicode="&#xe1;" horiz-adv-x="512" 
d="M401 47h-290v640h290v-640zM64 735v-736h384v736h-384z" />
    <glyph glyph-name="uni0081" unicode="&#xd1;" horiz-adv-x="512" 
d="M401 47h-290v640h290v-640zM64 735v-736h384v736h-384z" />
    <glyph glyph-name="uni0081" unicode="&#xc1;" horiz-adv-x="512" 
d="M401 47h-290v640h290v-640zM64 735v-736h384v736h-384z" />
    <glyph glyph-name="uni0081" horiz-adv-x="512" 
d="M401 47h-290v640h290v-640zM64 735v-736h384v736h-384z" />
    <glyph glyph-name="uni0082" horiz-adv-x="512" 
d="M401 47h-290v640h290v-640zM64 735v-736h384v736h-384z" />
    <glyph glyph-name="uni0082" unicode="&#xf2;" horiz-adv-x="512" 
d="M401 47h-290v640h290v-640zM64 735v-736h384v736h-384z" />
    <glyph glyph-name="uni0082" unicode="&#xe2;" horiz-adv-x="512" 
d="M401 47h-290v640h290v-640zM64 735v-736h384v736h-384z" />
    <glyph glyph-name="uni0082" unicode="&#xd2;" horiz-adv-x="512" 
d="M401 47h-290v640h290v-640zM64 735v-736h384v736h-384z" />
    <glyph glyph-name="uni0082" unicode="&#xc2;" horiz-adv-x="512" 
d="M401 47h-290v640h290v-640zM64 735v-736h384v736h-384z" />
    <glyph glyph-name="uni0082" unicode="&#xa2;" horiz-adv-x="512" 
d="M401 47h-290v640h290v-640zM64 735v-736h384v736h-384z" />
    <glyph glyph-name="uni0082" horiz-adv-x="512" 
d="M401 47h-290v640h290v-640zM64 735v-736h384v736h-384z" />
    <glyph glyph-name="uni0083" horiz-adv-x="512" 
d="M401 47h-290v640h290v-640zM64 735v-736h384v736h-384z" />
    <glyph glyph-name="uni0083" unicode="&#xf3;" horiz-adv-x="512" 
d="M401 47h-290v640h290v-640zM64 735v-736h384v736h-384z" />
    <glyph glyph-name="uni0083" unicode="&#xe3;" horiz-adv-x="512" 
d="M401 47h-290v640h290v-640zM64 735v-736h384v736h-384z" />
    <glyph glyph-name="uni0083" unicode="&#xd3;" horiz-adv-x="512" 
d="M401 47h-290v640h290v-640zM64 735v-736h384v736h-384z" />
    <glyph glyph-name="uni0083" unicode="&#xc3;" horiz-adv-x="512" 
d="M401 47h-290v640h290v-640zM64 735v-736h384v736h-384z" />
    <glyph glyph-name="uni0083" unicode="&#xa3;" horiz-adv-x="512" 
d="M401 47h-290v640h290v-640zM64 735v-736h384v736h-384z" />
    <glyph glyph-name="uni0083" horiz-adv-x="512" 
d="M401 47h-290v640h290v-640zM64 735v-736h384v736h-384z" />
    <glyph glyph-name="uni0084" horiz-adv-x="512" 
d="M401 47h-290v640h290v-640zM64 735v-736h384v736h-384z" />
    <glyph glyph-name="uni0084" unicode="&#xf4;" horiz-adv-x="512" 
d="M401 47h-290v640h290v-640zM64 735v-736h384v736h-384z" />
    <glyph glyph-name="uni0084" unicode="&#xe4;" horiz-adv-x="512" 
d="M401 47h-290v640h290v-640zM64 735v-736h384v736h-384z" />
    <glyph glyph-name="uni0084" unicode="&#xd4;" horiz-adv-x="512" 
d="M401 47h-290v640h290v-640zM64 735v-736h384v736h-384z" />
    <glyph glyph-name="uni0084" unicode="&#xc4;" horiz-adv-x="512" 
d="M401 47h-290v640h290v-640zM64 735v-736h384v736h-384z" />
    <glyph glyph-name="uni0084" horiz-adv-x="512" 
d="M401 47h-290v640h290v-640zM64 735v-736h384v736h-384z" />
    <glyph glyph-name="uni0085" unicode="&#x85;" horiz-adv-x="512" 
d="M401 47h-290v640h290v-640zM64 735v-736h384v736h-384z" />
    <glyph glyph-name="uni0085" unicode="&#xf5;" horiz-adv-x="512" 
d="M401 47h-290v640h290v-640zM64 735v-736h384v736h-384z" />
    <glyph glyph-name="uni0085" unicode="&#xe5;" horiz-adv-x="512" 
d="M401 47h-290v640h290v-640zM64 735v-736h384v736h-384z" />
    <glyph glyph-name="uni0085" unicode="&#xd5;" horiz-adv-x="512" 
d="M401 47h-290v640h290v-640zM64 735v-736h384v736h-384z" />
    <glyph glyph-name="uni0085" unicode="&#xc5;" horiz-adv-x="512" 
d="M401 47h-290v640h290v-640zM64 735v-736h384v736h-384z" />
    <glyph glyph-name="uni0085" unicode="&#xb5;" horiz-adv-x="512" 
d="M401 47h-290v640h290v-640zM64 735v-736h384v736h-384z" />
    <glyph glyph-name="uni0085" unicode="&#xa5;" horiz-adv-x="512" 
d="M401 47h-290v640h290v-640zM64 735v-736h384v736h-384z" />
    <glyph glyph-name="uni0085" horiz-adv-x="512" 
d="M401 47h-290v640h290v-640zM64 735v-736h384v736h-384z" />
    <glyph glyph-name="uni0086" horiz-adv-x="512" 
d="M401 47h-290v640h290v-640zM64 735v-736h384v736h-384z" />
    <glyph glyph-name="uni0086" unicode="&#xf6;" horiz-adv-x="512" 
d="M401 47h-290v640h290v-640zM64 735v-736h384v736h-384z" />
    <glyph glyph-name="uni0086" unicode="&#xd6;" horiz-adv-x="512" 
d="M401 47h-290v640h290v-640zM64 735v-736h384v736h-384z" />
    <glyph glyph-name="uni0086" unicode="&#xa6;" horiz-adv-x="512" 
d="M401 47h-290v640h290v-640zM64 735v-736h384v736h-384z" />
    <glyph glyph-name="uni0086" horiz-adv-x="512" 
d="M401 47h-290v640h290v-640zM64 735v-736h384v736h-384z" />
    <glyph glyph-name="uni0087" horiz-adv-x="512" 
d="M401 47h-290v640h290v-640zM64 735v-736h384v736h-384z" />
    <glyph glyph-name="uni0087" unicode="&#xe7;" horiz-adv-x="512" 
d="M401 47h-290v640h290v-640zM64 735v-736h384v736h-384z" />
    <glyph glyph-name="uni0087" unicode="&#xc7;" horiz-adv-x="512" 
d="M401 47h-290v640h290v-640zM64 735v-736h384v736h-384z" />
    <glyph glyph-name="uni0087" horiz-adv-x="512" 
d="M401 47h-290v640h290v-640zM64 735v-736h384v736h-384z" />
    <glyph glyph-name="uni0088" horiz-adv-x="512" 
d="M401 47h-290v640h290v-640zM64 735v-736h384v736h-384z" />
    <glyph glyph-name="uni0088" unicode="&#xe8;" horiz-adv-x="512" 
d="M401 47h-290v640h290v-640zM64 735v-736h384v736h-384z" />
    <glyph glyph-name="uni0088" unicode="&#xc8;" horiz-adv-x="512" 
d="M401 47h-290v640h290v-640zM64 735v-736h384v736h-384z" />
    <glyph glyph-name="uni0088" horiz-adv-x="512" 
d="M401 47h-290v640h290v-640zM64 735v-736h384v736h-384z" />
    <glyph glyph-name="uni0089" horiz-adv-x="512" 
d="M401 47h-290v640h290v-640zM64 735v-736h384v736h-384z" />
    <glyph glyph-name="uni0089" unicode="&#xf9;" horiz-adv-x="512" 
d="M401 47h-290v640h290v-640zM64 735v-736h384v736h-384z" />
    <glyph glyph-name="uni0089" unicode="&#xe9;" horiz-adv-x="512" 
d="M401 47h-290v640h290v-640zM64 735v-736h384v736h-384z" />
    <glyph glyph-name="uni0089" unicode="&#xd9;" horiz-adv-x="512" 
d="M401 47h-290v640h290v-640zM64 735v-736h384v736h-384z" />
    <glyph glyph-name="uni0089" unicode="&#xc9;" horiz-adv-x="512" 
d="M401 47h-290v640h290v-640zM64 735v-736h384v736h-384z" />
    <glyph glyph-name="uni0089" unicode="&#xa9;" horiz-adv-x="512" 
d="M401 47h-290v640h290v-640zM64 735v-736h384v736h-384z" />
    <glyph glyph-name="uni0089" horiz-adv-x="512" 
d="M401 47h-290v640h290v-640zM64 735v-736h384v736h-384z" />
    <glyph glyph-name="uni008A" horiz-adv-x="512" 
d="M401 47h-290v640h290v-640zM64 735v-736h384v736h-384z" />
    <glyph glyph-name="uni008A" unicode="&#xfa;" horiz-adv-x="512" 
d="M401 47h-290v640h290v-640zM64 735v-736h384v736h-384z" />
    <glyph glyph-name="uni008A" unicode="&#xea;" horiz-adv-x="512" 
d="M401 47h-290v640h290v-640zM64 735v-736h384v736h-384z" />
    <glyph glyph-name="uni008A" unicode="&#xda;" horiz-adv-x="512" 
d="M401 47h-290v640h290v-640zM64 735v-736h384v736h-384z" />
    <glyph glyph-name="uni008A" unicode="&#xca;" horiz-adv-x="512" 
d="M401 47h-290v640h290v-640zM64 735v-736h384v736h-384z" />
    <glyph glyph-name="uni008A" horiz-adv-x="512" 
d="M401 47h-290v640h290v-640zM64 735v-736h384v736h-384z" />
    <glyph glyph-name="uni008B" horiz-adv-x="512" 
d="M401 47h-290v640h290v-640zM64 735v-736h384v736h-384z" />
    <glyph glyph-name="uni008B" unicode="&#xfb;" horiz-adv-x="512" 
d="M401 47h-290v640h290v-640zM64 735v-736h384v736h-384z" />
    <glyph glyph-name="uni008B" unicode="&#xeb;" horiz-adv-x="512" 
d="M401 47h-290v640h290v-640zM64 735v-736h384v736h-384z" />
    <glyph glyph-name="uni008B" unicode="&#xdb;" horiz-adv-x="512" 
d="M401 47h-290v640h290v-640zM64 735v-736h384v736h-384z" />
    <glyph glyph-name="uni008B" unicode="&#xcb;" horiz-adv-x="512" 
d="M401 47h-290v640h290v-640zM64 735v-736h384v736h-384z" />
    <glyph glyph-name="uni008B" unicode="&#xbb;" horiz-adv-x="512" 
d="M401 47h-290v640h290v-640zM64 735v-736h384v736h-384z" />
    <glyph glyph-name="uni008B" unicode="&#xab;" horiz-adv-x="512" 
d="M401 47h-290v640h290v-640zM64 735v-736h384v736h-384z" />
    <glyph glyph-name="uni008B" horiz-adv-x="512" 
d="M401 47h-290v640h290v-640zM64 735v-736h384v736h-384z" />
    <glyph glyph-name="uni008C" horiz-adv-x="512" 
d="M401 47h-290v640h290v-640zM64 735v-736h384v736h-384z" />
    <glyph glyph-name="uni008C" unicode="&#xfc;" horiz-adv-x="512" 
d="M401 47h-290v640h290v-640zM64 735v-736h384v736h-384z" />
    <glyph glyph-name="uni008C" unicode="&#xec;" horiz-adv-x="512" 
d="M401 47h-290v640h290v-640zM64 735v-736h384v736h-384z" />
    <glyph glyph-name="uni008C" unicode="&#xdc;" horiz-adv-x="512" 
d="M401 47h-290v640h290v-640zM64 735v-736h384v736h-384z" />
    <glyph glyph-name="uni008C" unicode="&#xcc;" horiz-adv-x="512" 
d="M401 47h-290v640h290v-640zM64 735v-736h384v736h-384z" />
    <glyph glyph-name="uni008C" unicode="&#xac;" horiz-adv-x="512" 
d="M401 47h-290v640h290v-640zM64 735v-736h384v736h-384z" />
    <glyph glyph-name="uni008C" horiz-adv-x="512" 
d="M401 47h-290v640h290v-640zM64 735v-736h384v736h-384z" />
    <glyph glyph-name="uni008D" horiz-adv-x="512" 
d="M401 47h-290v640h290v-640zM64 735v-736h384v736h-384z" />
    <glyph glyph-name="uni008D" unicode="&#xfd;" horiz-adv-x="512" 
d="M401 47h-290v640h290v-640zM64 735v-736h384v736h-384z" />
    <glyph glyph-name="uni008D" unicode="&#xed;" horiz-adv-x="512" 
d="M401 47h-290v640h290v-640zM64 735v-736h384v736h-384z" />
    <glyph glyph-name="uni008D" unicode="&#xdd;" horiz-adv-x="512" 
d="M401 47h-290v640h290v-640zM64 735v-736h384v736h-384z" />
    <glyph glyph-name="uni008D" unicode="&#xcd;" horiz-adv-x="512" 
d="M401 47h-290v640h290v-640zM64 735v-736h384v736h-384z" />
    <glyph glyph-name="uni008D" horiz-adv-x="512" 
d="M401 47h-290v640h290v-640zM64 735v-736h384v736h-384z" />
    <glyph glyph-name="uni008E" horiz-adv-x="512" 
d="M401 47h-290v640h290v-640zM64 735v-736h384v736h-384z" />
    <glyph glyph-name="uni008E" unicode="&#xee;" horiz-adv-x="512" 
d="M401 47h-290v640h290v-640zM64 735v-736h384v736h-384z" />
    <glyph glyph-name="uni008E" unicode="&#xce;" horiz-adv-x="512" 
d="M401 47h-290v640h290v-640zM64 735v-736h384v736h-384z" />
    <glyph glyph-name="uni008E" unicode="&#xae;" horiz-adv-x="512" 
d="M401 47h-290v640h290v-640zM64 735v-736h384v736h-384z" />
    <glyph glyph-name="uni008E" horiz-adv-x="512" 
d="M401 47h-290v640h290v-640zM64 735v-736h384v736h-384z" />
    <glyph glyph-name="uni008F" horiz-adv-x="512" 
d="M401 47h-290v640h290v-640zM64 735v-736h384v736h-384z" />
    <glyph glyph-name="uni008F" unicode="&#xff;" horiz-adv-x="512" 
d="M401 47h-290v640h290v-640zM64 735v-736h384v736h-384z" />
    <glyph glyph-name="uni008F" unicode="&#xef;" horiz-adv-x="512" 
d="M401 47h-290v640h290v-640zM64 735v-736h384v736h-384z" />
    <glyph glyph-name="uni008F" unicode="&#xcf;" horiz-adv-x="512" 
d="M401 47h-290v640h290v-640zM64 735v-736h384v736h-384z" />
    <glyph glyph-name="uni008F" unicode="&#xaf;" horiz-adv-x="512" 
d="M401 47h-290v640h290v-640zM64 735v-736h384v736h-384z" />
    <glyph glyph-name="uni008F" horiz-adv-x="512" 
d="M401 47h-290v640h290v-640zM64 735v-736h384v736h-384z" />
    <glyph glyph-name="exclamdown" unicode="&#xa1;" 
d="M459 764v-109h117v109h-117zM492 553l-31 -559h123l-32 559h-60z" />
    <glyph glyph-name="currency" unicode="&#xa4;" 
d="M505 668q-61 0 -113 -17q-49 -17 -86 -50l-156 155l-25 -22l157 -156q-38 -41 -58 -96q-18 -53 -18 -112q0 -58 18 -111q19 -56 57 -98l-153 -152l24 -23l153 151q38 -32 86 -50q53 -20 114 -20q65 0 121 21q51 19 92 55l167 -171l23 25l-167 168q36 42 56 96
q19 52 19 109q-1 58 -21 110q-21 54 -58 94l166 165l-25 25l-165 -165q-40 34 -91 51q-53 18 -117 18zM505 638q130 0 206 -85q69 -76 69 -187q0 -109 -69 -185q-76 -85 -206 -85q-125 0 -198 85q-66 76 -66 185q0 111 66 187q73 85 198 85z" />
    <glyph glyph-name="section" unicode="&#xa7;" 
d="M537 830v0l-16 1q-80 6 -130 -38q-45 -40 -45 -97q0 -59 40 -116q23 -32 73 -78l11 -10q-76 9 -123 -30q-41 -34 -41 -86q0 -67 54 -128q32 -36 117 -97q67 -49 92 -74q43 -43 50 -85q9 -53 -34 -75q-28 -15 -75 -15q-33 0 -54 16q-17 14 -17 30q19 3 34 21q16 20 13 41
q-4 32 -27 48q-20 15 -47 12q-28 -3 -46 -21q-20 -20 -19 -52q2 -64 63 -101q52 -33 122 -33q71 0 122 36q56 41 52 105q-5 60 -46 116q-34 45 -72 65q59 -2 104 35q48 39 44 94q-7 53 -55 109q-29 34 -100 95q-75 64 -101 95q-45 53 -45 101q0 38 25 60q24 21 61 21
q20 0 38 -8t21 -21q-24 -12 -30 -33q-6 -19 3 -39q9 -19 26 -31q19 -12 39 -10q35 6 48 33q13 25 1 58q-12 34 -44 57q-36 26 -86 29zM435 462v0l10 1q51 0 126 -64q78 -66 78 -117q0 -37 -19 -53q-18 -16 -57 -16q-19 0 -50 18t-61 46q-33 31 -53 63q-22 36 -22 67
q0 23 12 37q12 15 36 18z" />
    <glyph glyph-name="dieresis" unicode="&#xa8;" 
d="M726 656v0h56v109h-56v-109zM256 655v0h56v110h-56v-110z" />
    <glyph glyph-name="ordfeminine" unicode="&#xaa;" 
d="M313 576h68q0 33 24 49q29 18 97 18q58 0 81 -15q21 -13 21 -43v-55q-88 -15 -126 -24q-61 -14 -97 -31q-42 -21 -63 -51q-22 -33 -22 -82q0 -71 60 -101q40 -21 107 -21q52 0 94 16q40 16 64 42q10 -37 47 -49q29 -9 81 -5v60h-2q-40 -3 -54 4q-20 10 -20 53v248
q0 52 -51 84q-47 29 -117 29q-94 0 -147 -42q-45 -35 -45 -84zM604 472v-114q0 -30 -41 -54q-40 -24 -89 -24q-54 0 -81 18q-29 20 -29 60q0 41 73 73q64 28 167 41zM267 116v-60h490v60h-490z" />
    <glyph glyph-name="uni00AD" unicode="&#xad;" 
d="M353 391v0v-34h328v34h-328z" />
    <glyph glyph-name="degree" unicode="&#xb0;" 
d="M183 580v0q48 0 77 31q26 28 26 67q0 41 -26 69q-29 31 -77 31q-49 0 -76 -30q-24 -28 -24 -70q0 -41 24 -68q27 -30 76 -30zM183 767v0q41 0 66 -28q24 -25 24 -61q0 -34 -24 -59q-25 -28 -66 -28q-43 0 -68 28q-22 24 -22 59q0 36 22 61q25 28 68 28z" />
    <glyph glyph-name="plusminus" unicode="&#xb1;" 
d="M497 192v0h47v196h193v44h-193v194h-47v-194h-195v-44h195v-196zM323 89v0h388v44h-388v-44z" />
    <glyph glyph-name="uni00B2" unicode="&#xb2;" 
d="M424 419v57h-240q9 23 37 44q18 13 61 38q67 38 93 64q45 42 45 96q0 56 -43 90q-40 31 -102 31q-75 0 -119 -42q-44 -43 -44 -117h65q0 45 27 73q25 25 62 29q35 4 61 -13q28 -19 28 -53q0 -37 -32 -67q-19 -19 -72 -50q-68 -39 -94 -67q-43 -47 -39 -113h306z" />
    <glyph glyph-name="uni00B3" unicode="&#xb3;" 
d="M411 538q0 35 -20 61q-17 24 -44 35q26 11 41 30q18 23 18 55q0 60 -47 91q-40 27 -102 27q-59 0 -97 -36q-39 -38 -44 -103h64q3 40 26 62q21 19 54 19q35 0 54 -8q28 -14 28 -50q0 -33 -30 -47q-27 -13 -88 -13v-54q64 0 94 -20q29 -18 29 -54q0 -28 -28 -46
q-25 -16 -59 -16q-44 0 -67 22q-24 22 -29 71h-65q6 -77 54 -117q41 -33 103 -33q67 0 109 32q46 33 46 92z" />
    <glyph glyph-name="acute" unicode="&#xb4;" 
d="M621 821h-112l-91 -143h68z" />
    <glyph glyph-name="paragraph" unicode="&#xb6;" 
d="M570 804h-122q-123 0 -194 -64q-65 -58 -65 -143q0 -83 65 -141q71 -64 194 -64h60v-470h62v882zM508 748v-301h-72q-88 0 -139 47q-45 43 -45 103q0 62 45 104q52 47 139 47h72zM694 804v-882h62v882h-62z" />
    <glyph glyph-name="periodcentered" unicode="&#xb7;" 
d="M492 335v0h55v110h-55v-110z" />
    <glyph glyph-name="cedilla" unicode="&#xb8;" 
d="M435 98l17 -19q17 5 24 7q9 1 16 1q20 0 37 -10q27 -15 27 -47q0 -34 -29 -48q-18 -10 -43 -10q-19 0 -34 4q-12 3 -33 11l-17 -41q24 -9 45 -15q27 -7 53 -7q67 0 102 29q34 28 34 79q0 41 -22 67q-23 27 -64 27h-30q-7 -1 -16 -3l47 74h-48z" />
    <glyph glyph-name="uni00B9" unicode="&#xb9;" 
d="M280 419v411h-54q-6 -46 -32 -71q-24 -24 -59 -24h-11v-58h16q22 0 43 7q20 7 34 18v-283h63z" />
    <glyph glyph-name="ordmasculine" unicode="&#xba;" 
d="M512 643q72 0 114 -57q38 -51 38 -125q0 -73 -38 -124q-42 -57 -114 -57t-114 57q-37 51 -37 124q0 74 37 125q42 57 114 57zM512 702q-105 0 -166 -75q-54 -68 -54 -166q0 -97 54 -165q61 -76 166 -76q104 0 165 76q55 68 55 165q0 98 -55 166q-61 75 -165 75zM267 116
v-60h490v60h-490z" />
    <glyph glyph-name="onequarter" unicode="&#xbc;" 
d="M583 24v55l181 277h65v-277h53v-55h-53v-108h-66v108h-180zM763 79v175l-110 -175h110zM73 -55l861 876l31 -27l-865 -876zM205 381h66v442h-59q0 -47 -30 -73q-27 -23 -69 -23v-55q33 0 55 8q19 6 37 22v-321z" />
    <glyph glyph-name="onehalf" unicode="&#xbd;" 
d="M73 -55l27 -27l865 876l-31 27zM614 -91h292v55h-227q1 24 28 50q16 16 59 48q63 46 88 73q43 48 43 99q0 62 -44 97q-39 30 -94 30q-57 0 -96 -41q-43 -44 -43 -119h65q0 52 20 80q19 25 54 25q36 0 52 -14q20 -16 20 -54q0 -39 -29 -73q-18 -20 -66 -57
q-62 -47 -86 -78q-39 -52 -36 -121zM205 381h66v442h-59q-4 -47 -35 -74q-29 -26 -71 -26h7v-56h-1q27 0 53 11q25 10 40 25v-322z" />
    <glyph glyph-name="threequarters" unicode="&#xbe;" 
d="M763 79h-110l110 175v-175zM583 24h180v-108h66v108h53v55h-53v277h-65l-181 -277v-55zM73 -55l27 -27l865 876l-31 27zM187 510h-66q0 -68 51 -107q42 -32 94 -32q56 0 99 37q44 38 44 90q-1 50 -26 79q-20 25 -53 31q22 7 42 29q26 30 26 71q0 49 -34 81q-37 34 -99 34
q-54 0 -92 -34q-41 -38 -41 -101h64q0 43 19 62q17 17 50 17q32 0 48 -13q19 -15 19 -46q0 -37 -19 -54q-20 -17 -72 -21v-56q54 2 77 -16q23 -17 24 -57q0 -38 -21 -58q-20 -19 -56 -19q-37 0 -56 18q-22 21 -22 65z" />
    <glyph glyph-name="questiondown" unicode="&#xbf;" 
d="M578 538h-45v-133q-99 -21 -146 -75q-44 -51 -44 -129q0 -83 49 -136q52 -56 139 -56q82 0 125 34t43 99h-77q0 -39 -22 -59q-22 -21 -67 -21q-65 0 -98 38q-31 36 -31 101q0 57 44 96q47 42 130 48v193zM492 758v-106h116v106h-116z" />
    <glyph glyph-name="AE" unicode="&#xc6;" 
d="M477 735l-404 -736h74l141 258h234v-258h438v60h-369v288h306v60h-306v268h369v60h-483zM522 683v-366h-201z" />
    <glyph glyph-name="Eth" unicode="&#xd0;" 
d="M275 735v-330h-201v-60h201v-346h321q102 0 168 87q77 99 77 284q0 190 -80 285q-68 80 -177 80h-309zM343 675h223q92 0 146 -70q60 -79 60 -238q0 -156 -60 -238q-51 -70 -133 -70h-236v286h197v60h-197v270z" />
    <glyph glyph-name="multiply" unicode="&#xd7;" 
d="M381 218l137 137l138 -137l32 32l-138 138l138 137l-32 32l-138 -137l-137 137l-32 -32l137 -137l-137 -138z" />
    <glyph glyph-name="Oslash" unicode="&#xd8;" 
d="M701 619l-413 -442q-16 32 -25 70q-13 54 -13 120q0 153 72 242q72 87 193 87q63 0 111 -22q39 -19 75 -55zM740 562q19 -37 30 -83q12 -51 12 -112q0 -154 -73 -242q-71 -87 -194 -87q-59 0 -108 22q-47 21 -81 60zM515 755q-153 0 -242 -103q-90 -105 -90 -285
q0 -70 15 -132q15 -59 43 -109l-104 -112l51 -43l94 101q44 -42 88 -63q63 -30 145 -30q153 0 243 104t90 284q0 63 -13 121q-16 74 -49 125l100 106l-51 43l-90 -95q-40 41 -96 64q-61 24 -134 24z" />
    <glyph glyph-name="Thorn" unicode="&#xde;" 
d="M700 370q0 -117 -80 -161q-67 -38 -232 -38v392q159 0 232 -42q80 -45 80 -151zM388 735h-68v-736h68v112q191 0 283 59q97 63 97 197q0 135 -97 197q-92 59 -283 59v112z" />
    <glyph glyph-name="germandbls" unicode="&#xdf;" 
d="M289 -1h69v586q0 55 38 81q35 24 101 24q60 0 91 -27q35 -32 35 -102q0 -79 -40 -112q-35 -28 -109 -28v-60q97 0 152 -43q55 -44 55 -124q0 -78 -36 -115q-33 -35 -95 -35q-43 0 -66 20q-21 17 -25 49h-63q5 -62 49 -96q40 -32 105 -32q100 0 151 61q48 55 48 153
q0 79 -40 128q-39 49 -113 68q36 11 62 49q33 47 33 117q0 92 -53 141q-51 47 -140 47q-96 0 -153 -47q-56 -47 -56 -122v-581z" />
    <glyph glyph-name="ae" unicode="&#xe6;" 
d="M538 271h298q0 134 -44 203q-45 69 -132 69q-49 0 -83 -14q-35 -15 -60 -49q-13 29 -44 45q-36 18 -92 18q-71 0 -122 -37q-51 -39 -52 -98h69q2 42 29 60q23 15 70 15q60 0 79 -34q16 -29 16 -116q-19 -8 -42 -17q-14 -5 -41 -15q-102 -38 -136 -66q-56 -44 -56 -122
q0 -63 46 -96q45 -32 128 -32q41 0 79 13q41 15 82 45q18 -24 48 -40q35 -18 79 -18q70 0 119 53q51 55 61 146h-74q-8 -74 -38 -109q-26 -31 -69 -31q-53 0 -83 53q-34 58 -35 174zM473 200q3 -39 9 -62q4 -19 15 -44q-34 -28 -61 -39q-28 -11 -69 -11q-58 0 -83 24
q-20 19 -20 56q0 46 48 78q32 21 141 64l18 6q-2 -14 -1 -32q0 -12 2 -36zM768 331h-230q3 83 40 122q30 30 78 30q46 0 74 -30q35 -39 38 -122z" />
    <glyph glyph-name="eth" unicode="&#xf0;" 
d="M511 543q-89 0 -148 -49q-60 -48 -69 -130h62q8 58 50 92q41 32 101 32q40 0 73 -17q19 -10 42 -30l1 -1l-190 -70l18 -51l203 74q9 -17 15 -55q7 -35 7 -64h-389v-20q0 -128 60 -199q59 -71 162 -71q107 0 168 74q62 74 62 207q0 42 -7 76q-6 36 -21 72l159 58l-19 51
l-167 -60q-29 39 -73 60q-45 21 -100 21zM676 224q-5 -85 -51 -136q-45 -50 -114 -50t-112 50q-44 50 -48 136h325z" />
    <glyph glyph-name="divide" unicode="&#xf7;" 
d="M491 504v0h56v110h-56v-110zM302 375v0h435v44h-435v-44zM491 177v0h56v110h-56v-110z" />
    <glyph glyph-name="oslash" unicode="&#xf8;" 
d="M683 687h-59l-53 -151q-10 3 -23 5q-18 2 -36 2q-115 0 -183 -87q-60 -79 -60 -193q0 -79 29 -140q30 -64 91 -107l-52 -147h59l44 125h1q14 -3 27 -5q23 -4 44 -4q115 0 183 87q61 78 61 191q0 80 -33 147q-35 73 -100 106zM553 485l-143 -411q-37 27 -58 80
q-20 52 -20 110q0 92 45 155q50 70 135 70zM604 463q39 -28 62 -75q27 -54 27 -124q0 -91 -46 -154q-50 -71 -135 -71q-14 0 -28 3q-14 2 -26 5z" />
    <glyph glyph-name="thorn" unicode="&#xfe;" 
d="M700 226q0 -105 -80 -146q-68 -36 -232 -36v359q158 0 232 -40q80 -42 80 -137zM388 543h-68v-670h68v112q190 0 283 57q97 59 97 182t-97 182q-94 57 -283 57v80z" />
    <glyph glyph-name="dcroat" unicode="&#x111;" 
d="M728 736h-62v-87h-282v-54h282v-194q-31 51 -77 78q-47 27 -106 27q-109 0 -173 -80q-57 -73 -57 -181q0 -107 57 -180q64 -80 173 -80q59 0 108 29q48 28 75 76v-91h62v596h104v54h-104v87zM493 452q85 0 134 -63q45 -57 45 -143t-45 -143q-49 -64 -134 -64
q-84 0 -133 64q-43 57 -43 143t43 143q49 63 133 63z" />
    <glyph glyph-name="Hbar" unicode="&#x126;" 
d="M265 735v-95h-190v-61h190v-580h68v348h358v-348h68v580h189v61h-189v95h-68v-96h-358v96h-68zM333 406v173h358v-173h-358z" />
    <glyph glyph-name="hbar" unicode="&#x127;" 
d="M327 -1h61v276q0 82 45 130q44 47 115 47q76 0 103 -41q24 -35 24 -127v-285h61v286q0 61 -3 85q-5 39 -19 62q-21 35 -63 55q-41 19 -91 19q-55 0 -99 -23q-44 -24 -73 -72v184h252v54h-252v87h-61v-87h-135v-54h135v-596z" />
    <glyph glyph-name="dotlessi" unicode="&#x131;" 
d="M481 -1h62v532h-62v-532z" />
    <glyph glyph-name="IJ" unicode="&#x132;" 
d="M189 735v-736h69v736h-69zM441 166v-53q0 -95 48 -145q48 -49 142 -49q97 0 149 52q54 52 54 148v616h-69v-601q0 -82 -30 -117q-30 -37 -103 -37q-63 0 -93 35q-30 34 -30 104v47h-68z" />
    <glyph glyph-name="ij" unicode="&#x133;" 
d="M293 -1h61v532h-61v-532zM293 643h61v93h-61v-93zM591 -141l19 -2l18 -2q56 0 82 29q25 28 25 86v561h-62v-554q0 -36 -13 -51q-13 -16 -46 -16l-23 3v-54zM673 643h62v93h-62v-93z" />
    <glyph glyph-name="kgreenlandic" unicode="&#x138;" 
d="M335 -1h62v200l96 96l193 -296h71l-221 337l196 195h-78l-257 -259v259h-62v-532z" />
    <glyph glyph-name="Ldot" unicode="&#x13f;" 
d="M714 495v-112h118v112h-118zM288 -1h464v61h-397v676h-67v-737z" />
    <glyph glyph-name="ldot" unicode="&#x140;" 
d="M640 495h94v-91h-94v91zM322 -1h61v737h-61v-737z" />
    <glyph glyph-name="Lslash" unicode="&#x141;" 
d="M368 735v-214l-260 -96l19 -52l241 89v-463h464v61h-397v426l240 89l-21 52l-219 -81v189h-67z" />
    <glyph glyph-name="lslash" unicode="&#x142;" 
d="M480 474v-475h62v498l246 89l-18 52l-228 -83v181h-62v-204l-228 -83l19 -51z" />
    <glyph glyph-name="napostrophe" unicode="&#x149;" 
d="M381 -1h62v313q0 83 44 131q44 47 118 47q77 0 106 -39q25 -34 25 -120v-332h62v339q0 51 -3 75q-5 34 -18 56q-22 36 -64 56q-42 19 -96 19q-59 0 -103 -24q-44 -25 -73 -74v85h-60v-532zM195 478h67l88 209h-68z" />
    <glyph glyph-name="Eng" unicode="&#x14a;" 
d="M318 735v-736h69v487q45 42 87 58q35 13 87 13q60 0 109 -66q53 -70 53 -163q0 -150 -63 -215q-55 -57 -182 -69l32 -59q152 21 218 108q63 80 63 236q0 116 -63 199q-68 89 -171 89q-49 0 -95 -16q-41 -14 -75 -40v174h-69z" />
    <glyph glyph-name="eng" unicode="&#x14b;" 
d="M311 535v-536h67v381q23 48 73 77q46 26 96 26q48 0 81 -32q35 -32 35 -83v-342q0 -51 -31 -79q-25 -23 -58 -23q-36 0 -56 9q-29 12 -35 42h-76q8 -53 60 -84q45 -27 106 -27q60 0 106 38q52 42 52 110v358q0 76 -48 124q-49 49 -133 49q-57 0 -109 -28q-39 -22 -63 -52
v72h-67z" />
    <glyph glyph-name="OE" unicode="&#x152;" 
d="M131 367q0 153 59 242q59 87 155 87q97 0 155 -86q60 -89 60 -243q0 -153 -60 -242q-58 -87 -155 -87t-155 87q-59 89 -59 242zM345 755q-128 0 -204 -103q-77 -105 -77 -285q0 -179 77 -284q76 -104 204 -104q24 0 51 6q30 5 49 14h515v60h-430q45 50 70 128
q25 77 25 160h286v60h-287q-6 90 -29 157q-24 66 -65 111h430v61h-512q-21 8 -47 13q-30 6 -56 6z" />
    <glyph glyph-name="oe" unicode="&#x153;" 
d="M344 543q-105 0 -164 -81q-55 -75 -55 -198t53 -198q58 -81 166 -81q56 0 103 29q43 27 74 76q29 -55 75 -81q41 -24 99 -24q77 0 133 46q49 39 64 97h-69q-15 -42 -49 -64q-32 -20 -75 -20q-59 0 -96 47q-43 55 -42 159h326q0 152 -49 223q-47 70 -144 70
q-64 0 -110 -28q-45 -28 -63 -76q-28 49 -71 75q-46 29 -106 29zM818 310h-257q8 97 47 139q32 34 87 34q54 0 81 -34q33 -40 42 -139zM342 483q70 0 112 -69q38 -61 38 -150q0 -88 -38 -150q-42 -70 -112 -70q-71 0 -112 70q-37 61 -37 150t37 150q41 69 112 69z" />
    <glyph glyph-name="Tbar" unicode="&#x166;" 
d="M192 735v-60h286v-244h-222v-60h222v-372h68v372h222v60h-222v244h286v60h-640z" />
    <glyph glyph-name="tbar" unicode="&#x167;" 
d="M529 684h-61v-104h-161v-50h161v-73h-118v-51h118v-313q0 -57 16 -80q18 -27 68 -27q17 0 36 3q18 3 39 9v48l-12 -2q-17 -4 -25 -5q-13 -3 -22 -3q-24 0 -33 15q-6 11 -6 42v313h120v51h-120v73h175v50h-175v104z" />
    <glyph glyph-name="caron" unicode="&#x2c7;" 
d="M445 821h-81l102 -143h95l101 143h-82l-67 -95z" />
    <glyph glyph-name="uni02D0" unicode="&#x2d0;" 
d="M602 551h-176l87 -154h7zM519 249h-8l-88 -155h182z" />
    <glyph glyph-name="breve" unicode="&#x2d8;" 
d="M620 818h-1q-10 -36 -25 -53q-26 -29 -79 -29q-39 0 -69 23q-28 22 -41 59h-50q5 -52 27 -83q38 -57 126 -57q69 0 109 33q44 35 53 107h-50z" />
    <glyph glyph-name="dotaccent" unicode="&#x2d9;" 
d="M510 677q31 0 49 21q17 18 17 44q0 27 -17 45q-18 20 -49 20t-49 -20q-16 -18 -16 -45q0 -26 16 -44q18 -21 49 -21z" />
    <glyph glyph-name="ring" unicode="&#x2da;" 
d="M526 626q43 0 69 28q24 25 24 60q0 38 -24 63q-26 28 -69 28q-44 0 -69 -28q-23 -25 -23 -63q0 -35 23 -60q25 -28 69 -28zM526 779q28 0 44 -20q15 -18 15 -45q0 -26 -15 -44q-16 -21 -44 -21q-29 0 -45 21q-14 18 -14 44q0 27 14 45q16 20 45 20z" />
    <glyph glyph-name="ogonek" unicode="&#x2db;" 
d="M598 -29q-21 -8 -34 -11q-15 -4 -33 -4q-26 0 -45 10q-29 17 -29 55q0 47 21 75q24 31 98 70v4h-70q-74 -23 -106 -74q-22 -35 -21 -80q0 -51 34 -79q35 -29 104 -29q28 0 60 9q20 6 39 13z" />
    <glyph glyph-name="hungarumlaut" unicode="&#x2dd;" 
d="M507 821h-112l-91 -143h68zM691 821h-112l-91 -143h68z" />
    <glyph glyph-name="Alpha" unicode="&#x391;" 
d="M160 -1h78l111 196h338l40 -196h72l-160 736h-51zM596 628l79 -377h-294z" />
    <glyph glyph-name="Beta" unicode="&#x392;" 
d="M172 -1h256q158 0 230 52q61 42 90 147q18 73 -16 124q-33 48 -101 60q72 7 130 55q55 47 71 110q20 84 -18 133q-44 56 -155 56h-250zM646 675q76 0 105 -32t13 -96q-18 -70 -94 -105q-65 -31 -159 -31h-135l86 264h184zM264 60l93 291h158q96 0 138 -36q44 -38 25 -114
q-21 -80 -78 -112q-51 -29 -156 -29h-180z" />
    <glyph glyph-name="Gamma" unicode="&#x393;" 
d="M392 736l-238 -737h73l218 676h419l19 61h-491z" />
    <glyph glyph-name="uni0394" unicode="&#x394;" 
d="M158 -1h633l59 736h-68l-624 -676v-60zM728 59h-487l533 579z" />
    <glyph glyph-name="Epsilon" unicode="&#x395;" 
d="M392 736l-238 -737h500l20 60h-428l94 292h308l18 60h-307l86 264h419l19 61h-491z" />
    <glyph glyph-name="Zeta" unicode="&#x396;" 
d="M157 -1h547v61h-467l624 617v59h-504v-61h420l-620 -613v-63z" />
    <glyph glyph-name="Eta" unicode="&#x397;" 
d="M127 -1h68l114 357h398l-115 -357h68l237 737h-68l-103 -320h-397l103 320h-68z" />
    <glyph glyph-name="Theta" unicode="&#x398;" 
d="M624 755q-157 0 -284 -121q-114 -109 -157 -268q-45 -157 7 -266q58 -121 215 -121t284 121q114 109 158 266q44 159 -8 268q-58 121 -215 121zM624 696q125 0 165 -103q35 -92 -8 -227q-45 -133 -142 -225q-108 -103 -234 -103q-125 0 -165 103q-35 92 9 225
q44 135 141 227q108 103 234 103zM320 403v-60h384v60h-384z" />
    <glyph glyph-name="Iota" unicode="&#x399;" 
d="M359 -1h68l237 737h-68z" />
    <glyph glyph-name="Kappa" unicode="&#x39a;" 
d="M364 735l-237 -736h68l99 310l139 90l191 -400h73l-207 436l462 300h-95l-537 -348l111 348h-67z" />
    <glyph glyph-name="Lambda" unicode="&#x39b;" 
d="M160 -1h78l358 629l131 -629h72l-160 736h-51z" />
    <glyph glyph-name="Mu" unicode="&#x39c;" 
d="M75 -1h66l205 634l18 -634h58l429 634l-204 -634h66l237 737h-98l-429 -632l-18 632h-93z" />
    <glyph glyph-name="Nu" unicode="&#x39d;" 
d="M132 -1h67l203 633l185 -633h68l237 737h-68l-202 -633l-185 633h-68z" />
    <glyph glyph-name="Xi" unicode="&#x39e;" 
d="M369 735l-20 -60h514l20 60h-514zM359 411l-19 -60h308l18 60h-307zM160 59l-20 -60h514l20 60h-514z" />
    <glyph glyph-name="Omicron" unicode="&#x39f;" 
d="M624 696q125 0 165 -103q35 -92 -8 -227q-45 -133 -142 -225q-108 -103 -234 -103q-125 0 -165 103q-35 92 9 225q44 135 141 227q108 103 234 103zM624 755q-157 0 -284 -121q-114 -109 -157 -268q-45 -157 7 -266q58 -121 215 -121t284 121q114 109 158 266
q44 159 -8 268q-58 121 -215 121z" />
    <glyph glyph-name="Pi" unicode="&#x3a0;" 
d="M114 -1h68l217 676h420l-217 -676h67l237 736h-554z" />
    <glyph glyph-name="Rho" unicode="&#x3a1;" 
d="M127 -1h68l102 319h202q135 0 212 52q72 49 108 157q32 102 -22 156q-52 52 -176 52h-257zM316 378l95 296h208q90 0 123 -34q33 -35 10 -111q-30 -92 -90 -124q-51 -27 -162 -27h-184z" />
    <glyph glyph-name="Sigma" unicode="&#x3a3;" 
d="M392 736l-20 -61l225 -287l-423 -329l-20 -60h500l20 60h-401l375 292l18 60l-207 264h405l19 61h-491z" />
    <glyph glyph-name="Tau" unicode="&#x3a4;" 
d="M269 -1h67l218 675h259l21 61h-604l-19 -61h275z" />
    <glyph glyph-name="Upsilon" unicode="&#x3a5;" 
d="M369 -1l106 329q21 64 63 132q44 72 99 129q45 48 78 68q30 18 56 18q21 0 32 -23q12 -24 12 -73h63q0 75 -30 117q-28 39 -74 39q-44 0 -109 -48q-71 -53 -142 -149q8 81 -34 136q-45 61 -132 61q-60 0 -115 -29q-52 -27 -81 -71l43 -41q29 44 74 65q37 16 79 16
q65 0 95 -60q29 -58 6 -130l-156 -486h67z" />
    <glyph glyph-name="Phi" unicode="&#x3a6;" 
d="M648 735h-69l-37 -113q-155 -7 -270 -84q-109 -71 -141 -172q-33 -100 30 -170q67 -75 217 -83l-36 -114h68l36 113q148 9 257 84q102 71 135 171q32 101 -24 171q-61 77 -204 84zM523 562l-125 -390q-115 7 -171 65q-53 55 -28 130q23 76 112 131q93 58 212 64zM591 562
q109 -6 158 -63q46 -53 22 -131q-26 -76 -106 -131q-87 -58 -199 -65z" />
    <glyph glyph-name="Chi" unicode="&#x3a7;" 
d="M131 -1h81l297 320l138 -320h71l-162 372l337 364h-80l-281 -304l-132 304h-71l154 -357z" />
    <glyph glyph-name="Psi" unicode="&#x3a8;" 
d="M688 405q0 -67 -66 -109q-67 -43 -183 -48l156 487h-68l-156 -486q-80 8 -125 32q-46 25 -46 60q0 41 22 84q14 26 52 75q28 38 41 58q21 33 31 63q13 44 -16 81q-26 33 -58 33q-37 0 -68 -9q-35 -11 -72 -39l25 -54q26 25 54 35q22 8 44 7q18 0 24 -16q7 -15 0 -36
q-11 -31 -32 -62q-13 -18 -42 -50q-38 -42 -52 -66q-22 -40 -22 -87q0 -77 58 -121q56 -42 161 -53l-59 -185h67l59 182q139 3 230 53q109 59 109 170q0 12 -2 30q-2 11 -5 37q-6 45 -7 66q-2 35 4 51q14 46 35 68q19 19 44 19q26 0 35 -21q8 -18 8 -72h67q0 78 -31 118
q-28 35 -76 35t-81 -24q-38 -28 -59 -95q-11 -31 -10 -79q0 -28 5 -80q3 -20 3 -28q2 -15 2 -24z" />
    <glyph glyph-name="uni03A9" unicode="&#x3a9;" 
d="M635 735q-80 0 -153 -32q-67 -30 -119 -84q-51 -52 -79 -116t-28 -127q0 -48 26 -95q34 -59 106 -103l-38 -119h-205l-20 -60h273l70 220q-73 25 -110 67q-35 40 -35 90q0 45 19 94q21 54 58 98q42 49 97 77q62 30 136 30q101 0 147 -42q37 -34 37 -95q0 -124 -50 -191
q-60 -80 -220 -130l-70 -218h290l20 60h-223l35 109q162 65 226 155q56 78 56 205q0 96 -64 151q-65 56 -182 56z" />
    <glyph glyph-name="alpha" unicode="&#x3b1;" 
d="M777 510l-64 22q-21 -50 -37 -86q-21 -46 -39 -82q11 92 -14 135q-26 44 -90 44q-88 0 -174 -93q-88 -93 -123 -227q-31 -113 15 -179q41 -59 123 -59q51 0 90 20q51 25 91 86q-4 -54 29 -82q28 -24 78 -24q30 0 57 17q28 18 67 62l-50 43q-16 -29 -38 -46
q-21 -17 -40 -17q-32 0 -43 24q-15 32 2 113q33 72 69 146q21 43 56 113zM532 483q38 0 43 -74q5 -61 -14 -194q-40 -92 -91 -136q-39 -35 -75 -35q-63 0 -89 45q-28 47 -4 130q29 102 96 181q70 83 134 83z" />
    <glyph glyph-name="beta" unicode="&#x3b2;" 
d="M229 -112h85q3 48 13 120q6 39 13 89h1q26 -41 77 -68q52 -28 107 -27q77 0 140 53q65 56 68 130q2 68 -27 110q-27 38 -81 61q74 16 126 57q66 53 66 131q0 93 -57 147q-53 51 -134 51q-83 0 -148 -66q-56 -58 -101 -169q-36 -90 -68 -226q-19 -79 -49 -237zM501 396
v-68l90 8q24 -14 37 -43q14 -35 10 -86q-4 -56 -44 -91q-37 -32 -90 -37q-52 -5 -94 17q-45 23 -56 68q45 224 112 363q74 154 152 154q57 0 91 -40q31 -37 31 -93q0 -51 -44 -99q-43 -49 -104 -65z" />
    <glyph glyph-name="gamma" unicode="&#x3b3;" 
d="M230 416l60 -45q24 51 57 81q34 31 68 31t58 -48q27 -57 36 -176q-35 -61 -86 -140q-31 -49 -97 -146l-26 -40l82 -45l60 115l113 210q61 98 115 165q56 70 118 124l-69 52l-60 -83l-96 -137q-15 107 -55 161q-36 48 -86 48q-51 0 -100 -30q-53 -34 -92 -97z" />
    <glyph glyph-name="delta" unicode="&#x3b4;" 
d="M504 425h6q55 -3 78 -60q21 -53 6 -123q-15 -72 -59 -118q-50 -52 -118 -48q-65 5 -89 62q-22 52 -5 122q18 70 64 117q52 52 117 48zM744 518l55 54l-86 80q-100 95 -158 111q-62 18 -130 -34q-62 -48 -19 -128q25 -45 105 -125l8 -8q-58 13 -112 -5q-50 -17 -90 -57
q-38 -37 -60 -86t-22 -96q0 -95 58 -147q52 -47 135 -47q109 0 180 71q73 72 73 187q4 67 -43 139q-28 42 -97 116q-58 61 -72 87q-22 41 10 66q22 17 73 -15q34 -20 100 -75z" />
    <glyph glyph-name="epsilon" unicode="&#x3b5;" 
d="M644 371l55 40q-39 66 -74 94q-47 38 -113 38q-56 0 -102 -21q-44 -21 -70 -56t-26 -76q1 -44 32 -84q-64 -39 -88 -96q-23 -53 -6 -106q17 -52 65 -84q52 -35 125 -35q83 0 143 40q62 41 99 124l-53 25q-37 -69 -86 -102q-41 -28 -85 -28t-81 21q-37 20 -53 53
q-18 34 -6 70q14 41 64 75q17 5 58 6q31 0 77 -1v55h-13q-42 0 -62 3q-37 5 -47 20q-36 53 9 97q39 37 91 37q61 0 95 -26q32 -24 52 -83z" />
    <glyph glyph-name="zeta" unicode="&#x3b6;" 
d="M357 225q0 80 35 159q37 84 115 167q85 35 136 63q35 20 94 62l-41 53q-37 -38 -94 -75q-61 -38 -142 -73q-36 8 -52 31q-15 22 -6 47q8 26 36 44q31 20 77 21l-33 53q-61 -12 -99 -46q-35 -31 -43 -72q-7 -39 12 -73q21 -36 66 -53q-58 -71 -93 -154q-37 -90 -37 -166
q0 -47 48 -71q30 -15 106 -29q68 -12 92 -22q42 -18 42 -52q0 -45 -31 -65q-24 -15 -69 -15q-37 0 -74 15q-39 15 -67 43l-35 -57q45 -31 93 -47q43 -14 82 -14q79 0 117 24q52 33 52 118q0 67 -59 97q-35 18 -120 32q-56 9 -76 17q-32 13 -32 38z" />
    <glyph glyph-name="eta" unicode="&#x3b7;" 
d="M282 140l59 -29l4 9q49 89 78 141q52 92 97 162q24 40 57 54q29 12 58 3q26 -9 40 -32q15 -24 9 -52q-17 -98 -53 -202q-42 -122 -106 -239l73 -20q54 118 104 259q55 154 57 205q2 56 -31 95q-31 35 -81 46q-50 10 -98 -9q-52 -20 -83 -69q-5 33 -27 56q-23 23 -55 26
q-35 3 -73 -19q-42 -25 -81 -80l34 -46q41 64 76 82q29 15 50 -1q17 -12 26 -40q7 -25 3 -38q-15 -42 -64 -133q-37 -68 -73 -129z" />
    <glyph glyph-name="theta" unicode="&#x3b8;" 
d="M620 684h3q32 0 49 -15q18 -14 23 -45q7 -36 2 -94q-4 -53 -18 -117h-315q51 140 121 209q63 62 135 62zM399 44q-35 0 -62 19q-30 21 -34 56q-6 37 4 99q10 65 33 135h321q-44 -152 -114 -232q-67 -77 -148 -77zM624 744q-91 0 -170 -68q-67 -59 -121 -162
q-46 -87 -73 -188q-24 -89 -24 -148q0 -106 51 -155q40 -38 109 -38q79 0 151 57q65 51 116 142q47 84 74 184q26 97 26 183q0 90 -38 142q-37 51 -98 51h-3z" />
    <glyph glyph-name="iota" unicode="&#x3b9;" 
d="M613 529l-67 14q-63 -99 -101 -194q-52 -129 -64 -261q-5 -44 15 -72q20 -26 57 -30q37 -5 82 13q48 19 94 59l-39 57q-64 -68 -107 -72q-42 -5 -35 50q13 118 64 240q34 84 101 196z" />
    <glyph glyph-name="kappa" unicode="&#x3ba;" 
d="M441 543l-175 -544h69l83 263h64q34 0 37 -34q3 -24 -10 -118v-1q-7 -44 11 -72q16 -25 49 -34q31 -7 69 1q37 8 70 28l-20 54q-62 -35 -90 -27q-34 9 -22 77v4q10 62 6 90q-7 50 -49 62q9 7 25 28q10 13 31 44q39 58 59 80q35 39 60 39h61v60h-67q-40 0 -89 -52
q-28 -30 -77 -102q-26 -38 -37 -51q-17 -22 -26 -22h-38l74 227h-68z" />
    <glyph glyph-name="lambda" unicode="&#x3bb;" 
d="M410 675h97q20 0 27 -64q5 -53 0 -142q-55 -137 -144 -261q-81 -114 -148 -162l58 -47q62 63 122 147q79 109 122 212q11 -111 53 -210q36 -88 95 -163l65 42q-73 80 -103 141q-42 88 -52 225l2 71q5 130 -1 182q-9 89 -46 89h-147v-60z" />
    <glyph glyph-name="uni03BC" unicode="&#x3bc;" 
d="M457 543h-68l-203 -632h67l67 209q59 -50 138 -51q77 -1 133 45q13 -20 41 -31t60 -8q35 4 62 25q32 23 49 64l-44 41q-26 -50 -59 -65t-60 9l127 394h-67l-119 -369q-56 -50 -129 -46q-75 4 -109 63z" />
    <glyph glyph-name="nu" unicode="&#x3bd;" 
d="M712 519q-46 -134 -124 -247q-96 -139 -213 -200q24 78 40 237q14 149 9 234h-67q9 -93 -9 -253q-20 -170 -58 -280l45 -25q157 68 267 204q90 113 169 300z" />
    <glyph glyph-name="xi" unicode="&#x3be;" 
d="M639 731l-23 53q-77 2 -129 -20q-46 -19 -64 -51q-18 -29 -6 -58q11 -29 47 -44q-38 -9 -67 -37q-28 -26 -38 -61q-11 -36 2 -69q13 -37 53 -62q-74 -32 -106 -86q-25 -42 -25 -96q0 -68 55 -103q33 -21 112 -39q48 -12 65 -20q28 -12 28 -34q0 -34 -42 -44
q-49 -11 -117 34l-26 -54q95 -49 170 -27q76 21 76 98q0 49 -42 73q-25 14 -91 28q-63 12 -86 25q-39 21 -39 64q0 44 21 77q22 34 62 51q39 16 108 17q49 0 164 -9l-1 62l-85 3l-118 3q-61 31 -76 69q-14 38 21 65q33 30 111 40q81 11 189 -3v61l-26 1q-71 0 -108 -1
q-63 -1 -89 -5q-39 18 -43 39q-4 20 20 38q24 17 62 23q41 8 81 -1z" />
    <glyph glyph-name="omicron" unicode="&#x3bf;" 
d="M565 543q-115 0 -209 -87q-84 -78 -119 -192q-37 -112 2 -192q43 -87 160 -87q114 0 208 87q84 78 121 191q35 111 -4 192q-44 88 -159 88zM565 489q84 0 106 -70q19 -61 -11 -156q-32 -101 -102 -162q-71 -62 -159 -62q-85 0 -107 70q-19 61 12 155q28 91 99 156
q75 69 162 69z" />
    <glyph glyph-name="pi" unicode="&#x3c0;" 
d="M275 543l-19 -60h155l-161 -498h68l161 498h149l-126 -396q-13 -40 10 -71q22 -31 65 -31q54 0 98 23q51 26 97 85l-51 50q-22 -46 -58 -74q-32 -25 -58 -25q-24 0 -34 12q-9 11 -4 27q12 35 44 135q41 127 84 265h138l26 60h-584z" />
    <glyph glyph-name="rho" unicode="&#x3c1;" 
d="M603 543q-78 0 -138 -35q-46 -27 -87 -80q-69 -86 -121 -243q-47 -138 -63 -273h94l-1 22q-2 49 2 87q6 67 28 157q21 -85 83 -125q49 -32 114 -32q128 0 212 84q86 84 86 214q0 116 -66 175q-55 49 -139 49h-4zM595 483h3q62 0 103 -39q43 -41 43 -108q0 -112 -63 -183
q-65 -73 -171 -73q-64 0 -102 44q-38 43 -38 114q0 86 71 165q73 80 154 80z" />
    <glyph glyph-name="sigma" unicode="&#x3c3;" 
d="M188 177q0 -88 60 -141q57 -51 145 -51q136 0 235 85q104 87 104 215q0 94 -52 138q-55 48 -176 48q83 44 173 66q80 20 155 20v75q-160 -24 -306 -90q-108 -49 -212 -123q-56 -39 -90 -103q-36 -66 -36 -139zM496 418h3q84 0 125 -31q40 -30 40 -91q0 -95 -70 -166
q-74 -77 -184 -77q-78 0 -115 29q-39 31 -39 100q0 80 60 152q71 84 180 84z" />
    <glyph glyph-name="tau" unicode="&#x3c4;" 
d="M298 543l-19 -60h219l-18 -53q-51 -156 -65 -210q-22 -80 -22 -125q0 -53 29 -82q28 -28 71 -28q44 0 84 24q46 27 78 84l-57 43q-22 -44 -50 -66q-23 -17 -49 -18q-19 0 -28 12t-9 33q0 30 22 118q29 117 83 268h199l20 60h-488z" />
    <glyph glyph-name="upsilon" unicode="&#x3c5;" 
d="M645 527q44 -187 -6 -302q-44 -102 -165 -153q-82 -33 -113 -21q-50 20 28 155q24 41 42 103q19 60 19 94q0 28 -12 67q-10 37 -27 73h-77q19 -28 33 -70q14 -41 14 -68q0 -34 -12 -82q-13 -52 -30 -83q-107 -187 -42 -239q58 -46 231 28q131 57 178 181q45 119 16 306z
" />
    <glyph glyph-name="phi" unicode="&#x3c6;" 
d="M346 -76l76 -24l31 95l37 112q129 11 212 79q91 75 92 195q0 67 -36 112q-40 50 -108 50q-37 0 -62 -14q-34 -20 -50 -70q-29 -88 -49 -150q-25 -74 -48 -137q-74 6 -108 44q-30 33 -30 90q0 54 45 104q50 57 123 61l-20 52q-91 -10 -155 -80q-61 -66 -61 -144
q0 -93 61 -141q45 -35 124 -45l-18 -45q-18 -47 -28 -72q-15 -40 -28 -72zM725 380q0 -75 -58 -136q-62 -63 -156 -73q26 75 50 145q17 51 39 116q10 32 25 43q12 7 35 7q20 0 41 -31q24 -33 24 -71z" />
    <glyph glyph-name="chi" unicode="&#x3c7;" 
d="M781 543h-83l-159 -229l-21 166q-9 42 -75 55q-43 8 -154 8v-59q94 0 123 -6q37 -7 42 -33l26 -194l-265 -363h83l198 280l26 -194q10 -58 65 -75q36 -11 154 -11v60h-17q-75 0 -98 6q-34 8 -37 37l-35 245z" />
    <glyph glyph-name="psi" unicode="&#x3c8;" 
d="M652 751h-67l-183 -568q-67 9 -101 39q-30 27 -30 66q0 43 32 103q32 63 83 112l-67 41q-49 -61 -79 -122q-38 -76 -38 -134q0 -57 34 -98q45 -54 145 -74l-67 -208h67l64 198q93 -3 170 20q72 21 123 62q49 41 71 95q21 54 13 114q-4 33 -30 78q-27 48 -62 78l-60 -36
q27 -20 51 -63q24 -41 28 -75q13 -80 -61 -140q-81 -66 -221 -64z" />
    <glyph glyph-name="omega" unicode="&#x3c9;" 
d="M411 542q-112 -98 -165 -193q-51 -92 -51 -186q0 -85 42 -131q42 -47 120 -47q39 0 63 12q17 8 44 32q18 -21 59 -33q36 -11 79 -11q110 0 170 100q48 80 48 181q0 90 -21 151t-74 126l-61 -35q50 -49 72 -128q15 -55 16 -115q0 -85 -41 -150q-46 -71 -116 -71
q-23 0 -50 11q-31 11 -47 29l118 364h-67l-116 -359q-17 -25 -39 -36q-18 -9 -46 -9q-31 0 -55 26q-30 32 -30 85q0 100 63 200q53 85 139 150z" />
    <glyph glyph-name="uni0401" unicode="&#x401;" 
d="M640 879q-24 0 -38 -14q-13 -14 -13 -33t13 -33q14 -15 38 -15q23 0 37 15q13 14 13 33t-13 33q-14 14 -37 14zM389 879q-24 0 -38 -14q-12 -14 -12 -33t12 -33q14 -15 38 -15q23 0 37 15q13 14 13 33t-13 33q-14 14 -37 14zM290 -1v714h469v-61h-401v-255h346v-61h-346
v-276h409v-61h-477z" />
    <glyph glyph-name="uni0410" unicode="&#x410;" 
d="M373 285l142 379l143 -379h-285zM195 -1h71l84 225h332l83 -225h70l-279 737h-81z" />
    <glyph glyph-name="uni0411" unicode="&#x411;" 
d="M322 -1h254q123 0 186 55q63 54 63 154q0 91 -63 145q-66 58 -186 58h-187v265h399v60h-466v-737zM389 59v292h187q89 0 136 -37q46 -36 46 -106q0 -78 -46 -114q-45 -35 -136 -35h-187z" />
    <glyph glyph-name="uni0412" unicode="&#x412;" 
d="M298 -1h183q88 0 131 3q55 4 81 13q54 22 85 71q31 48 31 112q0 75 -39 125q-38 51 -104 65q51 21 80 63t29 96q0 51 -24 93q-24 43 -65 66q-30 18 -72 25q-36 5 -93 5h-223v-737zM509 675q104 0 148 -26q49 -29 49 -106q0 -76 -51 -106q-44 -26 -152 -26h-138v264h144z
M365 60v291h184q94 0 142 -37q48 -38 48 -113q0 -80 -48 -112q-43 -29 -147 -29h-179z" />
    <glyph glyph-name="uni0413" unicode="&#x413;" 
d="M320 736v-737h68v677h447v60h-515z" />
    <glyph glyph-name="uni0414" unicode="&#x414;" 
d="M363 735v-42q0 -207 -36 -350q-52 -204 -184 -344l-7 -144h43q6 67 24 100q25 44 79 44h412q49 0 84 -34q35 -36 58 -110h36l-12 144q-41 0 -69 22q-28 21 -28 51v663h-400zM431 675h264v-616h-428q90 130 131 309q33 142 33 307z" />
    <glyph glyph-name="uni0415" unicode="&#x415;" 
d="M290 -1h477v61h-409v287h346v61h-346v266h401v61h-469v-736z" />
    <glyph glyph-name="uni0416" unicode="&#x416;" 
d="M71 735v-60h63q92 0 146 -96q49 -87 49 -213q0 -124 -49 -210q-54 -97 -146 -97h-63v-60h63q121 0 193 111q62 94 69 227h82v-338h68v338h79q8 -136 69 -229q71 -109 193 -109h61v60h-61q-92 0 -146 97q-48 86 -48 210q0 126 48 213q54 96 146 96h61v60h-61
q-122 0 -193 -109q-61 -92 -69 -229h-79v338h-68v-338h-82q-7 134 -69 228q-72 110 -193 110h-63z" />
    <glyph glyph-name="uni0417" unicode="&#x417;" 
d="M259 214v-1q0 -113 64 -173q65 -61 190 -61q122 0 188 60q65 58 65 164q0 77 -31 125t-90 65q49 25 73 66q26 41 26 101q0 93 -58 143q-58 52 -168 52q-114 0 -174 -57t-63 -166h64q1 85 43 127t129 42q79 0 121 -37q41 -37 41 -104q0 -76 -49 -113q-50 -38 -164 -32
l-25 -1v-52l31 1q122 2 174 -30q51 -43 51 -128t-46 -128q-47 -44 -142 -44q-91 0 -136 47q-44 45 -44 134h-70z" />
    <glyph glyph-name="uni0418" unicode="&#x418;" 
d="M700 735v-48l-376 -540v588h-68v-736h68v50l376 540v-590h68v736h-68z" />
    <glyph glyph-name="uni0419" unicode="&#x419;" 
d="M700 735v-48l-376 -540v588h-68v-736h68v50l376 540v-590h68v736h-68zM604 863v-14q0 -32 -30 -53q-27 -19 -61 -19q-32 0 -58 19q-27 20 -27 50v17h-51q0 -63 37 -97q36 -31 98 -31t100 31q43 35 43 97h-51z" />
    <glyph glyph-name="uni041A" unicode="&#x41a;" 
d="M222 735v-736h68v308l114 92l315 -400h85l-349 445l357 291h-96l-426 -348v348h-68z" />
    <glyph glyph-name="uni041B" unicode="&#x41b;" 
d="M390 735v-313q0 -168 -56 -249q-60 -89 -208 -115l33 -60q149 39 221 137q75 100 75 271v265h249v-672h70v672h96v64h-480z" />
    <glyph glyph-name="uni041C" unicode="&#x41c;" 
d="M144 -1h66v633l272 -633h58l274 633v-633h66v736h-95l-273 -631l-272 631h-96v-736z" />
    <glyph glyph-name="uni041D" unicode="&#x41d;" 
d="M246 -1h67v357h420v-357h67v736h-67v-319h-420v319h-67v-736z" />
    <glyph glyph-name="uni041E" unicode="&#x41e;" 
d="M183 367q0 -179 90 -284q89 -104 242 -104t243 104t90 284q0 181 -90 285q-90 103 -243 103t-242 -103q-90 -105 -90 -285zM250 367q0 153 72 242q72 87 193 87q123 0 194 -86q73 -88 73 -243q0 -154 -73 -242q-71 -87 -194 -87q-122 0 -193 87q-72 89 -72 242z" />
    <glyph glyph-name="uni041F" unicode="&#x41f;" 
d="M246 -1h67v676h420v-676h67v736h-554v-736z" />
    <glyph glyph-name="uni0420" unicode="&#x420;" 
d="M284 -1h68v319h157q138 0 206 52t68 157q0 104 -61 156t-181 52h-257v-736zM352 378v296h186q90 0 132 -35q43 -35 43 -110q0 -81 -50 -117q-48 -34 -154 -34h-157z" />
    <glyph glyph-name="uni0421" unicode="&#x421;" 
d="M777 240q-7 -95 -68 -147q-61 -54 -168 -54q-129 0 -200 86q-70 87 -70 245q0 157 69 241t199 84q98 0 156 -47q52 -43 76 -127l64 23q-23 90 -91 146q-80 65 -205 65q-159 0 -248 -101q-90 -102 -90 -285q0 -184 89 -287q88 -103 248 -103q138 0 218 70q79 68 88 191
h-67z" />
    <glyph glyph-name="uni0422" unicode="&#x422;" 
d="M478 -1h67v675h280v61h-623v-61h276v-675z" />
    <glyph glyph-name="uni0423" unicode="&#x423;" 
d="M505 121l333 614h-68l-245 -455l-226 455h-69l258 -524l-35 -68q-31 -58 -63 -84q-36 -29 -90 -29q-14 0 -26 2q-8 0 -23 2l-28 3l13 -57q14 -2 24 -3q16 -2 40 -2q73 0 124 41q41 33 81 105z" />
    <glyph glyph-name="uni0424" unicode="&#x424;" 
d="M546 735h-68v-113q-150 -7 -238 -83q-81 -71 -81 -172q0 -100 82 -170q88 -76 237 -84v-87h68v86q148 9 237 84q83 71 83 171q0 101 -84 172q-88 76 -236 83v113zM478 562v-390q-114 7 -184 65q-67 54 -67 130q0 77 67 131q70 58 184 64zM546 562q113 -6 184 -64
q68 -55 68 -131q0 -75 -68 -130q-71 -58 -184 -65v390z" />
    <glyph glyph-name="uni0425" unicode="&#x425;" 
d="M186 -1h80l246 319l240 -319h81l-283 377l272 359h-79l-231 -301l-213 301h-80l255 -357z" />
    <glyph glyph-name="uni0426" unicode="&#x426;" 
d="M252 735v-736h451q44 0 84 -44q33 -37 59 -100h35l-11 144q-41 0 -70 22q-28 21 -28 51v663h-68v-676h-384v676h-68z" />
    <glyph glyph-name="uni0427" unicode="&#x427;" 
d="M744 735h-61v-289q0 -75 -55 -120q-53 -45 -137 -45q-81 0 -120 41q-39 39 -39 118v295h-61v-295q0 -97 51 -153q56 -60 165 -60q70 0 121 26q48 23 75 65v-319h61v736z" />
    <glyph glyph-name="uni0428" unicode="&#x428;" 
d="M128 735v-736h768v736h-68v-676h-282v676h-68v-676h-282v676h-68z" />
    <glyph glyph-name="uni0429" unicode="&#x429;" 
d="M128 735v-736h699q45 0 84 -44q33 -37 58 -100h36l-12 144q-40 0 -69 22q-28 22 -28 51v663h-68v-676h-282v676h-68v-676h-282v676h-68z" />
    <glyph glyph-name="uni042A" unicode="&#x42a;" 
d="M380 -1h196q146 0 220 68q65 60 65 161t-65 161q-74 68 -220 68h-128v278h-256v-60h188v-676zM448 403h118q121 0 180 -51q52 -44 52 -123t-52 -123q-58 -52 -180 -52h-118v349z" />
    <glyph glyph-name="uni042B" unicode="&#x42b;" 
d="M159 -1h196q146 0 220 68q65 60 65 160q0 101 -65 161q-74 68 -220 68h-128v279h-68v-736zM227 402h118q121 0 180 -51q52 -44 52 -123q0 -78 -52 -123q-59 -51 -180 -51h-118v348zM798 735h68v-736h-68v736z" />
    <glyph glyph-name="uni042C" unicode="&#x42c;" 
d="M388 402h118q121 0 180 -51q52 -44 52 -123q0 -78 -52 -123q-59 -51 -180 -51h-118v348zM320 -1h196q146 0 220 68q65 60 65 160q0 101 -65 161q-74 68 -220 68h-128v279h-68v-736z" />
    <glyph glyph-name="uni042D" unicode="&#x42d;" 
d="M189 544l64 -23q22 81 83 127q65 47 162 47q116 0 183 -80q65 -77 70 -210h-431v-59h432q-4 -142 -71 -224q-68 -83 -186 -83q-107 0 -174 54q-68 54 -74 147h-67q8 -121 94 -191t224 -70q150 0 237 103q88 104 88 287q0 182 -89 285q-87 101 -236 101q-125 0 -211 -65
q-76 -58 -98 -146z" />
    <glyph glyph-name="uni042E" unicode="&#x42e;" 
d="M642 691q92 0 145 -98q49 -90 49 -227q0 -135 -49 -225q-53 -98 -145 -98q-93 0 -146 98q-48 90 -48 225q0 137 48 227q53 98 146 98zM128 735v-736h68v340h184q6 -145 68 -242q71 -114 194 -114q124 0 197 117q66 106 66 266q0 162 -66 268q-73 117 -197 117
q-122 0 -194 -113q-62 -96 -68 -239h-184v336h-68z" />
    <glyph glyph-name="uni042F" unicode="&#x42f;" 
d="M763 -1v736h-246q-113 0 -180 -50q-69 -53 -69 -147t52 -148q48 -49 135 -59l-272 -332h73l271 329h168v-329h68zM695 388h-193q-81 0 -121 35q-43 36 -43 115q0 65 43 101q43 35 121 35h193v-286z" />
    <glyph glyph-name="uni0430" unicode="&#x430;" 
d="M645 75v-8q0 -36 19 -55t57 -19q8 0 17 1q13 2 27 4v46h-23q-26 0 -33 12q-5 8 -5 36v290q0 80 -50 121q-49 40 -145 40q-97 0 -153 -47q-56 -46 -57 -125h60q3 59 41 89q38 29 109 29q72 0 103 -28q30 -26 30 -88q0 -37 -27 -52q-20 -12 -66 -16l-28 -2q-58 -4 -86 -9
q-45 -7 -77 -23q-43 -18 -64 -52q-22 -34 -22 -81q0 -69 47 -111q48 -42 129 -42q56 0 105 23q50 23 92 67zM642 278v-75q0 -75 -52 -120q-51 -44 -134 -44q-56 0 -89 28q-32 27 -32 73q0 43 30 71q32 31 92 38l62 8q47 4 67 8q34 5 56 13z" />
    <glyph glyph-name="uni0431" unicode="&#x431;" 
d="M717 743q-29 -54 -92 -87q-47 -25 -121 -42q-47 -9 -88 -35q-43 -27 -71 -68q-30 -39 -44 -94q-14 -52 -14 -117q0 -153 61 -233q59 -79 170 -79q104 0 168 71q64 69 64 180q0 114 -70 185q-66 67 -160 67q-54 0 -102 -27q-39 -22 -62 -56q24 82 90 124q42 26 120 42
q59 12 103 40q53 34 98 96zM518 431q77 0 122 -58q42 -54 42 -134q0 -79 -42 -132q-45 -59 -122 -59q-78 0 -122 59q-41 53 -41 132q0 80 41 134q45 58 122 58z" />
    <glyph glyph-name="uni0432" unicode="&#x432;" 
d="M289 -1h258q96 0 151 49q50 43 50 106q0 51 -39 88q-39 38 -104 46q51 8 80 38t29 73q0 56 -49 94t-118 38h-258v-532zM547 470q44 0 69 -17q29 -20 29 -58q0 -39 -29 -61q-26 -20 -69 -20h-190v156h190zM357 60v194h190q58 0 94 -26q37 -26 37 -72q0 -48 -36 -72
q-34 -24 -95 -24h-190z" />
    <glyph glyph-name="uni0433" unicode="&#x433;" 
d="M316 531v-532h68v472h320v60h-388z" />
    <glyph glyph-name="uni0434" unicode="&#x434;" 
d="M363 531v-42q0 -140 -37 -257q-45 -145 -141 -233l-7 -135h44q6 66 24 96q25 39 79 39h310q49 0 84 -32q36 -34 58 -103h36l-12 135q-40 0 -69 22q-28 22 -28 51v459h-341zM428 471h213v-412h-333q55 68 90 200q30 114 30 212z" />
    <glyph glyph-name="uni0435" unicode="&#x435;" 
d="M353 303q5 87 51 138q45 49 115 49q69 0 111 -49q44 -50 48 -138h-325zM353 254h389v20q0 128 -60 200q-59 70 -161 70q-108 0 -169 -73q-62 -75 -62 -209q0 -130 61 -204q61 -73 167 -73q88 0 147 49q60 49 70 129h-62q-9 -57 -51 -91q-41 -33 -100 -33q-76 0 -122 57
q-47 58 -47 158z" />
    <glyph glyph-name="uni0436" unicode="&#x436;" 
d="M178 531v-55h48q61 0 99 -63q36 -60 36 -148t-36 -147q-37 -64 -99 -64h-48v-55h48q89 0 143 80q45 68 51 165h60v-245h64v245h58q5 -99 50 -166q53 -79 143 -79h46v55h-46q-62 0 -99 64q-35 59 -35 147t35 148q37 63 99 63h46v55h-46q-90 0 -143 -78q-45 -67 -50 -166
h-58v244h-64v-244h-60q-6 97 -51 164q-54 80 -143 80h-48z" />
    <glyph glyph-name="uni0437" unicode="&#x437;" 
d="M291 160v-2q0 -72 58 -120q62 -52 164 -52q99 0 162 50q59 47 59 113q0 51 -29 86q-30 37 -87 48q49 15 72 45q22 28 22 69q0 68 -52 106q-52 39 -142 39q-92 0 -148 -49q-54 -47 -57 -123h59q2 53 40 86q40 35 105 35q60 0 97 -25q38 -26 38 -69q0 -42 -42 -68
q-43 -28 -116 -28l-26 1v-49l40 1q79 0 119 -24q43 -26 43 -79q0 -45 -43 -78q-45 -35 -118 -35q-68 0 -112 38q-41 35 -41 84h-65z" />
    <glyph glyph-name="uni0438" unicode="&#x438;" 
d="M672 531v-48l-319 -349v397h-63v-532h63v50l319 349v-399h64v532h-64z" />
    <glyph glyph-name="uni0439" unicode="&#x439;" 
d="M672 531v-48l-319 -349v397h-63v-532h63v50l319 349v-399h64v532h-64zM604 751v-15q0 -31 -30 -51q-27 -19 -61 -19q-32 0 -58 18q-27 20 -27 50v17h-51q0 -63 37 -97q36 -31 98 -31t100 31q43 35 43 97h-51z" />
    <glyph glyph-name="uni043A" unicode="&#x43a;" 
d="M320 531v-532h63v159l95 101l194 -260h78l-229 307l211 225h-82l-267 -285v285h-63z" />
    <glyph glyph-name="uni043B" unicode="&#x43b;" 
d="M730 531h-373v-286q0 -101 -43 -144q-40 -40 -131 -43l23 -60q89 3 146 59q64 62 64 172v241h250v-471h64v532z" />
    <glyph glyph-name="uni043C" unicode="&#x43c;" 
d="M248 -1h61v450l174 -450h58l174 450v-450h61v532h-90l-173 -431l-174 431h-91v-532z" />
    <glyph glyph-name="uni043D" unicode="&#x43d;" 
d="M298 -1h62v248h307v-248h63v532h-63v-228h-307v228h-62v-532z" />
    <glyph glyph-name="uni043E" unicode="&#x43e;" 
d="M509 544q-116 0 -184 -87q-60 -79 -60 -193q0 -113 60 -191q68 -87 184 -87q115 0 183 87q61 78 61 191q0 114 -61 193q-68 87 -183 87zM509 490q84 0 135 -70q45 -63 45 -155q0 -91 -45 -154q-50 -71 -135 -71q-86 0 -136 71q-44 63 -44 154q0 92 44 155q50 70 136 70z
" />
    <glyph glyph-name="uni043F" unicode="&#x43f;" 
d="M295 -1h63v476h306v-476h62v532h-431v-532z" />
    <glyph glyph-name="uni0440" unicode="&#x440;" 
d="M294 -139h61v228q31 -51 78 -77q46 -27 105 -27q108 0 172 87q58 79 58 192q0 114 -58 193q-64 87 -172 87q-59 0 -107 -27q-44 -26 -76 -75v89h-61v-670zM528 490q83 0 132 -70q45 -63 45 -155q0 -91 -45 -155q-49 -71 -132 -71q-85 0 -134 71q-44 64 -44 155
q0 92 44 155q49 70 134 70z" />
    <glyph glyph-name="uni0441" unicode="&#x441;" 
d="M681 183q-11 -67 -52 -105q-42 -38 -103 -38q-80 0 -126 59q-48 61 -48 167t47 166q47 58 126 58q58 0 99 -34q39 -33 52 -89l59 17q-10 68 -65 113q-59 47 -145 47q-110 0 -173 -74q-64 -76 -64 -209q0 -128 63 -202q63 -73 170 -73q94 0 153 53q58 53 68 144h-61z" />
    <glyph glyph-name="uni0442" unicode="&#x442;" 
d="M478 -1h67v471h223v61h-512v-61h222v-471z" />
    <glyph glyph-name="uni0443" unicode="&#x443;" 
d="M518 -41l229 572h-66l-163 -413l-163 413h-66l197 -492l-20 -49q-18 -42 -35 -58q-21 -22 -57 -22l-20 3l-23 3v-56q12 -2 22 -3q11 -2 22 -2q53 0 87 26q32 24 56 78z" />
    <glyph glyph-name="uni0444" unicode="&#x444;" 
d="M544 713h-64v-203q-128 23 -208 -54q-75 -71 -75 -192q0 -119 75 -190q80 -75 208 -59v-160h64v159q126 -15 206 60q77 71 77 190q0 120 -77 192q-81 77 -206 54v203zM480 463v-397q-97 -14 -162 45q-63 57 -63 153q0 98 63 156q66 60 162 43zM544 463q95 17 160 -43
q65 -58 65 -156q0 -96 -65 -153q-65 -59 -160 -45v397z" />
    <glyph glyph-name="uni0445" unicode="&#x445;" 
d="M287 -1h73l152 225l148 -225h77l-187 273l173 259h-74l-137 -213l-134 213h-77l173 -260z" />
    <glyph glyph-name="uni0446" unicode="&#x446;" 
d="M291 531v-532h344q49 0 84 -34q36 -36 58 -110h36l-12 144q-40 0 -69 21q-28 21 -28 48v463h-63v-475h-287v475h-63z" />
    <glyph glyph-name="uni0447" unicode="&#x447;" 
d="M705 531h-62v-166q0 -82 -41 -129q-41 -48 -110 -48q-66 0 -90 42q-21 36 -21 126v175h-62v-176q0 -60 2 -84q5 -39 20 -63q20 -33 60 -54q38 -20 79 -20q54 0 96 24q43 25 67 72v-232h62v533z" />
    <glyph glyph-name="uni0448" unicode="&#x448;" 
d="M192 531v-532h640v532h-63v-475h-225v475h-64v-475h-225v475h-63z" />
    <glyph glyph-name="uni0449" unicode="&#x449;" 
d="M192 531v-532h571q45 0 84 -44q33 -37 58 -100h36l-12 144q-40 0 -69 21q-28 21 -28 48v463h-63v-475h-225v475h-64v-475h-225v475h-63z" />
    <glyph glyph-name="uni044A" unicode="&#x44a;" 
d="M385 -1h191q104 0 163 55q55 50 55 129t-55 129q-59 54 -163 54h-128v165h-192v-56h129v-476zM448 316h118q79 0 126 -39q44 -36 44 -93t-44 -94q-46 -40 -126 -40h-118v266z" />
    <glyph glyph-name="uni044B" unicode="&#x44b;" 
d="M225 -1h151q92 0 148 55q52 51 52 129t-52 129q-56 54 -148 54h-88v165h-63v-532zM288 316h78q67 0 110 -39q42 -37 42 -93t-42 -94q-43 -40 -110 -40h-78v266zM736 531h64v-532h-64v532z" />
    <glyph glyph-name="uni044C" unicode="&#x44c;" 
d="M410 316h78q67 0 110 -39q42 -37 42 -93t-42 -94q-43 -40 -110 -40h-78v266zM347 -1h151q92 0 148 55q52 51 52 129t-52 129q-56 54 -148 54h-88v165h-63v-532z" />
    <glyph glyph-name="uni044D" unicode="&#x44d;" 
d="M289 384l59 -17q12 56 51 89q41 34 100 34q74 0 119 -50q42 -48 53 -135h-300v-55h301q-2 -93 -49 -151q-48 -59 -125 -59q-62 0 -103 38q-42 38 -52 105h-61q9 -91 67 -144q59 -53 154 -53q106 0 169 73q64 74 64 202q0 133 -65 209q-63 74 -172 74q-87 0 -146 -47
q-55 -45 -64 -113z" />
    <glyph glyph-name="uni044E" unicode="&#x44e;" 
d="M601 490q76 0 124 -70q44 -65 44 -155t-44 -154q-48 -71 -124 -71q-78 0 -125 71q-43 64 -43 154q0 91 43 155q48 70 125 70zM218 531v-532h64v245h88q5 -100 61 -173q65 -85 170 -85q106 0 171 87q60 80 60 191q0 113 -60 193q-65 87 -171 87q-103 0 -168 -83
q-54 -68 -62 -161h-89v231h-64z" />
    <glyph glyph-name="uni044F" unicode="&#x44f;" 
d="M720 -1v532h-176q-99 0 -159 -38q-62 -40 -62 -114t46 -115q42 -36 117 -44l-247 -221h78l241 218h99v-218h63zM657 273h-127q-68 0 -104 25q-39 27 -39 81q0 45 39 71q38 25 104 25h127v-202z" />
    <glyph glyph-name="uni0451" unicode="&#x451;" 
d="M353 303h325q-4 88 -48 138q-42 49 -111 49q-70 0 -115 -49q-46 -51 -51 -138zM353 254q0 -100 47 -158q46 -57 122 -57q59 0 100 33q42 34 51 91h62q-10 -80 -70 -129q-59 -49 -147 -49q-106 0 -167 73q-61 74 -61 204q0 134 62 209q61 73 169 73q102 0 161 -70
q60 -72 60 -200v-20h-389zM389 718q-24 0 -38 -14q-12 -14 -12 -33t12 -33q14 -15 38 -15q23 0 37 15q13 14 13 33t-13 33q-14 14 -37 14zM640 718q-24 0 -38 -14q-13 -14 -13 -33t13 -33q14 -15 38 -15q23 0 37 15q13 14 13 33t-13 33q-14 14 -37 14z" />
    <glyph glyph-name="uni2015" unicode="&#x2015;" 
d="M20 390v0v-33h983v33h-983z" />
    <glyph glyph-name="quoteleft" unicode="&#x2018;" 
d="M851 554v0h47v237h-47v-237z" />
    <glyph glyph-name="quoteright" unicode="&#x2019;" 
d="M118 554v0h47v237h-47v-237z" />
    <glyph glyph-name="quotedblleft" unicode="&#x201c;" 
d="M854 549v0h49v239h-49v-239zM736 549v0h47v239h-47v-239z" />
    <glyph glyph-name="quotedblright" unicode="&#x201d;" 
d="M236 549v0h49v239h-49v-239zM118 549v0h47v239h-47v-239z" />
    <glyph glyph-name="dagger" unicode="&#x2020;" 
d="M543 832h-62v-250h-237v-53h237v-637h62v638h240v52h-240v250z" />
    <glyph glyph-name="daggerdbl" unicode="&#x2021;" 
d="M542 835h-62v-217h-237v-52h237v-115h-215v-52h215v-499h61v499h212v52h-211v115h235v52h-235v217z" />
    <glyph glyph-name="twodotenleader" unicode="&#x2025;" 
d="M726 329v0h56v108h-56v-108zM256 328v0h56v109h-56v-109z" />
    <glyph glyph-name="ellipsis" unicode="&#x2026;" 
d="M810 329v0h56v108h-56v-108zM476 328v0h56v109h-56v-109zM143 328v0h56v109h-56v-109z" />
    <glyph glyph-name="perthousand" unicode="&#x2030;" 
d="M738 795l-29 20l-642 -860l27 -21zM249 806q51 0 77 -63q23 -53 23 -140q0 -92 -23 -147q-26 -64 -77 -64q-55 0 -80 65q-21 54 -21 149q0 87 21 138q26 62 80 62zM249 371q71 0 113 72q38 63 38 155q0 93 -38 157q-42 70 -113 70q-72 0 -114 -70q-37 -64 -37 -157
q0 -92 37 -155q42 -72 114 -72zM531 354q39 0 57 -63q15 -50 15 -140q0 -88 -15 -138q-18 -64 -57 -64q-44 0 -63 64q-14 49 -14 139t14 140q19 62 63 62zM531 -67q58 0 93 69q31 61 31 150q0 90 -31 152q-35 68 -93 68q-61 0 -97 -68q-32 -62 -32 -152q0 -89 32 -150
q36 -69 97 -69zM826 354q39 0 58 -63q15 -51 15 -140q0 -88 -15 -138q-19 -64 -58 -64q-43 0 -62 64q-15 50 -15 139q0 90 15 140q19 62 62 62zM826 -67q58 0 93 69q31 61 31 150q0 90 -31 152q-35 68 -93 68q-61 0 -97 -68q-32 -62 -32 -152q0 -89 32 -150q36 -69 97 -69z
" />
    <glyph glyph-name="minute" unicode="&#x2032;" 
d="M102 564v0l1 2q49 59 84 100q65 77 95 108v3q-20 11 -35 20q-24 15 -37 25l-74 -133l-59 -108z" />
    <glyph glyph-name="second" unicode="&#x2033;" 
d="M272 540v0q41 56 79 106q62 82 89 114v3q-14 7 -29 16q-20 11 -34 20l-127 -241zM108 560v0q34 59 68 113q53 84 80 117q-10 4 -27 11q-10 5 -29 14l-5 2q-16 -32 -52 -114q-20 -44 -51 -115l-5 -12z" />
    <glyph glyph-name="uni203B" unicode="&#x203b;" 
d="M813 298v0q38 0 65 26t27 62q0 37 -27 63q-27 25 -65 25t-65 -25q-26 -26 -26 -63q0 -36 26 -62q27 -26 65 -26zM512 594v0q37 0 63 26q27 26 27 62q0 37 -27 63q-26 25 -63 25q-38 0 -65 -25q-26 -26 -26 -63q0 -36 26 -62q27 -26 65 -26zM189 -16v0l333 357l318 -345
l30 31l-318 346l308 334l-31 30l-307 -332l-303 329l-30 -31l303 -330l-334 -358zM517 1v0q38 0 65 26q27 25 27 61q0 37 -27 62q-27 26 -65 26q-37 0 -63 -26t-26 -62q0 -35 26 -61t63 -26zM203 298v0q36 0 63 26t27 62q0 37 -27 63q-27 25 -63 25q-37 0 -64 -25
q-26 -26 -26 -63q0 -36 26 -62q27 -26 64 -26z" />
    <glyph glyph-name="uni2074" unicode="&#x2074;" 
d="M399 514v56h-51v265h-62l-195 -267l-1 -54h192v-97h66v97h51zM282 570h-117l117 160v-160z" />
    <glyph glyph-name="uni207F" unicode="&#x207f;" 
d="M415 417v267q0 53 -29 87q-26 31 -68 42q-40 10 -81 -1t-66 -40v38h-67v-393h67v275q17 33 47 52q29 18 59 18q30 -1 49 -20q22 -22 22 -61v-264h67z" />
    <glyph glyph-name="uni2081" unicode="&#x2081;" 
d="M280 -91v410h-54q-6 -46 -32 -71q-24 -24 -59 -24h-11v-58h16q22 0 43 7q19 7 34 17v-281h63z" />
    <glyph glyph-name="uni2082" unicode="&#x2082;" 
d="M391 -90v57h-239q8 22 37 44q18 13 61 38q67 38 93 63q45 42 45 95q0 58 -43 91q-40 31 -104 31q-75 0 -118 -42q-44 -43 -44 -117h65q0 45 27 73q25 25 62 29q36 4 62 -13q28 -18 28 -52q0 -37 -32 -67q-20 -18 -72 -49q-68 -40 -94 -68q-44 -47 -40 -113h306z" />
    <glyph glyph-name="uni2083" unicode="&#x2083;" 
d="M411 28q0 35 -20 61q-17 23 -44 34q27 12 41 30q18 23 18 57q0 57 -47 90q-41 28 -101 28q-57 0 -96 -36q-41 -38 -46 -103h64q3 38 28 60q22 19 53 19q34 0 53 -9q28 -13 28 -48q0 -33 -30 -47q-28 -14 -88 -14v-54q63 0 94 -19q29 -18 29 -52q0 -28 -28 -47
q-25 -17 -59 -17q-44 0 -67 21q-24 22 -29 71h-65q6 -76 54 -115q42 -34 103 -34q67 0 109 31q46 34 46 93z" />
    <glyph glyph-name="uni2084" unicode="&#x2084;" 
d="M399 5v57h-51v262h-62l-195 -266l-1 -53h192v-96h66v96h51zM282 62h-117l117 158v-158z" />
    <glyph glyph-name="uni2103" unicode="&#x2103;" 
d="M609 64v0q81 0 156 43t126 117h-52q-43 -54 -103 -85q-62 -32 -127 -32q-117 0 -202 85q-86 84 -86 201q0 113 84 198t199 85q67 0 128 -29q64 -30 103 -86h55q-21 32 -51 61q-24 24 -51 43q-43 26 -89 40q-47 13 -95 13q-135 0 -232 -94q-96 -95 -96 -231
q0 -138 97 -234q96 -95 236 -95zM224 552v0q36 0 62 26q27 26 27 62q0 37 -27 63q-26 25 -62 25q-38 0 -65 -25q-26 -26 -26 -63q0 -36 26 -62q27 -26 65 -26zM224 690v0q20 0 35 -14q16 -15 16 -36q0 -20 -16 -35q-15 -15 -35 -15q-22 0 -37 15t-15 35q0 21 15 36
q15 14 37 14z" />
    <glyph glyph-name="uni2109" unicode="&#x2109;" 
d="M455 742v-748h72v368h289v63h-289v253h372v64h-444zM177 713q-48 0 -76 -30q-24 -28 -24 -68q0 -39 24 -66q28 -31 76 -31t77 31q26 27 26 66q0 40 -26 68q-29 30 -77 30zM177 680q29 0 47 -20q17 -19 17 -46q0 -26 -17 -44q-18 -21 -47 -21t-46 21q-15 18 -15 44
q0 27 15 46q17 20 46 20z" />
    <glyph glyph-name="uni2113" unicode="&#x2113;" 
d="M600 592q-5 -107 -49 -211q-29 -69 -99 -180q4 101 17 192q16 111 46 207q33 89 62 84q29 -4 23 -92zM306 79l28 -41l72 54q7 -61 35 -90q25 -27 61 -21t72 40q37 35 64 91l-40 23q-53 -98 -97 -105q-47 -7 -51 101q81 91 132 204q46 100 60 199q14 91 -2 151
q-16 59 -54 59q-89 0 -138 -191q-40 -158 -44 -402q-28 -25 -54 -44q-25 -18 -44 -28z" />
    <glyph glyph-name="uni2116" unicode="&#x2116;" 
d="M76 735v-691h52l1 586l304 -586h49v692h-54v-572l-299 571h-53zM731 78q-62 0 -98 59q-32 53 -32 130q0 78 32 131q36 59 98 59q63 0 101 -59q34 -53 34 -131q0 -77 -34 -130q-38 -59 -101 -59zM733 29q89 0 143 75q48 66 49 162q0 97 -48 164q-54 74 -144 74
q-91 0 -144 -74q-47 -67 -47 -164q0 -95 47 -162q54 -75 144 -75zM951 31q22 0 35 15q12 13 12 32q0 20 -12 33q-13 15 -35 15t-35 -15q-11 -13 -11 -33q0 -19 11 -32q13 -15 35 -15z" />
    <glyph glyph-name="uni2121" unicode="&#x2121;" 
d="M75 754v-48h183v-644h56v644h191v48h-430zM719 351h-215q5 64 38 104q32 38 77 38q42 0 69 -35q31 -39 31 -107zM775 219h-52q0 -51 -33 -85q-31 -32 -70 -32q-58 0 -89 60q-30 56 -29 147h278q0 125 -53 184q-41 46 -104 46q-87 0 -132 -64q-45 -65 -45 -187
q0 -123 62 -185q47 -47 111 -47q60 0 106 45q50 47 50 118zM881 754v-691h52v691h-52z" />
    <glyph glyph-name="trademark" unicode="&#x2122;" 
d="M507 781v-367h54v248l125 -248h48l120 247v-247h54v367h-54l-144 -295l-149 295h-54zM79 781v-48h152v-319h56v319h155v48h-363z" />
    <glyph glyph-name="Omega" unicode="&#x2126;" 
d="M164 185v-186h308v209q-90 11 -144 76q-57 70 -57 181q0 108 61 175q66 71 180 71q111 1 175 -70q62 -68 62 -175q0 -116 -58 -185q-52 -62 -138 -73v-209h309v187h-51v-144h-206v127q69 13 123 78q72 86 72 225q0 123 -80 202q-81 80 -211 80q-136 0 -215 -81
q-74 -77 -74 -204q0 -142 76 -227q55 -60 125 -75v-125h-206v143h-51z" />
    <glyph glyph-name="uni212B" unicode="&#x212b;" 
d="M514 687v0q37 0 63 26t26 62q0 37 -26 63q-26 25 -63 25q-38 0 -65 -25q-26 -26 -26 -63q0 -36 26 -62q27 -26 65 -26zM513 825v0q21 0 36 -14q15 -15 15 -36q0 -20 -15 -35q-16 -15 -36 -15q-21 0 -36 15t-15 35q0 21 15 36q14 14 36 14zM747 12v0h48l-259 635h-44
l-263 -635h47l91 215h292zM515 588v0l127 -319h-260z" />
    <glyph glyph-name="onethird" unicode="&#x2153;" 
d="M670 45q0 -44 22 -65q20 -18 60 -18q33 0 53 19t20 54q-1 43 -24 61t-77 16v56q51 3 72 21q19 16 19 54q0 31 -19 46q-16 13 -48 13q-33 0 -50 -17q-19 -19 -19 -62h-64q0 63 41 101q38 34 92 34q62 0 99 -34q34 -32 34 -81q0 -41 -26 -71q-20 -22 -42 -29q33 -6 53 -31
q25 -30 26 -80q0 -51 -44 -89q-42 -37 -95 -37q-55 0 -97 32q-52 39 -52 107h66zM205 381h66v442h-59q0 -47 -30 -73q-27 -23 -69 -23v-55q33 0 55 8q19 6 37 22v-321zM73 -55l861 876l31 -27l-865 -876z" />
    <glyph glyph-name="twothirds" unicode="&#x2154;" 
d="M73 -55l27 -27l865 876l-31 27zM127 377h293v56h-227q2 24 28 51q17 16 61 48q62 45 86 73q42 47 42 97q0 62 -44 97q-38 31 -94 31t-96 -41q-43 -45 -43 -119h66q0 52 20 79q19 25 53 25q36 0 53 -13q20 -16 20 -54q0 -39 -29 -73q-18 -21 -67 -57q-62 -48 -85 -79
q-40 -52 -37 -121zM670 45h-66q0 -68 52 -107q42 -32 97 -32q53 0 95 37q44 38 44 89q-1 50 -26 80q-20 25 -53 31q22 7 42 29q26 30 26 71q0 49 -34 81q-37 34 -99 34q-54 0 -92 -34q-41 -38 -41 -101h64q0 43 19 62q17 17 50 17q32 0 48 -13q19 -15 19 -46q0 -38 -19 -54
q-21 -18 -72 -21v-56q54 2 77 -16t24 -61q0 -35 -20 -54q-19 -19 -52 -19q-41 0 -61 18q-22 21 -22 65z" />
    <glyph glyph-name="oneeighth" unicode="&#x215b;" 
d="M719 167q-36 0 -52 21q-12 16 -12 48t15 48q16 18 50 18q32 0 48 -18q14 -16 14 -48t-13 -48q-15 -21 -50 -21zM720 119q41 0 60 -23q15 -19 15 -55q0 -35 -15 -53q-19 -23 -60 -23t-60 21q-17 19 -17 55q0 35 17 55q20 23 60 23zM723 -90q61 0 100 40q38 38 38 88
q0 44 -15 71q-17 31 -52 38q20 7 35 33q18 29 18 63q0 46 -37 80q-38 35 -91 35q-55 0 -93 -34q-36 -33 -36 -78q0 -36 15 -66q13 -27 31 -34q-30 -15 -44 -43t-14 -69q0 -51 39 -86q42 -38 106 -38zM73 -55l861 876l31 -27l-865 -876zM205 381h66v442h-59q0 -47 -30 -73
q-27 -23 -69 -23v-55q33 0 55 8q19 6 37 22v-321z" />
    <glyph glyph-name="threeeighths" unicode="&#x215c;" 
d="M720 119q41 0 60 -23q15 -19 15 -55q0 -35 -15 -53q-19 -23 -60 -23t-60 21q-17 19 -17 55q0 35 17 55q20 23 60 23zM723 -90q61 0 100 40q38 38 38 88q0 44 -15 71q-17 31 -52 38q20 7 35 33q18 29 18 63q0 46 -37 80q-38 35 -91 35q-55 0 -93 -34q-36 -33 -36 -78
q0 -36 15 -66q13 -27 31 -34q-30 -15 -44 -43t-14 -69q0 -51 39 -86q42 -38 106 -38zM719 167q-36 0 -52 21q-12 16 -12 48t15 48q16 18 50 18q32 0 48 -18q14 -16 14 -48t-13 -48q-15 -21 -50 -21zM73 -55l27 -27l865 876l-31 27zM185 511h-66q0 -68 51 -107q42 -32 96 -32
q55 0 97 37q44 38 44 89q-1 51 -25 80q-20 25 -53 31q22 6 41 29q26 30 26 71q0 50 -34 81q-36 34 -98 34q-54 0 -92 -34q-41 -38 -41 -101h64q0 43 19 62q16 17 49 17q32 0 49 -13q18 -15 18 -46q0 -38 -19 -54q-21 -18 -72 -21v-56q55 1 78 -17t23 -62q0 -34 -21 -53
q-19 -18 -54 -18q-39 0 -58 18q-22 21 -22 65z" />
    <glyph glyph-name="fiveeighths" unicode="&#x215d;" 
d="M133 814l-7 -218h53q18 19 42 25q24 7 46 0q23 -7 37 -29q15 -24 15 -62q0 -58 -22 -84q-18 -22 -52 -22q-33 0 -49 18q-16 19 -19 60h-62q6 -68 46 -104q33 -29 80 -29q65 0 105 45q39 44 39 115q0 67 -37 108q-35 39 -86 39q-27 0 -48 -6q-19 -5 -31 -16l6 105h190v55
h-246zM720 119q41 0 60 -23q15 -19 15 -55q0 -35 -15 -53q-19 -23 -60 -23t-60 21q-17 19 -17 55q0 35 17 55q20 23 60 23zM723 -90q61 0 100 40q38 38 38 88q0 44 -15 71q-17 31 -52 38q20 7 35 33q18 29 18 63q0 46 -37 80q-38 35 -91 35q-55 0 -93 -34q-36 -33 -36 -78
q0 -36 15 -66q13 -27 31 -34q-30 -15 -44 -43t-14 -69q0 -51 39 -86q42 -38 106 -38zM719 167q-36 0 -52 21q-12 16 -12 48t15 48q16 18 50 18q32 0 48 -18q14 -16 14 -48t-13 -48q-15 -21 -50 -21zM73 -55l27 -27l865 876l-31 27z" />
    <glyph glyph-name="seveneighths" unicode="&#x215e;" 
d="M127 816v-56h211q-71 -124 -99 -189q-42 -100 -50 -192h64q4 97 45 196q36 86 106 185v56h-277zM73 -55l27 -27l865 876l-31 27zM720 119q41 0 60 -23q15 -19 15 -55q0 -35 -15 -53q-19 -23 -60 -23t-60 21q-17 19 -17 55q0 35 17 55q20 23 60 23zM723 -90q61 0 100 40
q38 38 38 88q0 44 -15 71q-17 31 -52 38q20 7 35 33q18 29 18 63q0 46 -37 80q-38 35 -91 35q-55 0 -93 -34q-36 -33 -36 -78q0 -36 15 -66q13 -27 31 -34q-30 -15 -44 -43t-14 -69q0 -51 39 -86q42 -38 106 -38zM719 167q-36 0 -52 21q-12 16 -12 48t15 48q16 18 50 18
q32 0 48 -18q14 -16 14 -48t-13 -48q-15 -21 -50 -21z" />
    <glyph glyph-name="uni2160" unicode="&#x2160;" 
d="M481 -1h62v737h-62v-737z" />
    <glyph glyph-name="uni2161" unicode="&#x2161;" 
d="M640 -1h61v737h-61v-737zM323 -1h61v737h-61v-737z" />
    <glyph glyph-name="uni2162" unicode="&#x2162;" 
d="M739 -1h61v737h-61v-737zM228 -1h61v737h-61v-737zM482 -1h62v737h-62v-737z" />
    <glyph glyph-name="uni2163" unicode="&#x2163;" 
d="M667 -1h73l187 737h-69l-154 -651l-151 651h-71zM228 -1h61v737h-61v-737z" />
    <glyph glyph-name="uni2164" unicode="&#x2164;" 
d="M475 -1h73l255 737h-68l-223 -651l-222 651h-71z" />
    <glyph glyph-name="uni2165" unicode="&#x2165;" 
d="M283 -1h74l183 737h-68l-152 -651l-151 651h-71zM737 -1h62v737h-62v-737z" />
    <glyph glyph-name="uni2166" unicode="&#x2166;" 
d="M250 -1h73l184 737h-68l-152 -651l-151 651h-71zM623 -1h61v737h-61v-737zM835 -1h61v737h-61v-737z" />
    <glyph glyph-name="uni2167" unicode="&#x2167;" 
d="M219 -1h74l166 737h-68l-135 -651l-132 651h-71zM539 -1h62v737h-62v-737zM872 -1h62v737h-62v-737zM706 -1h61v737h-61v-737z" />
    <glyph glyph-name="uni2168" unicode="&#x2168;" 
d="M414 -1h80l161 319l161 -319h81l-203 377l192 360h-79l-152 -302l-151 302h-79l192 -358zM179 -1h62v737h-62v-737z" />
    <glyph glyph-name="uni2169" unicode="&#x2169;" 
d="M231 -1h80l205 319l204 -319h81l-246 377l235 360h-78l-196 -302l-194 302h-80l236 -358z" />
    <glyph glyph-name="uni2170" unicode="&#x2170;" 
d="M481 -1h62v532h-62v-532zM481 643h62v93h-62v-93z" />
    <glyph glyph-name="uni2171" unicode="&#x2171;" 
d="M323 -1h61v532h-61v-532zM323 643h61v93h-61v-93zM640 -1h61v532h-61v-532zM640 643h61v93h-61v-93z" />
    <glyph glyph-name="uni2172" unicode="&#x2172;" 
d="M226 -1h62v532h-62v-532zM226 643h62v93h-62v-93zM738 -1h62v532h-62v-532zM738 643h62v93h-62v-93zM481 -1h62v532h-62v-532zM481 643h62v93h-62v-93z" />
    <glyph glyph-name="uni2173" unicode="&#x2173;" 
d="M227 -1h61v532h-61v-532zM227 643h61v93h-61v-93zM640 -1h63l195 532h-63l-163 -457l-160 457h-67z" />
    <glyph glyph-name="uni2174" unicode="&#x2174;" 
d="M480 -1h64l194 532h-63l-163 -457l-160 457h-66z" />
    <glyph glyph-name="uni2175" unicode="&#x2175;" 
d="M737 -1h62v532h-62v-532zM737 643h62v93h-62v-93zM320 -1h63l195 532h-63l-163 -457l-160 457h-67z" />
    <glyph glyph-name="uni2176" unicode="&#x2176;" 
d="M801 -1h62v532h-62v-532zM801 643h62v93h-62v-93zM288 -1h63l177 532h-63l-146 -457l-142 457h-67zM610 -1h62v532h-62v-532zM610 643h62v93h-62v-93z" />
    <glyph glyph-name="uni2177" unicode="&#x2177;" 
d="M865 -1h62v532h-62v-532zM865 643h62v93h-62v-93zM225 -1h63l178 532h-63l-146 -457l-143 457h-66zM548 -1h61v532h-61v-532zM548 643h61v93h-61v-93zM707 -1h61v532h-61v-532zM707 643h61v93h-61v-93z" />
    <glyph glyph-name="uni2178" unicode="&#x2178;" 
d="M446 -1h74l152 225l147 -225h78l-187 273l172 259h-74l-136 -213l-134 213h-77l172 -260zM227 -1h61v532h-61v-532zM227 643h61v93h-61v-93z" />
    <glyph glyph-name="uni2179" unicode="&#x2179;" 
d="M287 -1h73l152 225l148 -225h77l-187 273l173 259h-74l-137 -213l-134 213h-77l173 -260z" />
    <glyph glyph-name="arrowleft" unicode="&#x2190;" 
d="M968 396v0h-768l129 160l-2 6l-276 -181l272 -190l5 6l-127 165h767v34z" />
    <glyph glyph-name="arrowup" unicode="&#x2191;" 
d="M512 827v0l-179 -264l5 -7l157 127v-769h37v769l153 -128l10 4z" />
    <glyph glyph-name="arrowright" unicode="&#x2192;" 
d="M51 396v0v-34h767l-127 -156l5 -5l276 176l-277 186l-4 -5l127 -162h-767z" />
    <glyph glyph-name="arrowdown" unicode="&#x2193;" 
d="M533 823v0h-37v-767l-163 132l-5 -5l187 -277l186 276l-5 6l-163 -132v767z" />
    <glyph glyph-name="arrowboth" unicode="&#x2194;" 
d="M783 556v0l-8 -5l114 -158h-752l110 153l-7 7l-237 -181l237 -180l9 6l-110 161h748l-110 -164l6 -5l239 180z" />
    <glyph glyph-name="arrowupdn" unicode="&#x2195;" 
d="M513 796l-176 -204l4 -4l160 92v-613l-160 89l-5 -5l181 -202l169 198l-4 7l-149 -87v613l147 -91l6 6z" />
    <glyph glyph-name="uni2196" unicode="&#x2196;" 
d="M842 82l-513 512l162 51v8l-260 15l16 -256l8 -1l50 161l514 -514z" />
    <glyph glyph-name="uni2197" unicode="&#x2197;" 
d="M189 85l23 -23l514 513l50 -160l8 1l16 256l-260 -16v-7l161 -52z" />
    <glyph glyph-name="uni2198" unicode="&#x2198;" 
d="M236 684l-24 -23l515 -513l-160 -50v-8l256 -16l-15 260h-8l-51 -162z" />
    <glyph glyph-name="uni2199" unicode="&#x2199;" 
d="M831 661l-25 21l-518 -517l-48 172h-8l-19 -263l262 18v7l-162 44z" />
    <glyph glyph-name="arrowdblright" unicode="&#x21d2;" 
d="M187 480v-29h619l79 -79l-87 -87h-608v-29h581l-128 -127l23 -23l267 266l-261 261l-24 -24l129 -129h-590z" />
    <glyph glyph-name="arrowdblboth" unicode="&#x21d4;" 
d="M668 631l-25 -23l130 -128h-532l133 131l-28 24l-264 -264l258 -268l25 28l-124 126h529l-128 -129l25 -23l267 265zM885 371l-87 -86h-585l-83 85l82 83h588z" />
    <glyph glyph-name="universal" unicode="&#x2200;" 
d="M870 760h-42l-105 -245h-420l-107 245h-42l361 -816zM515 30l-199 457h395z" />
    <glyph glyph-name="partialdiff" unicode="&#x2202;" 
d="M383 622v0l13 -10q30 34 63 52q41 22 88 22q58 0 96 -55q39 -57 39 -149q0 -38 -9 -93q-8 -45 -16 -79q-8 63 -51 97q-40 31 -101 31q-81 0 -150 -76q-70 -78 -70 -175q0 -88 42 -136q39 -44 100 -44q69 0 128 57q51 49 91 137q35 77 54 170q19 84 19 153q0 108 -42 167
q-40 57 -110 57q-55 0 -101 -30q-48 -32 -83 -96zM521 409v0l5 1q38 0 59 -39q17 -34 13 -72q-12 -108 -67 -189q-52 -77 -102 -77q-40 0 -59 31q-20 33 -20 105q0 97 52 169q52 71 119 71z" />
    <glyph glyph-name="existential" unicode="&#x2203;" 
d="M747 28v708h-500v-33h462v-301h-454v-32h454v-308h-463v-34h501z" />
    <glyph glyph-name="gradient" unicode="&#x2207;" 
d="M922 632v0h-800l399 -623zM183 601v0h672l-336 -532z" />
    <glyph glyph-name="element" unicode="&#x2208;" 
d="M867 642v0h-463q-122 0 -197 -90q-65 -79 -65 -181q0 -112 64 -193q72 -90 192 -90h469v35h-471q-87 0 -149 60q-68 64 -68 165h688v36h-688q0 97 69 162q66 61 153 61h466v35z" />
    <glyph glyph-name="suchthat" unicode="&#x220b;" 
d="M148 383v0v-35h687q0 -100 -62 -163q-60 -62 -153 -62h-472v-35h480q120 0 189 89q60 77 60 189q0 108 -61 186q-70 90 -192 90h-476v-35h467q99 0 159 -62q61 -62 61 -162h-687z" />
    <glyph glyph-name="product" unicode="&#x220f;" 
d="M183 713v-34h116v-678h95v678h261v-678h96v678h101v34h-669z" />
    <glyph glyph-name="summation" unicode="&#x2211;" 
d="M906 787h-795v-51l404 -364l-405 -386v-39h796v85h-666l381 366l-386 344h671v45z" />
    <glyph glyph-name="radical" unicode="&#x221a;" 
d="M1017 821v0h-433l-286 -807l-100 247l-121 -121l20 -20l57 57l127 -307l327 924h409v27z" />
    <glyph glyph-name="proportional" unicode="&#x221d;" 
d="M798 523v0l16 30q-22 15 -53 21q-25 5 -59 5q-64 0 -117 -47q-41 -36 -77 -104q-42 73 -78 105q-53 48 -128 48q-78 0 -133 -52q-61 -58 -61 -152t57 -145q50 -45 128 -45q81 0 137 48q39 34 77 106q40 -72 74 -105q52 -49 120 -49q32 0 62 8q32 8 51 21l-16 30
q-23 -15 -47 -20q-15 -3 -44 -3q-62 0 -107 50q-28 30 -70 112l-1 1q38 73 70 107q47 51 102 51q33 0 60 -6q24 -6 37 -15zM293 546v0q69 0 119 -49q36 -35 74 -112q-34 -79 -77 -118q-50 -47 -121 -47q-61 0 -101 45t-40 111q0 72 40 120q41 50 106 50z" />
    <glyph glyph-name="infinity" unicode="&#x221e;" 
d="M721 571v0h-18q-38 0 -78 -22q-43 -24 -78 -70q-11 -12 -20 -30q-7 -12 -16 -33q-42 78 -93 117q-51 38 -112 38q-92 0 -148 -58q-51 -54 -51 -134q0 -78 49 -134q53 -59 134 -59q77 0 130 37q52 36 89 112q41 -75 84 -110q54 -44 133 -44q85 0 137 57q49 55 49 138
q0 91 -60 146q-54 49 -131 49zM490 376v0v-3q-31 -72 -71 -108q-51 -47 -128 -47q-68 0 -107 47q-37 44 -37 118q0 63 42 108q45 48 112 48q48 0 93 -35q53 -42 96 -128zM542 346v0l-11 30q38 79 72 113q49 49 118 49q72 0 115 -52q39 -47 39 -110q0 -75 -45 -120
q-43 -43 -109 -43q-62 0 -108 40q-34 29 -71 93z" />
    <glyph glyph-name="angle" unicode="&#x2220;" 
d="M711 583v0l-28 20l-482 -576v-17h610v32h-556z" />
    <glyph glyph-name="uni2225" unicode="&#x2225;" 
d="M399 705v0v-657h34v657h-34zM593 705v0v-657h32v657h-32z" />
    <glyph glyph-name="logicaland" unicode="&#x2227;" 
d="M212 44l295 568l293 -572l34 18l-327 636l-327 -635z" />
    <glyph glyph-name="logicalor" unicode="&#x2228;" 
d="M834 661l-28 23l-295 -575l-297 573l-31 -16l327 -628z" />
    <glyph glyph-name="intersection" unicode="&#x2229;" 
d="M230 -11v0h39v485q0 84 71 147q73 63 171 63q99 0 170 -67q70 -66 70 -157v-471h38v474q0 106 -85 181q-83 73 -193 73q-111 0 -195 -69q-86 -73 -86 -175v-484z" />
    <glyph glyph-name="union" unicode="&#x222a;" 
d="M789 717v0h-38v-446q0 -115 -85 -183q-71 -57 -164 -57q-90 0 -156 57q-77 68 -77 186v443h-39v-451q0 -129 84 -202q75 -65 189 -65q112 0 193 64q93 73 93 196v458z" />
    <glyph glyph-name="integral" unicode="&#x222b;" 
d="M506 574v0q-7 -43 -47 -225l-39 -173l-3 -12q-10 -48 -17 -71q-12 -41 -30 -66q-20 -29 -50 -45q-37 -19 -88 -16l-42 2l-5 -35q7 -1 18 -1q6 -1 18 -1q59 0 98 15q46 18 76 61q20 28 33 68q8 24 20 73l7 28l89 409l3 16q8 40 15 59q12 31 33 52q19 20 44 31q26 10 58 10
l6 38q-41 0 -78 -17q-38 -18 -62 -49q-24 -26 -39 -70q-12 -36 -18 -81z" />
    <glyph glyph-name="uni222C" unicode="&#x222c;" 
d="M434 574v0q-7 -43 -47 -225l-39 -173l-4 -17q-9 -46 -16 -69q-12 -39 -29 -63q-20 -30 -50 -45q-38 -19 -89 -16l-41 2l-6 -35q7 -1 18 -1q6 -1 18 -1q59 0 98 15q47 18 76 61q20 28 33 68q8 24 20 73l7 28l89 409l3 16q8 40 15 59q12 31 33 52q19 20 45 31q26 10 57 10
l6 38q-40 0 -78 -17q-38 -18 -61 -49q-25 -26 -40 -70q-12 -36 -18 -81zM639 574v0q-7 -43 -47 -225l-39 -173l-3 -12q-10 -48 -17 -71q-12 -41 -30 -66q-20 -29 -50 -45q-37 -19 -88 -16l-42 2l-5 -35q7 -1 18 -1q6 -1 18 -1q59 0 98 15q46 18 76 61q20 28 33 68
q8 24 20 73l7 28l89 409l3 16q8 40 15 59q12 31 33 52q19 20 44 31q26 10 58 10l6 38q-40 0 -78 -17q-38 -18 -62 -49q-24 -26 -39 -70q-12 -36 -18 -81z" />
    <glyph glyph-name="uni222E" unicode="&#x222e;" 
d="M259 54l-20 -17l-27 -23q17 -43 51 -64q30 -20 72 -20q62 0 109 72q50 75 83 227q73 7 118 51q40 39 46 95q5 56 -24 99q-31 48 -90 60q21 107 47 159q30 61 72 61q36 0 55 -20q17 -18 23 -56l59 27q-6 43 -44 75q-40 33 -90 33q-76 0 -120 -73q-38 -62 -64 -203
q-75 -6 -120 -51q-40 -40 -45 -98q-6 -55 23 -99q32 -47 92 -59q-24 -112 -55 -176q-34 -68 -70 -68q-29 0 -48 15q-21 17 -33 53zM550 372l20 126q36 -10 56 -44q18 -32 15 -72q-5 -40 -31 -70q-29 -33 -76 -42q4 22 8 49q3 23 8 53zM490 387q-5 -39 -8 -59q-5 -33 -9 -57
q-38 10 -58 44q-18 31 -14 70q3 41 29 71q28 34 77 42q-6 -32 -9 -53q-5 -30 -8 -58z" />
    <glyph glyph-name="therefore" unicode="&#x2234;" 
d="M516 520v0q31 0 49 20q17 17 17 43t-17 44q-18 20 -49 20t-49 -20q-15 -18 -15 -44t15 -43q18 -20 49 -20zM748 122v0q31 0 49 20q16 17 16 42q0 27 -16 44q-18 20 -49 20t-49 -20q-15 -17 -15 -44q0 -25 15 -42q18 -20 49 -20zM288 122v0q29 0 47 20q17 18 17 42
q0 27 -16 44q-18 20 -48 20q-31 0 -49 -20q-15 -17 -15 -44q0 -25 15 -42q18 -20 49 -20z" />
    <glyph glyph-name="uni2235" unicode="&#x2235;" 
d="M728 612v0q-30 0 -47 -17q-15 -16 -15 -40t15 -40q17 -18 47 -18q31 0 49 18q17 16 17 40t-17 40q-18 17 -49 17zM503 219v0q-30 0 -47 -18q-15 -16 -15 -40q0 -23 15 -39q17 -19 47 -19q31 0 49 19q16 16 16 39q0 24 -16 40q-18 18 -49 18zM271 612v0q-29 0 -45 -17
q-15 -16 -15 -40t15 -40q16 -18 45 -18q30 0 49 18q17 17 17 40q0 24 -17 40q-19 17 -49 17z" />
    <glyph glyph-name="similar" unicode="&#x223c;" 
d="M620 328v0q40 0 75 29q23 20 52 60l-31 32q-19 -32 -41 -53q-28 -25 -55 -25q-21 0 -41 8q-12 4 -35 16l-27 13l-11 5q-36 16 -52 21q-25 7 -50 7q-45 0 -76 -23q-26 -19 -52 -64l32 -34q17 36 36 53q26 24 66 24q17 0 47 -10q26 -9 45 -20h1q43 -21 61 -27
q31 -12 56 -12z" />
    <glyph glyph-name="uni223D" unicode="&#x223d;" 
d="M394 509v0l19 32q-30 13 -50 18q-27 6 -62 6q-80 0 -131 -50q-53 -54 -53 -143q0 -99 61 -149q53 -44 139 -44q74 0 128 57q33 35 80 125q46 87 74 119q48 53 113 53t109 -39q49 -43 49 -120q0 -76 -48 -124q-42 -42 -98 -42q-30 0 -58 8q-29 8 -46 22l-19 -30
q33 -15 53 -21q28 -8 67 -8q80 1 131 51q54 53 54 142q0 92 -55 144q-51 49 -131 49q-92 0 -152 -60q-35 -36 -83 -130q-42 -82 -69 -112q-45 -50 -110 -50q-76 0 -115 41q-38 41 -38 118t47 122q42 40 101 40q26 0 52 -7q23 -7 41 -18z" />
    <glyph glyph-name="uni2252" unicode="&#x2252;" 
d="M716 181v0q-30 0 -46 -18q-15 -17 -15 -43q0 -22 15 -39q17 -18 46 -18t47 18q16 17 16 39q0 26 -16 43q-18 18 -47 18zM164 469v0v-31h702v31h-702zM164 288v0v-31h702v31h-702zM316 668v0q-31 0 -49 -18q-15 -17 -15 -42q0 -23 15 -39q18 -19 49 -19q29 0 47 19
q16 16 16 39q0 25 -16 42q-18 18 -47 18z" />
    <glyph glyph-name="notequal" unicode="&#x2260;" 
d="M295 273v0h302l72 -104l36 25l-56 79h94v44h-125l-110 154h235v44h-266l-77 109l-36 -25l60 -84h-129v-44h160l110 -154h-270v-44z" />
    <glyph glyph-name="equivalence" unicode="&#x2261;" 
d="M168 228v0v-32h702v32h-702zM169 389v0v-33h701v33h-701zM168 550v0v-32h701v32h-701z" />
    <glyph glyph-name="lessequal" unicode="&#x2264;" 
d="M850 686v0l-11 30l-665 -276l661 -250l15 30l-591 221zM183 126v0v-31h670v31h-670z" />
    <glyph glyph-name="greaterequal" unicode="&#x2265;" 
d="M185 126v0v-31h654v31h-654zM209 718v0l-15 -29l570 -249l-574 -225l17 -28l644 250z" />
    <glyph glyph-name="uni226A" unicode="&#x226a;" 
d="M903 713l-17 26l-544 -367l535 -367l21 24l-493 341zM670 713l-19 26l-543 -367l536 -367l21 24l-492 341z" />
    <glyph glyph-name="uni226B" unicode="&#x226b;" 
d="M118 740l-17 -26l497 -339l-502 -343l22 -25l541 367zM363 740l-21 -26l499 -339l-503 -343l25 -25l537 367z" />
    <glyph glyph-name="propersubset" unicode="&#x2282;" 
d="M867 642v0h-463q-122 0 -197 -90q-65 -79 -65 -181q0 -112 64 -193q72 -90 192 -90h469v35h-471q-86 0 -149 67q-68 71 -68 179q0 102 70 172q67 66 152 66h466v35z" />
    <glyph glyph-name="propersuperset" unicode="&#x2283;" 
d="M148 642v0v-35h467q101 0 161 -67q59 -65 59 -172q0 -113 -59 -179q-58 -66 -156 -66h-472v-35h480q120 0 188 89q60 77 60 189q0 108 -60 186q-70 90 -192 90h-476z" />
    <glyph glyph-name="reflexsubset" unicode="&#x2286;" 
d="M820 667v0h-421q-100 0 -160 -61q-55 -57 -55 -143q0 -97 55 -155q56 -60 154 -60h427v36h-430q-69 0 -117 44q-52 49 -52 130q0 86 54 133q47 41 120 41h425v35zM184 108v0v-35h634v35h-634z" />
    <glyph glyph-name="reflexsuperset" unicode="&#x2287;" 
d="M195 666v0v-34h433q70 0 119 -50q50 -52 50 -131q0 -83 -51 -130q-46 -44 -122 -44h-429v-35h436q98 0 156 67q51 60 51 142q0 78 -52 142q-59 73 -152 73h-439zM195 108v0v-35h628v35h-628z" />
    <glyph glyph-name="uni2299" unicode="&#x2299;" 
d="M513 754q182 0 289 -121q96 -109 96 -267q0 -157 -96 -265q-107 -121 -289 -121q-178 0 -282 121q-94 109 -94 265q0 158 94 267q104 121 282 121zM513 780q-195 0 -308 -129q-102 -116 -102 -285q0 -167 102 -283q114 -129 308 -129q199 0 316 129q106 116 106 283
q0 169 -106 285q-117 129 -316 129zM513 496q-62 0 -99 -40q-32 -37 -32 -90q0 -52 32 -88q37 -41 99 -41q59 0 95 41q32 36 32 88q0 53 -32 90q-36 40 -95 40z" />
    <glyph glyph-name="perpendicular" unicode="&#x22a5;" 
d="M492 586v0v-544h-308v-32h651v32h-302v544h-41z" />
    <glyph glyph-name="uni2312" unicode="&#x2312;" 
d="M239 323v0q22 73 102 113q73 37 170 37q94 0 167 -38q79 -41 105 -113h46q-25 90 -120 142q-87 47 -198 47q-113 0 -199 -47q-92 -51 -117 -141h44z" />
    <glyph glyph-name="uni2460" unicode="&#x2460;" 
d="M506 794q-99 0 -181 -38q-76 -36 -132 -101q-53 -61 -82 -141q-27 -77 -27 -158q0 -178 109 -295q116 -124 313 -124q203 0 323 125q113 116 113 294q0 81 -29 158q-29 80 -83 141q-58 65 -137 101q-85 38 -187 38zM511 771q91 0 169 -36q72 -34 126 -96q50 -59 78 -134
q27 -73 27 -149q0 -166 -105 -277q-112 -119 -295 -119q-184 0 -293 118q-103 111 -103 278q0 76 26 149q27 75 77 134q53 62 124 96q77 36 169 36zM492 121h66v505h-58q-5 -46 -36 -73q-29 -26 -71 -26h-4v-56h10q28 0 54 11q25 9 39 25v-386z" />
    <glyph glyph-name="uni2461" unicode="&#x2461;" 
d="M656 121v56h-233q3 48 35 88q24 30 80 69q58 40 86 76q35 45 35 97q0 62 -43 97q-39 32 -99 32q-63 0 -106 -40q-45 -42 -45 -111h65q0 52 22 75q21 20 64 20q38 0 56 -15q20 -17 20 -56q0 -47 -28 -81q-20 -25 -80 -67q-57 -41 -86 -90q-37 -62 -41 -150h298zM506 794
q-99 0 -181 -38q-76 -36 -132 -101q-53 -61 -82 -141q-27 -77 -27 -158q0 -178 109 -295q116 -124 313 -124q203 0 323 125q113 116 113 294q0 81 -29 158q-29 80 -83 141q-58 65 -137 101q-85 38 -187 38zM511 771q91 0 169 -36q72 -34 126 -96q50 -59 78 -134
q27 -73 27 -149q0 -166 -105 -277q-112 -119 -295 -119q-184 0 -293 118q-103 111 -103 278q0 76 26 149q27 75 77 134q53 62 124 96q77 36 169 36z" />
    <glyph glyph-name="uni2462" unicode="&#x2462;" 
d="M506 794q-99 0 -181 -38q-76 -36 -132 -101q-53 -61 -82 -141q-27 -77 -27 -158q0 -178 109 -295q116 -124 313 -124q203 0 323 125q113 116 113 294q0 81 -29 158q-29 80 -83 141q-58 65 -137 101q-85 38 -187 38zM511 771q91 0 169 -36q72 -34 126 -96q50 -59 78 -134
q27 -73 27 -149q0 -166 -105 -277q-112 -119 -295 -119q-184 0 -293 118q-103 111 -103 278q0 76 26 149q27 75 77 134q53 62 124 96q77 36 169 36zM347 255q0 -81 48 -121q41 -34 113 -34q68 0 113 42q47 42 47 106q0 60 -32 97q-29 34 -75 42q32 9 56 36q31 35 31 85
q0 63 -45 98q-39 32 -98 32q-60 0 -101 -34q-45 -39 -45 -104h66q0 44 24 65q21 18 55 18t54 -16q24 -19 24 -62q0 -42 -24 -67q-26 -29 -75 -29v-56q65 0 94 -30q25 -26 25 -78q0 -48 -30 -70q-25 -20 -68 -20q-50 0 -70 20q-21 21 -21 80h-66z" />
    <glyph glyph-name="uni2463" unicode="&#x2463;" 
d="M506 794q-99 0 -181 -38q-76 -36 -132 -101q-53 -61 -82 -141q-27 -77 -27 -158q0 -178 109 -295q116 -124 313 -124q203 0 323 125q113 116 113 294q0 81 -29 158q-29 80 -83 141q-58 65 -137 101q-85 38 -187 38zM511 771q91 0 169 -36q72 -34 126 -96q50 -59 78 -134
q27 -73 27 -149q0 -166 -105 -277q-112 -119 -295 -119q-184 0 -293 118q-103 111 -103 278q0 76 26 149q27 75 77 134q53 62 124 96q77 36 169 36zM335 216h186v-109h66v109h57v55h-57v355h-82l-170 -355v-55zM521 271h-120l120 259v-259z" />
    <glyph glyph-name="uni2464" unicode="&#x2464;" 
d="M506 794q-99 0 -181 -38q-76 -36 -132 -101q-53 -61 -82 -141q-27 -77 -27 -158q0 -178 109 -295q116 -124 313 -124q203 0 323 125q113 116 113 294q0 81 -29 158q-29 80 -83 141q-58 65 -137 101q-85 38 -187 38zM511 771q91 0 169 -36q72 -34 126 -96q50 -59 78 -134
q27 -73 27 -149q0 -166 -105 -277q-112 -119 -295 -119q-184 0 -293 118q-103 111 -103 278q0 76 26 149q27 75 77 134q53 62 124 96q77 36 169 36zM392 626l-17 -250h64q19 21 46 28t52 -3q26 -9 42 -35q18 -28 18 -72q0 -74 -26 -106q-22 -28 -70 -28q-39 0 -56 21
q-17 20 -20 64h-66q3 -65 45 -104q38 -36 93 -36q83 0 126 53q40 48 40 132t-41 130q-37 43 -95 43q-32 0 -55 -10q-16 -6 -31 -19l10 137h193l-1 55h-251z" />
    <glyph glyph-name="uni2465" unicode="&#x2465;" 
d="M609 509h65q-10 69 -53 102q-36 27 -90 27q-82 0 -120 -75q-38 -74 -37 -228q0 -121 44 -181q38 -52 107 -52q70 0 110 45q42 46 42 126q0 65 -30 106q-26 37 -69 49q-41 13 -82 2t-57 -39q0 91 20 138q22 53 71 53q38 0 53 -12q17 -14 26 -61zM532 380q45 0 63 -33
q16 -26 16 -80q0 -50 -18 -77q-21 -33 -66 -33q-44 0 -66 33q-18 29 -18 80q0 49 19 78q23 32 70 32zM506 794q-99 0 -181 -38q-76 -36 -132 -101q-53 -61 -82 -141q-27 -77 -27 -158q0 -178 109 -295q116 -124 313 -124q203 0 323 125q113 116 113 294q0 81 -29 158
q-29 80 -83 141q-58 65 -137 101q-85 38 -187 38zM511 771q91 0 169 -36q72 -34 126 -96q50 -59 78 -134q27 -73 27 -149q0 -166 -105 -277q-112 -119 -295 -119q-184 0 -293 118q-103 111 -103 278q0 76 26 149q27 75 77 134q53 62 124 96q77 36 169 36z" />
    <glyph glyph-name="uni2466" unicode="&#x2466;" 
d="M375 621v-55h216q-56 -115 -87 -217q-33 -116 -38 -227h63q2 127 35 241q31 107 93 216v42h-282zM506 794q-99 0 -181 -38q-76 -36 -132 -101q-53 -61 -82 -141q-27 -77 -27 -158q0 -178 109 -295q116 -124 313 -124q203 0 323 125q113 116 113 294q0 81 -29 158
q-29 80 -83 141q-58 65 -137 101q-85 38 -187 38zM511 771q91 0 169 -36q72 -34 126 -96q50 -59 78 -134q27 -73 27 -149q0 -166 -105 -277q-112 -119 -295 -119q-184 0 -293 118q-103 111 -103 278q0 76 26 149q27 75 77 134q53 62 124 96q77 36 169 36z" />
    <glyph glyph-name="uni2467" unicode="&#x2467;" 
d="M512 637q-61 0 -101 -42q-37 -39 -37 -92q0 -50 22 -84q19 -27 50 -39q-36 -13 -57 -43q-24 -36 -24 -93q0 -66 46 -105q42 -37 104 -37q69 0 110 41t41 110q0 55 -29 92q-22 29 -55 40q28 14 45 38q21 31 21 77q0 66 -40 103q-37 34 -96 34zM431 248q0 50 21 78
q21 29 63 29q39 0 62 -25q24 -25 24 -73q0 -50 -27 -76q-23 -23 -58 -23q-36 0 -59 20q-26 24 -26 70zM510 581h2q38 0 55 -23q15 -20 15 -59t-16 -62q-17 -27 -52 -27q-38 0 -57 25q-18 23 -18 63q0 39 17 61q18 22 54 22zM506 794q-99 0 -181 -38q-76 -36 -132 -101
q-53 -61 -82 -141q-27 -77 -27 -158q0 -178 109 -295q116 -124 313 -124q203 0 323 125q113 116 113 294q0 81 -29 158q-29 80 -83 141q-58 65 -137 101q-85 38 -187 38zM511 771q91 0 169 -36q72 -34 126 -96q50 -59 78 -134q27 -73 27 -149q0 -166 -105 -277
q-112 -119 -295 -119q-184 0 -293 118q-103 111 -103 278q0 76 26 149q27 75 77 134q53 62 124 96q77 36 169 36z" />
    <glyph glyph-name="uni2468" unicode="&#x2468;" 
d="M362 216q10 -54 40 -83q35 -32 98 -32q76 0 114 60q31 48 31 122v178q0 88 -44 134q-38 40 -98 40q-61 0 -103 -44q-46 -49 -46 -134q0 -61 26 -104q24 -38 65 -55q38 -15 76 -7q40 9 58 37q0 -96 -13 -129q-16 -43 -67 -43q-36 0 -52 15t-19 45h-66zM501 579
q45 0 63 -31q15 -26 15 -88q0 -53 -19 -82q-21 -34 -68 -34q-40 0 -58 34q-14 28 -14 82q0 58 16 86q19 33 65 33zM506 794q-99 0 -181 -38q-76 -36 -132 -101q-53 -61 -82 -141q-27 -77 -27 -158q0 -178 109 -295q116 -124 313 -124q203 0 323 125q113 116 113 294
q0 81 -29 158q-29 80 -83 141q-58 65 -137 101q-85 38 -187 38zM511 771q91 0 169 -36q72 -34 126 -96q50 -59 78 -134q27 -73 27 -149q0 -166 -105 -277q-112 -119 -295 -119q-184 0 -293 118q-103 111 -103 278q0 76 26 149q27 75 77 134q53 62 124 96q77 36 169 36z" />
    <glyph glyph-name="uni2469" unicode="&#x2469;" 
d="M611 166q-41 0 -55 62q-10 44 -10 143q0 102 10 146q14 63 55 63q37 0 51 -63q11 -47 11 -146q0 -97 -11 -143q-14 -62 -51 -62zM610 636q-65 0 -100 -82q-30 -72 -30 -181q0 -108 30 -180q35 -83 100 -83q60 0 96 83q33 74 33 180q0 107 -33 181q-36 82 -96 82zM506 794
q-99 0 -181 -38q-76 -36 -132 -101q-53 -61 -82 -141q-27 -77 -27 -158q0 -178 109 -295q116 -124 313 -124q203 0 323 125q113 116 113 294q0 81 -29 158q-29 80 -83 141q-58 65 -137 101q-85 38 -187 38zM511 771q91 0 169 -36q72 -34 126 -96q50 -59 78 -134
q27 -73 27 -149q0 -166 -105 -277q-112 -119 -295 -119q-184 0 -293 118q-103 111 -103 278q0 76 26 149q27 75 77 134q53 62 124 96q77 36 169 36zM339 121h65v505h-58q-5 -47 -35 -73q-29 -26 -71 -26h-4v-56h10q28 0 53 11q25 9 40 25v-386z" />
    <glyph glyph-name="uni246A" unicode="&#x246a;" 
d="M506 794q-99 0 -181 -38q-76 -36 -132 -101q-53 -61 -82 -141q-27 -77 -27 -158q0 -178 109 -295q116 -124 313 -124q203 0 323 125q113 116 113 294q0 81 -29 158q-29 80 -83 141q-58 65 -137 101q-85 38 -187 38zM511 771q91 0 169 -36q72 -34 126 -96q50 -59 78 -134
q27 -73 27 -149q0 -166 -105 -277q-112 -119 -295 -119q-184 0 -293 118q-103 111 -103 278q0 76 26 149q27 75 77 134q53 62 124 96q77 36 169 36zM631 121h65v505h-58q-5 -46 -36 -73q-29 -26 -70 -26h-5v-56h11q28 0 53 11q25 9 40 25v-386zM339 121h65v505h-58
q-5 -47 -35 -73q-29 -26 -71 -26h-4v-56h10q28 0 53 11q25 9 40 25v-386z" />
    <glyph glyph-name="uni246B" unicode="&#x246b;" 
d="M506 794q-99 0 -181 -38q-76 -36 -132 -101q-53 -61 -82 -141q-27 -77 -27 -158q0 -178 109 -295q116 -124 313 -124q203 0 323 125q113 116 113 294q0 81 -29 158q-29 80 -83 141q-58 65 -137 101q-85 38 -187 38zM511 771q91 0 169 -36q72 -34 126 -96q50 -59 78 -134
q27 -73 27 -149q0 -166 -105 -277q-112 -119 -295 -119q-184 0 -293 118q-103 111 -103 278q0 76 26 149q27 75 77 134q53 62 124 96q77 36 169 36zM339 121h65v505h-58q-5 -47 -35 -73q-29 -26 -71 -26h-4v-56h10q28 0 53 11q25 9 40 25v-386zM746 121v56h-203q3 47 32 90
q21 30 68 71q50 42 73 74q32 45 32 95q0 61 -41 97q-36 32 -87 32q-54 0 -95 -40q-43 -43 -43 -111h65q0 51 21 75q18 20 52 20q28 0 44 -15q19 -18 19 -56q0 -46 -25 -81q-16 -22 -62 -63q-53 -46 -79 -93q-36 -64 -40 -151h269z" />
    <glyph glyph-name="uni246C" unicode="&#x246c;" 
d="M506 794q-99 0 -181 -38q-76 -36 -132 -101q-53 -61 -82 -141q-27 -77 -27 -158q0 -178 109 -295q116 -124 313 -124q203 0 323 125q113 116 113 294q0 81 -29 158q-29 80 -83 141q-58 65 -137 101q-85 38 -187 38zM511 771q91 0 169 -36q72 -34 126 -96q50 -59 78 -134
q27 -73 27 -149q0 -166 -105 -277q-112 -119 -295 -119q-184 0 -293 118q-103 111 -103 278q0 76 26 149q27 75 77 134q53 62 124 96q77 36 169 36zM483 255q1 -73 43 -116q39 -39 94 -39q59 0 102 41q45 43 45 107q0 66 -32 103q-27 32 -70 36q28 4 51 31q31 34 31 90
q0 61 -40 97q-36 33 -88 33q-54 0 -89 -34q-38 -38 -38 -104h65q0 44 17 65q16 18 44 18q27 0 43 -16q20 -20 20 -62q0 -46 -23 -70q-23 -26 -69 -26v-56q62 0 87 -26q25 -24 25 -80q0 -51 -26 -74q-19 -18 -53 -18q-37 0 -55 27q-18 25 -18 73h-66zM339 121h65v505h-58
q-5 -47 -35 -73q-29 -26 -71 -26h-4v-56h10q28 0 53 11q25 9 40 25v-386z" />
    <glyph glyph-name="uni246D" unicode="&#x246d;" 
d="M506 794q-99 0 -181 -38q-76 -36 -132 -101q-53 -61 -82 -141q-27 -77 -27 -158q0 -178 109 -295q116 -124 313 -124q203 0 323 125q113 116 113 294q0 81 -29 158q-29 80 -83 141q-58 65 -137 101q-85 38 -187 38zM511 771q91 0 169 -36q72 -34 126 -96q50 -59 78 -134
q27 -73 27 -149q0 -166 -105 -277q-112 -119 -295 -119q-184 0 -293 118q-103 111 -103 278q0 76 26 149q27 75 77 134q53 62 124 96q77 36 169 36zM485 230h162v-124h66v124h60v56h-60v341h-58l-170 -362v-35zM647 474v-188h-86zM339 121h65v505h-58q-5 -47 -35 -73
q-29 -26 -71 -26h-4v-56h10q28 0 53 11q25 9 40 25v-386z" />
    <glyph glyph-name="uni246E" unicode="&#x246e;" 
d="M505 626l-18 -286h58q4 25 27 38t54 6q24 -6 34 -31q11 -25 11 -81q0 -61 -17 -92q-16 -31 -46 -31q-29 0 -42 21q-12 19 -16 72h-66q5 -78 40 -116q30 -32 80 -32q57 0 91 40q41 47 41 142q0 66 -22 107q-19 36 -52 49q-30 13 -62 9q-31 -4 -44 -19l7 149h150v55h-208z
M506 794q-99 0 -181 -38q-76 -36 -132 -101q-53 -61 -82 -141q-27 -77 -27 -158q0 -178 109 -295q116 -124 313 -124q203 0 323 125q113 116 113 294q0 81 -29 158q-29 80 -83 141q-58 65 -137 101q-85 38 -187 38zM511 771q91 0 169 -36q72 -34 126 -96q50 -59 78 -134
q27 -73 27 -149q0 -166 -105 -277q-112 -119 -295 -119q-184 0 -293 118q-103 111 -103 278q0 76 26 149q27 75 77 134q53 62 124 96q77 36 169 36zM339 121h65v505h-58q-5 -47 -35 -73q-29 -26 -71 -26h-4v-56h10q28 0 53 11q25 9 40 25v-386z" />
    <glyph glyph-name="uni2474" unicode="&#x2474;" 
d="M223 779l-31 21q-55 -77 -92 -172q-49 -131 -49 -263q0 -138 49 -257q33 -81 99 -171l29 22q-57 78 -90 158q-48 120 -48 251q0 129 48 252q32 84 85 159zM817 800l-28 -23q58 -80 91 -159q50 -119 50 -247q0 -132 -51 -253q-30 -75 -89 -161l33 -22q66 102 96 175
q50 121 50 261q0 129 -52 255q-39 95 -100 174zM551 58h-68v487q-15 -11 -37 -17q-22 -7 -45 -7h-18v58h12q38 0 64 24q28 26 33 73h59v-618z" />
    <glyph glyph-name="uni2475" unicode="&#x2475;" 
d="M223 779l-31 21q-55 -77 -92 -172q-49 -131 -49 -263q0 -138 49 -257q33 -81 99 -171l29 22q-57 78 -90 158q-48 120 -48 251q0 129 48 252q32 84 85 159zM817 800l-28 -23q58 -80 91 -159q50 -119 50 -247q0 -132 -51 -253q-30 -75 -89 -161l33 -22q66 102 96 175
q50 121 50 261q0 129 -52 255q-39 95 -100 174zM672 539q0 -67 -39 -119q-27 -36 -101 -96q-65 -52 -91 -98q-24 -44 -27 -109h256v-58h-324q-4 110 27 176q28 59 109 129l6 5q64 51 84 76q32 41 32 95q0 51 -24 76q-20 22 -54 22q-51 0 -76 -28q-28 -32 -28 -98h-68
q0 92 48 140q45 44 124 44q63 0 101 -36q45 -41 45 -121z" />
    <glyph glyph-name="uni2476" unicode="&#x2476;" 
d="M223 779l-31 21q-55 -77 -92 -172q-49 -131 -49 -263q0 -138 49 -257q33 -81 99 -171l29 22q-57 78 -90 158q-48 120 -48 251q0 129 48 252q32 84 85 159zM817 800l-28 -23q58 -80 91 -159q50 -119 50 -247q0 -132 -51 -253q-30 -75 -89 -161l33 -22q66 102 96 175
q50 121 50 261q0 129 -52 255q-39 95 -100 174zM683 230q0 -93 -49 -143q-44 -46 -121 -46q-81 0 -122 39q-49 46 -49 155h68q0 -78 25 -109q22 -28 75 -28q45 0 72 27q33 33 33 103q0 62 -34 91q-36 31 -121 31v62q69 0 104 34q32 30 32 87q0 54 -27 81q-22 22 -57 22
q-41 0 -64 -26q-27 -31 -27 -92h-68q0 89 48 135q41 39 111 39q64 0 103 -35q47 -40 47 -120q0 -58 -22 -99q-18 -32 -45 -50q40 -14 62 -50q26 -41 26 -108z" />
    <glyph glyph-name="uni2477" unicode="&#x2477;" 
d="M223 779l-31 21q-55 -77 -92 -172q-49 -131 -49 -263q0 -138 49 -257q33 -81 99 -171l29 22q-57 78 -90 158q-48 120 -48 251q0 129 48 252q32 84 85 159zM817 800l-28 -23q58 -80 91 -159q50 -119 50 -247q0 -132 -51 -253q-30 -75 -89 -161l33 -22q66 102 96 175
q50 121 50 261q0 129 -52 255q-39 95 -100 174zM594 194v392l-180 -392h180zM713 136h-53v-77h-66v77h-251v51l224 489h93v-482h53v-58z" />
    <glyph glyph-name="uni2478" unicode="&#x2478;" 
d="M223 779l-31 21q-55 -77 -92 -172q-49 -131 -49 -263q0 -138 49 -257q33 -81 99 -171l29 22q-57 78 -90 158q-48 120 -48 251q0 129 48 252q32 84 85 159zM817 800l-28 -23q58 -80 91 -159q50 -119 50 -247q0 -132 -51 -253q-30 -75 -89 -161l33 -22q66 102 96 175
q50 121 50 261q0 129 -52 255q-39 95 -100 174zM684 253q0 -107 -42 -160q-45 -58 -140 -58q-66 0 -107 39q-45 43 -50 126h60q6 -56 26 -80q23 -27 76 -27q52 0 79 36q30 40 30 127q0 52 -16 84q-17 34 -51 46t-69 5q-37 -8 -57 -35h-61l29 320h280v-56h-220l-20 -183
q26 13 64 16q45 3 80 -12q47 -17 71 -49q38 -48 38 -139z" />
    <glyph glyph-name="uni2479" unicode="&#x2479;" 
d="M223 779l-31 21q-55 -77 -92 -172q-49 -131 -49 -263q0 -138 49 -257q33 -81 99 -171l29 22q-57 78 -90 158q-48 120 -48 251q0 129 48 252q32 84 85 159zM817 800l-28 -23q58 -80 91 -159q50 -119 50 -247q0 -132 -51 -253q-30 -75 -89 -161l33 -22q66 102 96 175
q50 121 50 261q0 129 -52 255q-39 95 -100 174zM618 246q0 64 -21 96q-23 37 -75 42q-50 5 -75 -37q-21 -36 -21 -101q0 -74 20 -112q23 -41 71 -41q52 0 77 41q24 38 24 112zM684 252q0 -112 -45 -166q-42 -51 -123 -51q-79 0 -119 61q-47 72 -47 241q-1 193 41 278
q40 81 131 81q65 0 103 -29q45 -37 57 -123h-63q-11 58 -35 78q-20 16 -62 16q-53 0 -79 -58q-25 -57 -25 -171q32 26 73 34q48 10 91 -9q44 -17 69 -53q33 -48 33 -129z" />
    <glyph glyph-name="uni247A" unicode="&#x247a;" 
d="M223 779l-31 21q-55 -77 -92 -172q-49 -131 -49 -263q0 -138 49 -257q33 -81 99 -171l29 22q-57 78 -90 158q-48 120 -48 251q0 129 48 252q32 84 85 159zM817 800l-28 -23q58 -80 91 -159q50 -119 50 -247q0 -132 -51 -253q-30 -75 -89 -161l33 -22q66 102 96 175
q50 121 50 261q0 129 -52 255q-39 95 -100 174zM672 676v-49q-62 -146 -90 -274q-30 -133 -36 -295h-72q8 153 36 280q30 133 91 282h-254v56h325z" />
    <glyph glyph-name="uni247B" unicode="&#x247b;" 
d="M223 779l-31 21q-55 -77 -92 -172q-49 -131 -49 -263q0 -138 49 -257q33 -81 99 -171l29 22q-57 78 -90 158q-48 120 -48 251q0 129 48 252q32 84 85 159zM817 800l-28 -23q58 -80 91 -159q50 -119 50 -247q0 -132 -51 -253q-30 -75 -89 -161l33 -22q66 102 96 175
q50 121 50 261q0 129 -52 255q-39 95 -100 174zM596 532q0 54 -20 79q-20 26 -64 26h-2q-44 0 -65 -28q-20 -27 -20 -79q0 -47 23 -74q24 -28 67 -28q39 0 60 29q21 27 21 75zM614 232q0 67 -29 99q-25 28 -73 28t-74 -32q-27 -34 -27 -102q0 -56 31 -90q29 -32 70 -32
q42 0 70 31q32 34 32 98zM682 236q0 -101 -45 -150q-42 -46 -125 -46q-74 0 -118 43q-50 49 -50 144q0 68 23 111q20 36 57 53q-30 17 -47 49q-19 36 -19 89q0 76 38 119q41 46 117 46q73 0 109 -34q42 -40 42 -130q0 -52 -17 -87q-16 -30 -44 -46q35 -17 55 -51
q24 -42 24 -110z" />
    <glyph glyph-name="uni247C" unicode="&#x247c;" 
d="M223 779l-31 21q-55 -77 -92 -172q-49 -131 -49 -263q0 -138 49 -257q33 -81 99 -171l29 22q-57 78 -90 158q-48 120 -48 251q0 129 48 252q32 84 85 159zM817 800l-28 -23q58 -80 91 -159q50 -119 50 -247q0 -132 -51 -253q-30 -75 -89 -161l33 -22q66 102 96 175
q50 121 50 261q0 129 -52 255q-39 95 -100 174zM608 491q0 70 -23 107q-25 39 -76 39q-53 0 -77 -39q-22 -36 -22 -107q0 -82 21 -124q23 -44 72 -44q55 0 81 44q24 41 24 124zM675 268q0 -107 -35 -164q-41 -66 -129 -66q-80 0 -118 38q-34 34 -51 116h66q8 -50 31 -73
q24 -26 71 -26q55 0 76 49q19 43 22 151q-35 -27 -80 -33q-49 -6 -91 17q-47 23 -68 64q-26 51 -26 147q0 107 49 161q44 47 119 47q71 0 115 -47q49 -53 49 -157v-224z" />
    <glyph glyph-name="uni247D" unicode="&#x247d;" 
d="M223 779l-31 21q-55 -77 -92 -172q-49 -131 -49 -263q0 -138 49 -257q33 -81 99 -171l29 22q-57 78 -90 158q-48 120 -48 251q0 129 48 252q32 84 85 159zM817 800l-28 -23l11 -18q60 -95 85 -159q45 -110 45 -229q0 -132 -51 -253q-30 -75 -89 -161l33 -22
q66 102 96 175q50 121 50 261q0 129 -52 255q-39 95 -100 174zM375 58h-67v487q-16 -11 -38 -17q-22 -7 -45 -7h-18v58h12q38 0 64 24q28 26 34 73h58v-618zM777 359q0 -144 -35 -227q-37 -89 -104 -89q-73 0 -111 89q-34 81 -34 227q0 159 34 243q37 90 111 90
q68 0 104 -90q35 -86 35 -243zM715 358q0 135 -17 200q-19 73 -60 73q-46 0 -64 -73q-15 -62 -15 -200q0 -125 15 -184q19 -72 64 -72q41 0 60 72q17 63 17 184z" />
    <glyph glyph-name="uni247E" unicode="&#x247e;" 
d="M223 779l-31 21q-55 -77 -92 -172q-49 -131 -49 -263q0 -138 49 -257q33 -81 99 -171l29 22q-57 78 -90 158q-48 120 -48 251q0 129 48 252q32 84 85 159zM817 800l-28 -23q58 -80 91 -159q50 -119 50 -247q0 -132 -51 -253q-30 -75 -89 -161l33 -22q66 102 96 175
q50 121 50 261q0 129 -52 255q-39 95 -100 174zM725 58h-68v487q-15 -11 -36 -17q-22 -7 -47 -7h-18v58h12q39 0 65 24q28 26 33 73h59v-618zM375 58h-67v487q-16 -11 -38 -17q-22 -7 -45 -7h-18v58h12q38 0 64 24q28 26 34 73h58v-618z" />
    <glyph glyph-name="uni247F" unicode="&#x247f;" 
d="M223 779l-31 21q-55 -77 -92 -172q-49 -131 -49 -263q0 -138 49 -257q33 -81 99 -171l29 22q-57 78 -90 158q-48 120 -48 251q0 129 48 252q32 84 85 159zM817 800l-28 -23q58 -80 91 -159q50 -119 50 -247q0 -132 -51 -253q-30 -75 -89 -161l33 -22q66 102 96 175
q50 121 50 261q0 129 -52 255q-39 95 -100 174zM375 58h-67v487q-16 -11 -38 -17q-22 -7 -45 -7h-18v58h12q38 0 64 24q28 26 34 73h58v-618zM792 539q0 -73 -29 -120q-18 -29 -71 -76l-22 -20q-58 -49 -83 -86q-36 -54 -41 -122h242v-57h-308q3 110 43 188q30 59 86 107
l31 28q45 37 60 61q24 39 24 100q0 48 -24 73q-21 21 -56 21q-39 0 -63 -28q-27 -31 -28 -92h-67q0 86 48 133q43 43 110 43q63 0 103 -35q45 -41 45 -118z" />
    <glyph glyph-name="uni2480" unicode="&#x2480;" 
d="M223 779l-31 21q-55 -77 -92 -172q-49 -131 -49 -263q0 -138 49 -257q33 -81 99 -171l29 22q-57 78 -90 158q-48 120 -48 251q0 129 48 252q32 84 85 159zM817 800l-28 -23q58 -80 91 -159q50 -119 50 -247q0 -132 -51 -253q-30 -75 -89 -161l33 -22q66 102 96 175
q50 121 50 261q0 129 -52 255q-39 95 -100 174zM375 58h-67v487q-16 -11 -38 -17q-22 -7 -45 -7h-18v58h12q38 0 64 24q28 26 34 73h58v-618zM817 228q0 -93 -48 -142q-44 -46 -120 -46q-75 0 -116 40q-48 47 -48 152h67q0 -73 24 -105q22 -29 69 -29q45 0 71 26
q33 32 33 101q0 63 -31 93q-31 32 -99 32v62q53 0 82 34q28 33 28 92q0 46 -26 71q-24 23 -57 21q-34 -2 -57 -29q-25 -29 -25 -79h-67q0 78 46 124q42 41 104 43q60 1 103 -36q47 -42 47 -114q0 -60 -23 -101q-18 -33 -47 -50q41 -14 63 -50q27 -42 27 -110z" />
    <glyph glyph-name="uni2481" unicode="&#x2481;" 
d="M223 779l-31 21q-55 -77 -92 -172q-49 -131 -49 -263q0 -138 49 -257q33 -81 99 -171l29 22q-57 78 -90 158q-48 120 -48 251q0 129 48 252q32 84 85 159zM817 800l-28 -23q59 -86 91 -160q50 -118 50 -246q0 -132 -51 -253q-30 -75 -89 -161l33 -22q66 102 96 175
q50 121 50 261q0 129 -52 255q-39 95 -100 174zM375 58h-67v487q-16 -11 -38 -17q-22 -7 -45 -7h-18v58h12q38 0 64 24q28 26 34 73h58v-618zM797 143h-54v-106h-67v106h-203v51l176 482h94v-475h54v-58zM676 201v373l-134 -373h134z" />
    <glyph glyph-name="uni2482" unicode="&#x2482;" 
d="M223 779l-31 21q-55 -77 -92 -172q-49 -131 -49 -263q0 -138 49 -257q33 -81 99 -171l29 22q-57 78 -90 158q-48 120 -48 251q0 129 48 252q32 84 85 159zM817 800l-28 -23q58 -80 91 -159q50 -119 50 -247q0 -132 -51 -253q-30 -75 -89 -161l33 -22q66 102 96 175
q50 121 50 261q0 129 -52 255q-39 95 -100 174zM803 265q0 -116 -41 -173q-42 -60 -133 -60q-56 0 -95 38q-43 42 -46 115h60q4 -46 24 -69q21 -25 61 -25q50 0 74 38q29 43 29 140q0 66 -20 105q-16 33 -45 43q-28 11 -56 4q-29 -7 -51 -32h-61l18 287h262l-1 -55l-197 -1
l-12 -151q23 12 53 15q39 5 71 -7q44 -15 69 -53q37 -55 37 -159zM375 58h-67v487q-16 -11 -38 -17q-22 -7 -45 -7h-18v58h12q38 0 64 24q28 26 34 73h58v-618z" />
    <glyph glyph-name="uni249C" unicode="&#x249c;" 
d="M264 789l-31 21q-79 -75 -129 -181q-60 -127 -60 -264q0 -141 60 -260q47 -90 142 -185l29 22q-85 82 -132 173q-60 117 -60 253q0 134 58 253q47 97 123 168zM790 812l-27 -23q82 -75 130 -169q58 -115 58 -249q0 -136 -59 -255q-44 -89 -123 -171l32 -21q88 97 130 184
q59 119 59 263q0 136 -60 256q-52 106 -140 185zM724 155h-1q-13 -3 -19 -5q-10 -2 -20 -2q-32 0 -50 8q-18 7 -24 22q-20 -20 -46 -31q-33 -13 -79 -13q-72 0 -111 31q-36 28 -36 75l-1 4q0 40 19 65q34 46 134 71l47 14q37 9 49 14q19 8 19 20q0 35 -20 56q-21 23 -58 23
q-64 0 -89 -31q-18 -22 -18 -66h-75q0 70 51 110q49 38 133 38q54 0 92 -23q50 -31 50 -95v-212q0 -13 7 -18q6 -4 19 -4q3 0 9 2q7 1 18 5v-58zM604 267v87l-95 -27q-49 -14 -74 -31q-29 -20 -29 -46q0 -33 17 -47q21 -17 74 -17q39 0 73 27q34 26 34 54z" />
    <glyph glyph-name="uni249D" unicode="&#x249d;" 
d="M264 789l-31 21q-79 -75 -129 -181q-60 -127 -60 -264q0 -141 60 -260q47 -90 142 -185l29 22q-85 82 -132 173q-60 117 -60 253q0 134 58 253q47 97 123 168zM790 812l-37 -22q88 -73 139 -170q59 -113 59 -249t-59 -255q-44 -89 -123 -171l32 -21q88 97 130 184
q59 119 59 263q0 136 -60 256q-52 106 -140 185zM717 320q0 -117 -46 -182q-45 -65 -128 -65q-35 3 -66 18q-27 14 -47 35v-39h-68v620h68v-221q20 24 50 39t58 15q84 0 131 -59q48 -59 48 -161zM638 322q0 87 -27 128q-25 37 -74 37q-35 0 -72 -37q-35 -35 -35 -62v-142
q0 -40 33 -77q34 -39 78 -39q36 0 61 35q36 49 36 157z" />
    <glyph glyph-name="uni249E" unicode="&#x249e;" 
d="M264 789l-31 21q-79 -75 -129 -181q-60 -127 -60 -264q0 -141 60 -260q47 -90 142 -185l29 22q-85 82 -132 173q-60 117 -60 253q0 134 58 253q47 97 123 168zM790 812l-27 -23q82 -75 130 -169q58 -115 58 -249q0 -136 -59 -255q-44 -89 -123 -171l32 -21q88 97 130 184
q59 119 59 263q0 136 -60 256q-52 106 -140 185zM712 309q0 -65 -51 -117q-57 -60 -144 -60q-86 0 -141 54q-64 62 -64 175q0 90 52 157q57 73 147 73q82 0 135 -55q47 -50 49 -119h-75q0 44 -27 80q-32 42 -84 42q-59 0 -88 -60q-27 -64 -29 -120q0 -66 37 -127
q30 -44 92 -44q41 2 74 35q36 36 36 86h81z" />
    <glyph glyph-name="uni249F" unicode="&#x249f;" 
d="M264 789l-31 21q-79 -75 -129 -181q-60 -127 -60 -264q0 -141 60 -260q47 -90 142 -185l29 22q-85 82 -132 173q-60 117 -60 253q0 134 58 253q47 97 123 168zM790 812l-27 -23q82 -75 130 -169q58 -115 58 -249q0 -136 -59 -255q-44 -89 -123 -171l32 -21q88 97 130 184
q59 119 59 263q0 136 -60 256q-52 106 -140 185zM597 229v154q0 41 -36 73q-33 31 -69 31q-46 0 -73 -48q-26 -47 -26 -127q0 -79 26 -127t71 -48q38 0 71 29q31 28 36 63zM666 91h-69v41q-20 -22 -47 -34q-30 -13 -65 -13q-65 0 -117 57q-59 65 -59 164q0 95 48 161
q51 71 132 71q31 0 63 -15q24 -12 45 -31v231h69v-632z" />
    <glyph glyph-name="uni24A0" unicode="&#x24a0;" 
d="M264 789l-31 21q-79 -75 -129 -181q-60 -127 -60 -264q0 -141 60 -260q47 -90 142 -185l29 22q-85 82 -132 173q-60 117 -60 253q0 134 58 253q47 97 123 168zM790 812l-27 -23q82 -75 130 -169q58 -115 58 -249q0 -136 -59 -255q-44 -89 -123 -171l32 -21q88 97 130 184
q59 119 59 263q0 136 -60 256q-52 106 -140 185zM623 416q-6 62 -38 97q-29 31 -68 31q-41 0 -71 -31q-34 -35 -41 -97h218zM700 371h-296q0 -88 35 -135q29 -33 73 -33t82 30q41 43 30 68h70q1 -55 -58 -114q-52 -44 -126 -44q-84 0 -135 65q-51 64 -51 166q0 83 49 149
q55 72 137 72q88 0 140 -65q50 -62 50 -159z" />
    <glyph glyph-name="uni24A1" unicode="&#x24a1;" 
d="M264 789l-31 21q-79 -75 -129 -181q-60 -127 -60 -264q0 -141 60 -260q47 -90 142 -185l29 22q-85 82 -132 173q-60 117 -60 253q0 134 58 253q47 97 123 168zM790 812l-27 -23q82 -75 130 -169q58 -115 58 -249q0 -136 -59 -255q-44 -89 -123 -171l32 -21q88 97 130 184
q59 119 59 263q0 136 -60 256q-52 106 -140 185zM625 621q-63 0 -81 -9q-19 -11 -19 -49v-72h94v-58h-94v-382h-69v382h-83v58h83v84q0 53 35 80q41 32 134 32v-66z" />
    <glyph glyph-name="uni24A2" unicode="&#x24a2;" 
d="M264 789l-31 21q-79 -75 -129 -181q-60 -127 -60 -264q0 -141 60 -260q47 -90 142 -185l29 22q-85 82 -132 173q-60 117 -60 253q0 134 58 253q47 97 123 168zM790 812l-27 -23q82 -75 130 -169q58 -115 58 -249q0 -136 -59 -255q-44 -89 -123 -171l32 -21q88 97 130 184
q59 119 59 263q0 136 -60 256q-52 106 -140 185zM626 435q-1 56 -21 87q-26 39 -84 39q-65 0 -90 -40q-25 -26 -27 -84q6 -70 34 -95q23 -30 79 -30q52 0 79 28q30 30 30 95zM693 298q2 -91 -26 -145q-41 -82 -145 -82q-82 0 -120 32q-41 34 -50 120h59q7 -53 34 -77
q26 -24 77 -24q68 0 90 55q14 33 14 117q-19 -19 -44 -28q-26 -9 -65 -9q-85 0 -130 48q-43 45 -46 130q-1 75 44 124q49 53 136 53q35 0 63 -11q23 -9 41 -25v24h68v-302z" />
    <glyph glyph-name="uni24A3" unicode="&#x24a3;" 
d="M264 789l-31 21q-79 -75 -129 -181q-60 -127 -60 -264q0 -141 60 -260q47 -90 142 -185l29 22q-85 82 -132 173q-60 117 -60 253q0 134 58 253q47 97 123 168zM790 812l-27 -23q82 -75 130 -169q58 -115 58 -249q0 -136 -59 -255q-44 -89 -123 -171l32 -21q88 97 130 184
q59 119 59 263q0 136 -60 256q-52 106 -140 185zM687 54h-69v295q0 47 -24 73q-21 25 -55 25q-34 1 -67 -21q-35 -25 -56 -68v-304h-69v631h69v-239q29 37 76 53q45 15 89 6q47 -9 75 -44q31 -38 31 -100v-307z" />
    <glyph glyph-name="uni24A4" unicode="&#x24a4;" 
d="M264 789l-31 21q-79 -75 -129 -181q-60 -127 -60 -264q0 -141 60 -260q47 -90 142 -185l29 22q-85 82 -132 173q-60 117 -60 253q0 134 58 253q47 97 123 168zM790 812l-27 -23q82 -75 130 -169q58 -115 58 -249q0 -136 -59 -255q-44 -89 -123 -171l32 -21q88 97 130 184
q59 119 59 263q0 136 -60 256q-52 106 -140 185zM546 47h-69v440h69v-440zM548 607h-70v73h70v-73z" />
    <glyph glyph-name="uni24A5" unicode="&#x24a5;" 
d="M264 789l-31 21q-79 -75 -129 -181q-60 -127 -60 -264q0 -141 60 -260q47 -90 142 -185l29 22q-85 82 -132 173q-60 117 -60 253q0 134 58 253q47 97 123 168zM790 812l-27 -23q82 -75 130 -169q58 -115 58 -249q0 -136 -59 -255q-44 -89 -123 -171l32 -21q88 97 130 184
q59 119 59 263q0 136 -60 256q-52 106 -140 185zM555 76q0 -53 -20 -77q-29 -35 -107 -35v71q29 -6 42 0q15 7 15 33v512h70v-504zM553 703h-67v73h67v-73z" />
    <glyph glyph-name="uni24A6" unicode="&#x24a6;" 
d="M264 789l-31 21q-79 -75 -129 -181q-60 -127 -60 -264q0 -141 60 -260q47 -90 142 -185l29 22q-85 82 -132 173q-60 117 -60 253q0 134 58 253q47 97 123 168zM790 812l-27 -23q82 -75 130 -169q58 -115 58 -249q0 -136 -59 -255q-44 -89 -123 -171l32 -21q88 97 130 184
q59 119 59 263q0 136 -60 256q-52 106 -140 185zM720 78h-85l-155 231l-58 -58v-175h-70v638h70v-375l186 185l88 1l-170 -170z" />
    <glyph glyph-name="uni24A7" unicode="&#x24a7;" 
d="M264 789l-31 21q-79 -75 -129 -181q-60 -127 -60 -264q0 -141 60 -260q47 -90 142 -185l29 22q-85 82 -132 173q-60 117 -60 253q0 134 58 253q47 97 123 168zM790 812l-27 -23q82 -75 130 -169q58 -115 58 -249q0 -136 -59 -255q-44 -89 -123 -171l32 -21q88 97 130 184
q59 119 59 263q0 136 -60 256q-52 106 -140 185zM546 32h-71v635h71v-635z" />
    <glyph glyph-name="uni24A8" unicode="&#x24a8;" 
d="M264 789l-31 21q-79 -75 -129 -181q-60 -127 -60 -264q0 -141 60 -260q47 -90 142 -185l29 22q-85 82 -132 173q-60 117 -60 253q0 134 58 253q47 97 123 168zM790 812l-27 -23q82 -75 130 -169q58 -115 58 -249q0 -136 -59 -255q-44 -89 -123 -171l32 -21q88 97 130 184
q59 119 59 263q0 136 -60 256q-52 106 -140 185zM782 143h-70v312q-1 37 -23 58q-20 18 -49 17q-30 -2 -55 -23q-27 -23 -38 -62v-302h-67v315q-6 67 -63 73q-55 6 -104 -50v-338h-66v442h66v-45q61 52 125 47t96 -63q27 34 68 50q39 15 77 10q40 -5 67 -30q29 -28 36 -75
v-336z" />
    <glyph glyph-name="uni24A9" unicode="&#x24a9;" 
d="M264 789l-31 21q-79 -75 -129 -181q-60 -127 -60 -264q0 -141 60 -260q47 -90 142 -185l29 22q-85 82 -132 173q-60 117 -60 253q0 134 58 253q47 97 123 168zM790 812l-27 -23q82 -75 130 -169q58 -115 58 -249q0 -136 -59 -255q-44 -89 -123 -171l32 -21q88 97 130 184
q59 119 59 263q0 136 -60 256q-52 106 -140 185zM686 143h-68v315q-3 38 -29 59q-24 19 -60 19q-36 1 -67 -18q-35 -20 -52 -55v-320h-69v441h69v-45q32 30 78 43q45 12 88 4q46 -8 74 -37q32 -32 36 -84v-322z" />
    <glyph glyph-name="uni24AA" unicode="&#x24aa;" 
d="M264 789l-31 21q-79 -75 -129 -181q-60 -127 -60 -264q0 -141 60 -260q47 -90 142 -185l29 22q-85 82 -132 173q-60 117 -60 253q0 134 58 253q47 97 123 168zM790 812l-27 -23q82 -75 130 -169q58 -115 58 -249q0 -136 -59 -255q-44 -89 -123 -171l32 -21q88 97 130 184
q59 119 59 263q0 136 -60 256q-52 106 -140 185zM511 181q54 0 86 56q29 50 29 121q0 72 -29 122q-32 55 -86 55q-51 0 -81 -55q-27 -50 -27 -122q0 -71 27 -121q30 -56 81 -56zM511 129q-85 0 -135 72q-45 64 -45 156q0 93 45 157q50 71 135 71q89 0 141 -71
q48 -64 48 -157q0 -92 -48 -156q-52 -72 -141 -72z" />
    <glyph glyph-name="uni24AB" unicode="&#x24ab;" 
d="M264 789l-31 21q-79 -75 -129 -181q-60 -127 -60 -264q0 -141 60 -260q47 -90 142 -185l29 22q-85 82 -132 173q-60 117 -60 253q0 134 58 253q47 97 123 168zM790 812l-27 -23q82 -75 130 -169q58 -115 58 -249q0 -136 -59 -255q-44 -89 -123 -171l32 -21q88 97 130 184
q59 119 59 263q0 136 -60 256q-52 106 -140 185zM633 450q-2 85 -20 123q-24 47 -80 47q-34 0 -65 -23q-29 -21 -48 -58v-195q20 -41 49 -63q28 -22 65 -22q42 0 66 35q33 47 33 156zM712 447q0 -106 -46 -172q-47 -69 -128 -69q-31 0 -60 14q-33 15 -58 43v-235h-68v632h68
v-44q23 25 52 40q33 16 66 16q80 0 126 -55q48 -59 48 -170z" />
    <glyph glyph-name="uni24AC" unicode="&#x24ac;" 
d="M264 789l-31 21q-79 -75 -129 -181q-60 -127 -60 -264q0 -141 60 -260q47 -90 142 -185l29 22q-85 82 -132 173q-60 117 -60 253q0 134 58 253q47 97 123 168zM790 812l-27 -23q82 -75 130 -169q58 -115 58 -249q0 -136 -59 -255q-44 -89 -123 -171l32 -21q88 97 130 184
q59 119 59 263q0 136 -60 256q-52 106 -140 185zM615 313v214q-14 28 -40 46q-30 21 -68 21q-50 0 -77 -47q-26 -44 -26 -122q0 -80 24 -127q25 -50 75 -50q34 0 62 15q32 17 50 50zM684 5h-69v232q-24 -21 -52 -31q-29 -11 -66 -11q-73 0 -120 58q-51 63 -51 172
q0 101 51 163q49 61 126 61q32 0 62 -12q28 -11 50 -33v38h69v-637z" />
    <glyph glyph-name="uni24AD" unicode="&#x24ad;" 
d="M264 789l-31 21q-79 -75 -129 -181q-60 -127 -60 -264q0 -141 60 -260q47 -90 142 -185l29 22q-85 82 -132 173q-60 117 -60 253q0 134 58 253q47 97 123 168zM790 812l-27 -23q82 -75 130 -169q58 -115 58 -249q0 -136 -59 -255q-44 -89 -123 -171l32 -21q88 97 130 184
q59 119 59 263q0 136 -60 256q-52 106 -140 185zM644 506q-65 0 -109 -26q-37 -23 -60 -65v-282h-71v443h71v-73q30 35 68 53q46 23 101 23v-73z" />
    <glyph glyph-name="uni24AE" unicode="&#x24ae;" 
d="M264 789l-31 21q-79 -75 -129 -181q-60 -127 -60 -264q0 -141 60 -260q47 -90 142 -185l29 22q-85 82 -132 173q-60 117 -60 253q0 134 58 253q47 97 123 168zM790 812l-27 -23q82 -75 130 -169q58 -115 58 -249q0 -136 -59 -255q-44 -89 -123 -171l32 -21q88 97 130 184
q59 119 59 263q0 136 -60 256q-52 106 -140 185zM703 277q0 -80 -71 -119q-51 -29 -115 -29q-65 0 -116 29q-60 33 -88 103l72 25q18 -54 56 -79q32 -22 80 -23q41 0 70 20q34 23 34 65q1 32 -34 48q-22 11 -84 23q-80 16 -112 33q-53 30 -53 88q0 54 40 90q45 40 123 40
q76 0 130 -42q48 -37 60 -92l-79 -16q-7 47 -34 73q-30 28 -81 28q-40 0 -65 -22q-22 -21 -22 -52q1 -36 39 -54q24 -11 86 -21q78 -14 109 -30q52 -27 55 -86z" />
    <glyph glyph-name="uni24AF" unicode="&#x24af;" 
d="M264 789l-31 21q-79 -75 -129 -181q-60 -127 -60 -264q0 -141 60 -260q47 -90 142 -185l29 22q-85 82 -132 173q-60 117 -60 253q0 134 58 253q47 97 123 168zM790 812l-27 -23q82 -75 130 -169q58 -115 58 -249q0 -136 -59 -255q-44 -89 -123 -171l32 -21q88 97 130 184
q59 119 59 263q0 136 -60 256q-52 106 -140 185zM640 134q-77 -47 -126 -34q-54 15 -52 100v297h-75v55h75v111h67v-113h96v-53h-97v-295q0 -40 23 -43q22 -2 59 27z" />
    <glyph glyph-name="uni24B0" unicode="&#x24b0;" 
d="M264 789l-31 21q-79 -75 -129 -181q-60 -127 -60 -264q0 -141 60 -260q47 -90 142 -185l29 22q-85 82 -132 173q-60 117 -60 253q0 134 58 253q47 97 123 168zM790 812l-27 -23q82 -75 130 -169q58 -115 58 -249q0 -136 -59 -255q-44 -89 -123 -171l32 -21q88 97 130 184
q59 119 59 263q0 136 -60 256q-52 106 -140 185zM690 150h-70v40q-38 -32 -87 -46q-48 -14 -92 -6q-47 9 -74 41q-29 34 -29 89v323h71v-327q0 -33 24 -51q22 -17 57 -16q35 2 69 20q37 20 61 54v319h70v-440z" />
    <glyph glyph-name="uni24B1" unicode="&#x24b1;" 
d="M264 789l-31 21q-79 -75 -129 -181q-60 -127 -60 -264q0 -141 60 -260q47 -90 142 -185l29 22q-85 82 -132 173q-60 117 -60 253q0 134 58 253q47 97 123 168zM790 812l-27 -23q82 -75 130 -169q58 -115 58 -249q0 -136 -59 -255q-44 -89 -123 -171l32 -21q88 97 130 184
q59 119 59 263q0 136 -60 256q-52 106 -140 185zM702 583l-149 -440h-85l-150 441h76l118 -346l113 345h77z" />
    <glyph glyph-name="uni24B2" unicode="&#x24b2;" 
d="M264 789l-31 21q-79 -75 -129 -181q-60 -127 -60 -264q0 -141 60 -260q47 -90 142 -185l29 22q-85 82 -132 173q-60 117 -60 253q0 134 58 253q47 97 123 168zM790 812l-27 -23q82 -75 130 -169q58 -115 58 -249q0 -136 -59 -255q-44 -89 -123 -171l32 -21q88 97 130 184
q59 119 59 263q0 136 -60 256q-52 106 -140 185zM813 580l-129 -443h-79l-92 331l-107 -331h-71l-126 443h73l91 -339l105 340h74l97 -340l94 339h70z" />
    <glyph glyph-name="uni24B3" unicode="&#x24b3;" 
d="M264 789l-31 21q-79 -75 -129 -181q-60 -127 -60 -264q0 -141 60 -260q47 -90 142 -185l29 22q-85 82 -132 173q-60 117 -60 253q0 134 58 253q47 97 123 168zM790 812l-27 -23q82 -75 130 -169q58 -115 58 -249q0 -136 -59 -255q-44 -89 -123 -171l32 -21q88 97 130 184
q59 119 59 263q0 136 -60 256q-52 106 -140 185zM708 132h-89l-109 162l-109 -162h-90l154 232l-148 221h92l101 -153l103 153h90l-148 -221z" />
    <glyph glyph-name="uni24B4" unicode="&#x24b4;" 
d="M264 789l-31 21q-79 -75 -129 -181q-60 -127 -60 -264q0 -141 60 -260q47 -90 142 -185l29 22q-85 82 -132 173q-60 117 -60 253q0 134 58 253q47 97 123 168zM790 812l-27 -23q82 -75 130 -169q58 -115 58 -249q0 -136 -59 -255q-44 -89 -123 -171l32 -21q88 97 130 184
q59 119 59 263q0 136 -60 256q-52 106 -140 185zM708 678l-187 -570q-19 -46 -51 -61q-34 -16 -100 -3l-17 73q51 -20 74 -15q23 4 35 35l36 117l-174 423h74l134 -325l106 326h70z" />
    <glyph glyph-name="uni24B5" unicode="&#x24b5;" 
d="M264 789l-31 21q-79 -75 -129 -181q-60 -127 -60 -264q0 -141 60 -260q47 -90 142 -185l29 22q-85 82 -132 173q-60 117 -60 253q0 134 58 253q47 97 123 168zM790 812l-27 -23q82 -75 130 -169q58 -115 58 -249q0 -136 -59 -255q-44 -89 -123 -171l32 -21q88 97 130 184
q59 119 59 263q0 136 -60 256q-52 106 -140 185zM707 143h-369v53l267 329h-257v60h350v-52l-272 -331h281v-59z" />
    <glyph glyph-name="uni24D0" unicode="&#x24d0;" 
d="M506 794q-99 0 -181 -38q-76 -36 -132 -101q-53 -61 -82 -141q-27 -77 -27 -158q0 -178 109 -295q116 -124 313 -124q203 0 323 125q113 116 113 294q0 81 -29 158q-29 80 -83 141q-58 65 -137 101q-85 38 -187 38zM511 771q91 0 169 -36q72 -34 126 -96q50 -59 78 -134
q27 -73 27 -149q0 -166 -105 -277q-112 -119 -295 -119q-184 0 -293 118q-103 111 -103 278q0 76 26 149q27 75 77 134q53 62 124 96q77 36 169 36zM416 418q0 39 17 57q25 24 95 24q41 0 57 -16t16 -55q0 -15 -22 -27q-15 -7 -66 -23l-21 -7q-100 -26 -130 -62
q-19 -22 -19 -71l1 -2q0 -42 36 -71q34 -29 81 -29q48 0 90 18q32 13 50 30q9 -18 35 -26q22 -8 52 -8q5 0 11 2q4 0 11 2l10 2v54q-5 -2 -11 -3q-4 -1 -8 -1q-18 0 -26 6q-9 7 -9 25v203q0 63 -49 93q-36 22 -87 22q-82 0 -130 -36q-49 -37 -49 -101h65zM601 265
q0 -29 -43 -52q-40 -22 -83 -22q-38 0 -52 13q-13 13 -13 43t25 48q22 16 73 29q43 13 66 22q17 7 27 13v-94z" />
    <glyph glyph-name="uni24D1" unicode="&#x24d1;" 
d="M439 677h-65v-545h65v35q6 -16 33 -31q28 -14 54 -14q74 0 116 55q41 55 41 153q0 85 -40 140q-40 56 -100 56q-37 0 -67 -17q-27 -15 -37 -35v203zM439 272v101q0 30 24 61q28 36 67 36q43 0 64 -29q23 -32 23 -111q0 -98 -27 -130q-19 -22 -66 -22q-34 0 -60 31
q-25 29 -25 63zM506 794q-99 0 -181 -38q-76 -36 -132 -101q-53 -61 -82 -141q-27 -77 -27 -158q0 -178 109 -295q116 -124 313 -124q203 0 323 125q113 116 113 294q0 81 -29 158q-29 80 -83 141q-58 65 -137 101q-85 38 -187 38zM511 771q91 0 169 -36q72 -34 126 -96
q50 -59 78 -134q27 -73 27 -149q0 -166 -105 -277q-112 -119 -295 -119q-184 0 -293 118q-103 111 -103 278q0 76 26 149q27 75 77 134q53 62 124 96q77 36 169 36z" />
    <glyph glyph-name="uni24D2" unicode="&#x24d2;" 
d="M681 300h-66q-3 -48 -32 -73q-26 -23 -67 -23q-52 0 -80 38q-25 36 -25 99q0 76 24 115q27 41 82 41q39 0 65 -23q27 -24 30 -64h66q-5 56 -51 99q-48 43 -108 43q-78 0 -126 -58q-47 -58 -47 -146q0 -91 50 -147q47 -52 117 -52q74 0 122 50q42 44 46 101zM506 794
q-99 0 -181 -38q-76 -36 -132 -101q-53 -61 -82 -141q-27 -77 -27 -158q0 -178 109 -295q116 -124 313 -124q203 0 323 125q113 116 113 294q0 81 -29 158q-29 80 -83 141q-58 65 -137 101q-85 38 -187 38zM511 771q91 0 169 -36q72 -34 126 -96q50 -59 78 -134
q27 -73 27 -149q0 -166 -105 -277q-112 -119 -295 -119q-184 0 -293 118q-103 111 -103 278q0 76 26 149q27 75 77 134q53 62 124 96q77 36 169 36z" />
    <glyph glyph-name="uni24D3" unicode="&#x24d3;" 
d="M506 794q-99 0 -181 -38q-76 -36 -132 -101q-53 -61 -82 -141q-27 -77 -27 -158q0 -178 109 -295q116 -124 313 -124q203 0 323 125q113 116 113 294q0 81 -29 158q-29 80 -83 141q-58 65 -137 101q-85 38 -187 38zM511 771q91 0 169 -36q72 -34 126 -96q50 -59 78 -134
q27 -73 27 -149q0 -166 -105 -277q-112 -119 -295 -119q-184 0 -293 118q-103 111 -103 278q0 76 26 149q27 75 77 134q53 62 124 96q77 36 169 36zM585 283q0 -34 -26 -64q-26 -31 -59 -31q-48 0 -66 22q-27 32 -27 131q0 78 22 110q21 29 65 29q38 0 66 -36q25 -31 25 -61
v-100zM585 687v-203q-10 20 -37 35q-31 17 -67 17q-61 0 -101 -55q-39 -56 -39 -140q0 -99 41 -154t116 -55q25 0 53 14q27 15 34 32v-35h65v544h-65z" />
    <glyph glyph-name="uni24D4" unicode="&#x24d4;" 
d="M419 354h256q0 91 -39 146q-41 60 -117 60q-82 0 -126 -63q-39 -55 -39 -139q0 -77 40 -132q47 -64 127 -64q64 0 107 44q43 42 48 106h-65q-4 -43 -27 -68q-24 -26 -63 -26q-45 0 -72 32q-31 36 -30 104zM604 410h-184q6 53 35 76q23 18 64 18q37 0 58 -20
q24 -24 27 -74zM506 794q-99 0 -181 -38q-76 -36 -132 -101q-53 -61 -82 -141q-27 -77 -27 -158q0 -178 109 -295q116 -124 313 -124q203 0 323 125q113 116 113 294q0 81 -29 158q-29 80 -83 141q-58 65 -137 101q-85 38 -187 38zM511 771q91 0 169 -36q72 -34 126 -96
q50 -59 78 -134q27 -73 27 -149q0 -166 -105 -277q-112 -119 -295 -119q-184 0 -293 118q-103 111 -103 278q0 76 26 149q27 75 77 134q53 62 124 96q77 36 169 36z" />
    <glyph glyph-name="uni24D5" unicode="&#x24d5;" 
d="M409 469v-55h59v-333h65v333h78v55h-78v62q0 36 18 48t69 12v55q-75 0 -115 -29q-37 -26 -37 -70v-78h-59zM506 794q-99 0 -181 -38q-76 -36 -132 -101q-53 -61 -82 -141q-27 -77 -27 -158q0 -178 109 -295q116 -124 313 -124q203 0 323 125q113 116 113 294
q0 81 -29 158q-29 80 -83 141q-58 65 -137 101q-85 38 -187 38zM511 771q91 0 169 -36q72 -34 126 -96q50 -59 78 -134q27 -73 27 -149q0 -166 -105 -277q-112 -119 -295 -119q-184 0 -293 118q-103 111 -103 278q0 76 26 149q27 75 77 134q53 62 124 96q77 36 169 36z" />
    <glyph glyph-name="uni24D6" unicode="&#x24d6;" 
d="M689 597h-66v-30q-5 16 -32 28q-30 14 -70 14q-76 0 -127 -52q-48 -50 -48 -120q0 -79 44 -126q45 -49 126 -49q36 0 65 11q24 9 42 26q0 -98 -20 -133q-21 -40 -85 -40q-50 0 -71 16q-24 18 -30 69h-65q10 -74 53 -108q39 -32 111 -32q101 0 143 76q30 53 30 148v302z
M412 437q0 54 23 83q28 34 86 34q57 0 81 -32q21 -28 21 -85q0 -68 -34 -97q-25 -22 -73 -22q-55 0 -79 27q-25 27 -25 92zM511 771q91 0 169 -36q72 -34 126 -96q50 -59 78 -134q27 -73 27 -149q0 -166 -105 -277q-112 -119 -295 -119q-184 0 -293 118q-103 111 -103 278
q0 76 26 149q27 75 77 134q53 62 124 96q77 36 169 36zM506 794q-99 0 -181 -38q-76 -36 -132 -101q-53 -61 -82 -141q-27 -77 -27 -158q0 -178 109 -295q116 -124 313 -124q203 0 323 125q113 116 113 294q0 81 -29 158q-29 80 -83 141q-58 65 -137 101q-85 38 -187 38z
" />
    <glyph glyph-name="uni24D7" unicode="&#x24d7;" 
d="M375 672v-558h65v267q22 38 51 58q27 19 53 18q25 -1 40 -23q17 -23 17 -64v-256h66v269q0 57 -28 92q-24 30 -65 39q-37 8 -75 -5q-38 -14 -59 -43v206h-65zM506 794q-99 0 -181 -38q-76 -36 -132 -101q-53 -61 -82 -141q-27 -77 -27 -158q0 -178 109 -295
q116 -124 313 -124q203 0 323 125q113 116 113 294q0 81 -29 158q-29 80 -83 141q-58 65 -137 101q-85 38 -187 38zM511 771q91 0 169 -36q72 -34 126 -96q50 -59 78 -134q27 -73 27 -149q0 -166 -105 -277q-112 -119 -295 -119q-184 0 -293 118q-103 111 -103 278
q0 76 26 149q27 75 77 134q53 62 124 96q77 36 169 36z" />
    <glyph glyph-name="uni24D8" unicode="&#x24d8;" 
d="M480 468v-387h65v387h-65zM506 794q-99 0 -181 -38q-76 -36 -132 -101q-53 -61 -82 -141q-27 -77 -27 -158q0 -178 109 -295q116 -124 313 -124q203 0 323 125q113 116 113 294q0 81 -29 158q-29 80 -83 141q-58 65 -137 101q-85 38 -187 38zM511 771q91 0 169 -36
q72 -34 126 -96q50 -59 78 -134q27 -73 27 -149q0 -166 -105 -277q-112 -119 -295 -119q-184 0 -293 118q-103 111 -103 278q0 76 26 149q27 75 77 134q53 62 124 96q77 36 169 36zM481 644v-55h66v55h-66z" />
    <glyph glyph-name="uni24D9" unicode="&#x24d9;" 
d="M481 733v-55h66v55h-66zM481 552v-438q0 -33 -17 -44q-12 -8 -49 -8v-56q83 0 112 32q20 22 20 73v441h-66zM506 794q-99 0 -181 -38q-76 -36 -132 -101q-53 -61 -82 -141q-27 -77 -27 -158q0 -178 109 -295q116 -124 313 -124q203 0 323 125q113 116 113 294
q0 81 -29 158q-29 80 -83 141q-58 65 -137 101q-85 38 -187 38zM511 771q91 0 169 -36q72 -34 126 -96q50 -59 78 -134q27 -73 27 -149q0 -166 -105 -277q-112 -119 -295 -119q-184 0 -293 118q-103 111 -103 278q0 76 26 149q27 75 77 134q53 62 124 96q77 36 169 36z" />
    <glyph glyph-name="uni24DA" unicode="&#x24da;" 
d="M406 663v-556h66v158l39 40l143 -197h65l-168 234l150 151h-68l-161 -156v326h-66zM506 794q-99 0 -181 -38q-76 -36 -132 -101q-53 -61 -82 -141q-27 -77 -27 -158q0 -178 109 -295q116 -124 313 -124q203 0 323 125q113 116 113 294q0 81 -29 158q-29 80 -83 141
q-58 65 -137 101q-85 38 -187 38zM511 771q91 0 169 -36q72 -34 126 -96q50 -59 78 -134q27 -73 27 -149q0 -166 -105 -277q-112 -119 -295 -119q-184 0 -293 118q-103 111 -103 278q0 76 26 149q27 75 77 134q53 62 124 96q77 36 169 36z" />
    <glyph glyph-name="uni24DB" unicode="&#x24db;" 
d="M506 794q-99 0 -181 -38q-76 -36 -132 -101q-53 -61 -82 -141q-27 -77 -27 -158q0 -178 109 -295q116 -124 313 -124q203 0 323 125q113 116 113 294q0 81 -29 158q-29 80 -83 141q-58 65 -137 101q-85 38 -187 38zM511 771q91 0 169 -36q72 -34 126 -96q50 -59 78 -134
q27 -73 27 -149q0 -166 -105 -277q-112 -119 -295 -119q-184 0 -293 118q-103 111 -103 278q0 76 26 149q27 75 77 134q53 62 124 96q77 36 169 36zM480 664v-568h65v568h-65z" />
    <glyph glyph-name="uni24DC" unicode="&#x24dc;" 
d="M286 563v-385h66v288q17 26 40 40q22 13 44 13q20 0 34 -11t14 -29v-301h66v283q17 27 41 42q23 15 45 16t36 -13q15 -15 15 -45v-283h65v290q0 45 -26 73q-22 25 -59 31q-35 5 -69 -8q-35 -14 -54 -44q-28 52 -91 54q-63 3 -102 -47v36h-65zM506 794q-99 0 -181 -38
q-76 -36 -132 -101q-53 -61 -82 -141q-27 -77 -27 -158q0 -178 109 -295q116 -124 313 -124q203 0 323 125q113 116 113 294q0 81 -29 158q-29 80 -83 141q-58 65 -137 101q-85 38 -187 38zM511 771q91 0 169 -36q72 -34 126 -96q50 -59 78 -134q27 -73 27 -149
q0 -166 -105 -277q-112 -119 -295 -119q-184 0 -293 118q-103 111 -103 278q0 76 26 149q27 75 77 134q53 62 124 96q77 36 169 36z" />
    <glyph glyph-name="uni24DD" unicode="&#x24dd;" 
d="M429 564h-65v-387h65v281q15 31 44 47q26 15 56 14q29 -1 48 -16q21 -17 21 -46v-280h66v287q0 48 -29 77q-26 26 -68 33q-40 7 -79 -5t-59 -38v33zM506 794q-99 0 -181 -38q-76 -36 -132 -101q-53 -61 -82 -141q-27 -77 -27 -158q0 -178 109 -295q116 -124 313 -124
q203 0 323 125q113 116 113 294q0 81 -29 158q-29 80 -83 141q-58 65 -137 101q-85 38 -187 38zM511 771q91 0 169 -36q72 -34 126 -96q50 -59 78 -134q27 -73 27 -149q0 -166 -105 -277q-112 -119 -295 -119q-184 0 -293 118q-103 111 -103 278q0 76 26 149q27 75 77 134
q53 62 124 96q77 36 169 36z" />
    <glyph glyph-name="uni24DE" unicode="&#x24de;" 
d="M515 223q-53 0 -77 43q-19 36 -19 102q0 68 19 103q24 43 77 43q48 0 70 -43q19 -36 19 -103q0 -66 -19 -102q-22 -43 -70 -43zM515 569q-78 0 -122 -62q-40 -56 -40 -139q0 -82 40 -138q44 -63 122 -63q72 0 115 63q40 57 40 138q0 82 -40 139q-43 62 -115 62zM506 794
q-99 0 -181 -38q-76 -36 -132 -101q-53 -61 -82 -141q-27 -77 -27 -158q0 -178 109 -295q116 -124 313 -124q203 0 323 125q113 116 113 294q0 81 -29 158q-29 80 -83 141q-58 65 -137 101q-85 38 -187 38zM511 771q91 0 169 -36q72 -34 126 -96q50 -59 78 -134
q27 -73 27 -149q0 -166 -105 -277q-112 -119 -295 -119q-184 0 -293 118q-103 111 -103 278q0 76 26 149q27 75 77 134q53 62 124 96q77 36 169 36z" />
    <glyph glyph-name="uni24DF" unicode="&#x24df;" 
d="M381 625v-556h66v190q12 -12 40 -21q29 -9 59 -9q62 0 104 57q45 58 45 148q0 94 -49 151q-44 51 -107 51q-29 0 -55 -13q-25 -12 -38 -32v34h-65zM542 284q-33 0 -52 9q-25 10 -43 36v186q8 28 34 47q25 19 55 19q46 0 70 -37q24 -36 24 -108q0 -86 -27 -122
q-21 -30 -61 -30zM506 794q-99 0 -181 -38q-76 -36 -132 -101q-53 -61 -82 -141q-27 -77 -27 -158q0 -178 109 -295q116 -124 313 -124q203 0 323 125q113 116 113 294q0 81 -29 158q-29 80 -83 141q-58 65 -137 101q-85 38 -187 38zM511 771q91 0 169 -36q72 -34 126 -96
q50 -59 78 -134q27 -73 27 -149q0 -166 -105 -277q-112 -119 -295 -119q-184 0 -293 118q-103 111 -103 278q0 76 26 149q27 75 77 134q53 62 124 96q77 36 169 36z" />
    <glyph glyph-name="uni24E0" unicode="&#x24e0;" 
d="M518 794q-103 0 -188 -38q-79 -36 -137 -101q-54 -61 -83 -141q-28 -77 -28 -158q0 -178 112 -294q120 -125 324 -125q196 0 313 124q109 117 109 295q0 81 -28 158q-29 80 -81 141q-57 65 -133 101q-82 38 -180 38zM513 771q91 0 168 -36q71 -34 124 -96q50 -59 77 -134
q27 -73 27 -149q0 -167 -104 -278q-109 -118 -292 -118q-184 0 -296 119q-104 111 -104 277q0 76 26 149q28 75 78 134q54 62 126 96q78 36 170 36zM482 284q-41 0 -62 30q-26 36 -26 122q0 72 23 108q25 37 74 37q27 0 52 -19t34 -47v-186q-19 -26 -43 -36q-20 -9 -52 -9z
M643 625h-65v-34q-14 20 -38 32q-26 13 -53 13q-65 0 -110 -51q-48 -57 -48 -151q0 -90 44 -148q42 -57 105 -57q29 0 58 9q28 9 41 21v-190h66v556z" />
    <glyph glyph-name="uni24E1" unicode="&#x24e1;" 
d="M439 559v-387h65v256q8 35 47 59q38 23 86 23v55q-47 0 -86 -20q-27 -13 -47 -35v49h-65zM506 794q-99 0 -181 -38q-76 -36 -132 -101q-53 -61 -82 -141q-27 -77 -27 -158q0 -178 109 -295q116 -124 313 -124q203 0 323 125q113 116 113 294q0 81 -29 158q-29 80 -83 141
q-58 65 -137 101q-85 38 -187 38zM511 771q91 0 169 -36q72 -34 126 -96q50 -59 78 -134q27 -73 27 -149q0 -166 -105 -277q-112 -119 -295 -119q-184 0 -293 118q-103 111 -103 278q0 76 26 149q27 75 77 134q53 62 124 96q77 36 169 36z" />
    <glyph glyph-name="uni24E2" unicode="&#x24e2;" 
d="M594 451l65 1q-1 46 -42 80q-45 36 -112 36q-72 0 -111 -36q-30 -29 -30 -68q0 -57 44 -86q27 -17 94 -32q52 -12 71 -22q31 -16 31 -47q0 -37 -28 -51q-20 -12 -63 -12q-39 0 -64 14q-31 17 -40 51l-66 -2q14 -60 66 -91q44 -27 100 -27q70 0 111 24q51 29 51 94
q0 54 -47 83q-27 17 -96 34q-51 13 -69 23q-30 16 -30 42t16 38q17 13 56 13q41 0 65 -15q23 -15 28 -44zM506 794q-99 0 -181 -38q-76 -36 -132 -101q-53 -61 -82 -141q-27 -77 -27 -158q0 -178 109 -295q116 -124 313 -124q203 0 323 125q113 116 113 294q0 81 -29 158
q-29 80 -83 141q-58 65 -137 101q-85 38 -187 38zM511 771q91 0 169 -36q72 -34 126 -96q50 -59 78 -134q27 -73 27 -149q0 -166 -105 -277q-112 -119 -295 -119q-184 0 -293 118q-103 111 -103 278q0 76 26 149q27 75 77 134q53 62 124 96q77 36 169 36z" />
    <glyph glyph-name="uni24E3" unicode="&#x24e3;" 
d="M404 537v-56h64v-272q0 -65 47 -79q40 -11 104 13l-16 57q-33 -14 -51 -9q-19 5 -19 32v258h70v56h-70v93h-65v-93h-64zM506 794q-99 0 -181 -38q-76 -36 -132 -101q-53 -61 -82 -141q-27 -77 -27 -158q0 -178 109 -295q116 -124 313 -124q203 0 323 125q113 116 113 294
q0 81 -29 158q-29 80 -83 141q-58 65 -137 101q-85 38 -187 38zM511 771q91 0 169 -36q72 -34 126 -96q50 -59 78 -134q27 -73 27 -149q0 -166 -105 -277q-112 -119 -295 -119q-184 0 -293 118q-103 111 -103 278q0 76 26 149q27 75 77 134q53 62 124 96q77 36 169 36z" />
    <glyph glyph-name="uni24E4" unicode="&#x24e4;" 
d="M434 566h-65v-273q0 -56 30 -89q27 -29 71 -36q40 -7 79 5q39 11 56 34v-24h66v383h-66v-294q-15 -23 -44 -37q-28 -13 -57 -13q-31 0 -49 16q-21 17 -21 49v279zM506 794q-99 0 -181 -38q-76 -36 -132 -101q-53 -61 -82 -141q-27 -77 -27 -158q0 -178 109 -295
q116 -124 313 -124q203 0 323 125q113 116 113 294q0 81 -29 158q-29 80 -83 141q-58 65 -137 101q-85 38 -187 38zM511 771q91 0 169 -36q72 -34 126 -96q50 -59 78 -134q27 -73 27 -149q0 -166 -105 -277q-112 -119 -295 -119q-184 0 -293 118q-103 111 -103 278
q0 76 26 149q27 75 77 134q53 62 124 96q77 36 169 36z" />
    <glyph glyph-name="uni24E5" unicode="&#x24e5;" 
d="M409 563h-64l133 -384h66l129 384h-65l-95 -309zM506 794q-99 0 -181 -38q-76 -36 -132 -101q-53 -61 -82 -141q-27 -77 -27 -158q0 -178 109 -295q116 -124 313 -124q203 0 323 125q113 116 113 294q0 81 -29 158q-29 80 -83 141q-58 65 -137 101q-85 38 -187 38z
M511 771q91 0 169 -36q72 -34 126 -96q50 -59 78 -134q27 -73 27 -149q0 -166 -105 -277q-112 -119 -295 -119q-184 0 -293 118q-103 111 -103 278q0 76 26 149q27 75 77 134q53 62 124 96q77 36 169 36z" />
    <glyph glyph-name="uni24E6" unicode="&#x24e6;" 
d="M318 556h-67l113 -380h65l86 285l87 -285h66l102 382h-66l-68 -297l-89 297h-66l-83 -298zM506 794q-99 0 -181 -38q-76 -36 -132 -101q-53 -61 -82 -141q-27 -77 -27 -158q0 -178 109 -295q116 -124 313 -124q203 0 323 125q113 116 113 294q0 81 -29 158
q-29 80 -83 141q-58 65 -137 101q-85 38 -187 38zM511 771q91 0 169 -36q72 -34 126 -96q50 -59 78 -134q27 -73 27 -149q0 -166 -105 -277q-112 -119 -295 -119q-184 0 -293 118q-103 111 -103 278q0 76 26 149q27 75 77 134q53 62 124 96q77 36 169 36z" />
    <glyph glyph-name="uni24E7" unicode="&#x24e7;" 
d="M672 564h-64l-96 -142l-96 143h-65l131 -192l-131 -193h65l96 146l99 -147h66l-136 196zM506 794q-99 0 -181 -38q-76 -36 -132 -101q-53 -61 -82 -141q-27 -77 -27 -158q0 -178 109 -295q116 -124 313 -124q203 0 323 125q113 116 113 294q0 81 -29 158q-29 80 -83 141
q-58 65 -137 101q-85 38 -187 38zM511 771q91 0 169 -36q72 -34 126 -96q50 -59 78 -134q27 -73 27 -149q0 -166 -105 -277q-112 -119 -295 -119q-184 0 -293 118q-103 111 -103 278q0 76 26 149q27 75 77 134q53 62 124 96q77 36 169 36z" />
    <glyph glyph-name="uni24E8" unicode="&#x24e8;" 
d="M416 639h-64l144 -383l-26 -80q-13 -34 -31 -42q-12 -5 -49 -2h-8v-55q59 -7 89 8q28 15 44 59l165 495h-66l-90 -295zM506 794q-99 0 -181 -38q-76 -36 -132 -101q-53 -61 -82 -141q-27 -77 -27 -158q0 -178 109 -295q116 -124 313 -124q203 0 323 125q113 116 113 294
q0 81 -29 158q-29 80 -83 141q-58 65 -137 101q-85 38 -187 38zM511 771q91 0 169 -36q72 -34 126 -96q50 -59 78 -134q27 -73 27 -149q0 -166 -105 -277q-112 -119 -295 -119q-184 0 -293 118q-103 111 -103 278q0 76 26 149q27 75 77 134q53 62 124 96q77 36 169 36z" />
    <glyph glyph-name="uni24E9" unicode="&#x24e9;" 
d="M364 564v-55h234l-237 -292v-40h313v56h-229l225 277v54h-306zM506 794q-99 0 -181 -38q-76 -36 -132 -101q-53 -61 -82 -141q-27 -77 -27 -158q0 -178 109 -295q116 -124 313 -124q203 0 323 125q113 116 113 294q0 81 -29 158q-29 80 -83 141q-58 65 -137 101
q-85 38 -187 38zM511 771q91 0 169 -36q72 -34 126 -96q50 -59 78 -134q27 -73 27 -149q0 -166 -105 -277q-112 -119 -295 -119q-184 0 -293 118q-103 111 -103 278q0 76 26 149q27 75 77 134q53 62 124 96q77 36 169 36z" />
    <glyph glyph-name="SF100000" unicode="&#x2500;" 
d="M0 386v-38h1024v38h-1024z" />
    <glyph glyph-name="uni2501" unicode="&#x2501;" 
d="M0 405v-75h1024v75h-1024z" />
    <glyph glyph-name="SF110000" unicode="&#x2502;" 
d="M493 879v-1024h38v1024h-38z" />
    <glyph glyph-name="uni2503" unicode="&#x2503;" 
d="M474 879v-1024h75v1024h-75z" />
    <glyph glyph-name="SF010000" unicode="&#x250c;" 
d="M493 386v-531h38v493h493v38h-531z" />
    <glyph glyph-name="uni250D" unicode="&#x250d;" 
d="M493 405v-550h38v475h493v75h-531z" />
    <glyph glyph-name="uni250E" unicode="&#x250e;" 
d="M549 348h475v38h-550v-531h75v493z" />
    <glyph glyph-name="uni250F" unicode="&#x250f;" 
d="M474 405v-550h75v475h475v75h-550z" />
    <glyph glyph-name="SF030000" unicode="&#x2510;" 
d="M0 348h493v-493h38v531h-531v-38z" />
    <glyph glyph-name="uni2511" unicode="&#x2511;" 
d="M493 330v-475h38v550h-531v-75h493z" />
    <glyph glyph-name="uni2512" unicode="&#x2512;" 
d="M474 348v-493h75v531h-549v-38h474z" />
    <glyph glyph-name="uni2513" unicode="&#x2513;" 
d="M0 405v-75h474v-475h75v550h-549z" />
    <glyph glyph-name="SF020000" unicode="&#x2514;" 
d="M493 879v-531h531v38h-493v493h-38z" />
    <glyph glyph-name="uni2515" unicode="&#x2515;" 
d="M531 405v474h-38v-549h531v75h-493z" />
    <glyph glyph-name="uni2516" unicode="&#x2516;" 
d="M549 386v493h-75v-531h550v38h-475z" />
    <glyph glyph-name="uni2517" unicode="&#x2517;" 
d="M474 879v-549h550v75h-475v474h-75z" />
    <glyph glyph-name="SF040000" unicode="&#x2518;" 
d="M493 879v-493h-493v-38h531v531h-38z" />
    <glyph glyph-name="uni2519" unicode="&#x2519;" 
d="M493 405h-493v-75h531v549h-38v-474z" />
    <glyph glyph-name="uni251A" unicode="&#x251a;" 
d="M474 386h-474v-38h549v531h-75v-493z" />
    <glyph glyph-name="uni251B" unicode="&#x251b;" 
d="M474 879v-474h-474v-75h549v549h-75z" />
    <glyph glyph-name="SF080000" unicode="&#x251c;" 
d="M493 879v-1024h38v493h493v38h-493v493h-38z" />
    <glyph glyph-name="uni251D" unicode="&#x251d;" 
d="M1024 405h-493v474h-38v-1024h38v475h493v75z" />
    <glyph glyph-name="uni251E" unicode="&#x251e;" 
d="M474 879v-531h19v-493h38v493h493v38h-475v493h-75z" />
    <glyph glyph-name="uni251F" unicode="&#x251f;" 
d="M493 879v-493h-19v-531h75v493h475v38h-493v493h-38z" />
    <glyph glyph-name="uni2520" unicode="&#x2520;" 
d="M1024 386h-475v493h-75v-1024h75v493h475v38z" />
    <glyph glyph-name="uni2521" unicode="&#x2521;" 
d="M493 -145h38v475h493v75h-475v474h-75v-549h19v-475z" />
    <glyph glyph-name="uni2522" unicode="&#x2522;" 
d="M474 -145h75v475h475v75h-493v474h-38v-474h-19v-550z" />
    <glyph glyph-name="uni2523" unicode="&#x2523;" 
d="M474 879v-1024h75v475h475v75h-475v474h-75z" />
    <glyph glyph-name="SF090000" unicode="&#x2524;" 
d="M531 879h-38v-493h-493v-38h493v-493h38v1024z" />
    <glyph glyph-name="uni2525" unicode="&#x2525;" 
d="M493 405h-493v-75h493v-475h38v1024h-38v-474z" />
    <glyph glyph-name="uni2526" unicode="&#x2526;" 
d="M474 879v-493h-474v-38h493v-493h38v493h18v531h-75z" />
    <glyph glyph-name="uni2527" unicode="&#x2527;" 
d="M0 386v-38h474v-493h75v531h-18v493h-38v-493h-493z" />
    <glyph glyph-name="uni2528" unicode="&#x2528;" 
d="M549 -145v1024h-75v-493h-474v-38h474v-493h75z" />
    <glyph glyph-name="uni2529" unicode="&#x2529;" 
d="M0 330h493v-475h38v475h18v549h-75v-474h-474v-75z" />
    <glyph glyph-name="uni252A" unicode="&#x252a;" 
d="M0 330h474v-475h75v550h-18v474h-38v-474h-493v-75z" />
    <glyph glyph-name="uni252B" unicode="&#x252b;" 
d="M0 330h474v-475h75v1024h-75v-474h-474v-75z" />
    <glyph glyph-name="SF060000" unicode="&#x252c;" 
d="M0 386v-38h493v-493h38v493h493v38h-1024z" />
    <glyph glyph-name="uni252D" unicode="&#x252d;" 
d="M0 330h493v-475h38v493h493v38h-493v19h-531v-75z" />
    <glyph glyph-name="uni252E" unicode="&#x252e;" 
d="M0 348h493v-493h38v475h493v75h-531v-19h-493v-38z" />
    <glyph glyph-name="uni252F" unicode="&#x252f;" 
d="M1024 405h-1024v-75h493v-475h38v475h493v75z" />
    <glyph glyph-name="uni2530" unicode="&#x2530;" 
d="M1024 386h-1024v-38h474v-493h75v493h475v38z" />
    <glyph glyph-name="uni2531" unicode="&#x2531;" 
d="M0 330h474v-475h75v493h475v38h-475v19h-549v-75z" />
    <glyph glyph-name="uni2532" unicode="&#x2532;" 
d="M0 348h474v-493h75v475h475v75h-550v-19h-474v-38z" />
    <glyph glyph-name="uni2533" unicode="&#x2533;" 
d="M0 330h474v-475h75v475h475v75h-1024v-75z" />
    <glyph glyph-name="SF070000" unicode="&#x2534;" 
d="M493 879v-493h-493v-38h1024v38h-493v493h-38z" />
    <glyph glyph-name="uni2535" unicode="&#x2535;" 
d="M0 330h531v18h493v38h-493v493h-38v-474h-493v-75z" />
    <glyph glyph-name="uni2536" unicode="&#x2536;" 
d="M0 348h493v-18h531v75h-493v474h-38v-493h-493v-38z" />
    <glyph glyph-name="uni2537" unicode="&#x2537;" 
d="M493 405h-493v-75h1024v75h-493v474h-38v-474z" />
    <glyph glyph-name="uni2538" unicode="&#x2538;" 
d="M474 386h-474v-38h1024v38h-475v493h-75v-493z" />
    <glyph glyph-name="uni2539" unicode="&#x2539;" 
d="M0 330h549v18h475v38h-475v493h-75v-474h-474v-75z" />
    <glyph glyph-name="uni253A" unicode="&#x253a;" 
d="M0 348h474v-18h550v75h-475v474h-75v-493h-474v-38z" />
    <glyph glyph-name="uni253B" unicode="&#x253b;" 
d="M474 405h-474v-75h1024v75h-475v474h-75v-474z" />
    <glyph glyph-name="SF050000" unicode="&#x253c;" 
d="M493 879v-493h-493v-38h493v-493h38v493h493v38h-493v493h-38z" />
    <glyph glyph-name="uni253D" unicode="&#x253d;" 
d="M0 330h493v-475h38v493h493v38h-493v493h-38v-474h-493v-75z" />
    <glyph glyph-name="uni253E" unicode="&#x253e;" 
d="M531 879h-38v-493h-493v-38h493v-493h38v475h493v75h-493v474z" />
    <glyph glyph-name="uni253F" unicode="&#x253f;" 
d="M493 405h-493v-75h493v-475h38v475h493v75h-493v474h-38v-474z" />
    <glyph glyph-name="uni2540" unicode="&#x2540;" 
d="M549 879h-75v-493h-474v-38h493v-493h38v493h493v38h-475v493z" />
    <glyph glyph-name="uni2541" unicode="&#x2541;" 
d="M531 879h-38v-493h-493v-38h474v-493h75v493h475v38h-493v493z" />
    <glyph glyph-name="uni2542" unicode="&#x2542;" 
d="M474 386h-474v-38h474v-493h75v493h475v38h-475v493h-75v-493z" />
    <glyph glyph-name="uni2543" unicode="&#x2543;" 
d="M549 879h-75v-474h-474v-75h493v-475h38v475h18v18h475v38h-475v493z" />
    <glyph glyph-name="uni2544" unicode="&#x2544;" 
d="M531 -145v475h493v75h-475v474h-75v-493h-474v-38h474v-18h19v-475h38z" />
    <glyph glyph-name="uni2545" unicode="&#x2545;" 
d="M531 879h-38v-474h-493v-75h474v-475h75v493h475v38h-475v19h-18v474z" />
    <glyph glyph-name="uni2546" unicode="&#x2546;" 
d="M531 879h-38v-474h-19v-19h-474v-38h474v-493h75v475h475v75h-493v474z" />
    <glyph glyph-name="uni2547" unicode="&#x2547;" 
d="M549 879h-75v-474h-474v-75h493v-475h38v475h493v75h-475v474z" />
    <glyph glyph-name="uni2548" unicode="&#x2548;" 
d="M531 879h-38v-474h-493v-75h474v-475h75v475h475v75h-493v474z" />
    <glyph glyph-name="uni2549" unicode="&#x2549;" 
d="M549 879h-75v-474h-474v-75h474v-475h75v493h475v38h-475v493z" />
    <glyph glyph-name="uni254A" unicode="&#x254a;" 
d="M549 879h-75v-493h-474v-38h474v-493h75v475h475v75h-475v474z" />
    <glyph glyph-name="uni254B" unicode="&#x254b;" 
d="M474 405h-474v-75h474v-475h75v475h475v75h-475v474h-75v-474z" />
    <glyph glyph-name="shade" unicode="&#x2592;" 
d="M875 732v-729h-729v729h729zM114 761v-785h795v785h-795zM336 102q-12 0 -18 -8q-6 -7 -6 -17q0 -9 6 -16q6 -8 18 -8q11 0 18 8q7 7 7 16q0 10 -7 17q-7 8 -18 8zM514 100q-12 0 -19 -8q-5 -6 -5 -17q0 -9 5 -16q7 -8 19 -8q11 0 18 8q6 7 6 16q0 10 -6 17q-7 8 -18 8z
M679 100q-12 0 -18 -8q-6 -7 -6 -17q0 -9 6 -16q6 -8 18 -8q11 0 18 8q7 7 7 16q0 10 -7 17q-7 8 -18 8zM187 102q-12 0 -18 -8q-6 -7 -6 -17q0 -9 6 -16q6 -8 18 -8q11 0 18 8q7 7 7 16q0 10 -7 17q-7 8 -18 8zM242 306q-12 0 -18 -8q-6 -7 -6 -17q0 -9 6 -16q6 -8 18 -8
q11 0 18 8q7 7 7 16q0 10 -7 17q-7 8 -18 8zM421 306q-12 0 -19 -8q-5 -6 -5 -17q0 -9 5 -16q7 -8 19 -8q11 0 18 8q6 7 6 16q0 10 -6 17q-7 8 -18 8zM609 304q-12 0 -18 -8q-6 -7 -6 -17q0 -9 6 -16q6 -8 18 -8q11 0 18 8q7 7 7 16q0 10 -7 17q-7 8 -18 8zM836 101
q-12 0 -18 -8q-6 -7 -6 -17q0 -9 6 -16q6 -8 18 -8q11 0 18 8q7 7 7 16q0 10 -7 17q-7 8 -18 8zM242 696q-12 0 -18 -8q-6 -7 -6 -17q0 -9 6 -16q6 -8 18 -8t18 8q7 7 7 16q0 10 -7 17q-7 8 -18 8zM420 696q-12 0 -18 -8q-6 -7 -6 -17q0 -9 6 -16q6 -8 18 -8q11 0 18 8
q7 7 7 16q0 10 -7 17q-7 8 -18 8zM609 694q-12 0 -18 -8q-6 -7 -6 -17q0 -9 6 -16q6 -8 18 -8q11 0 18 8q7 7 7 16q0 10 -7 17q-7 8 -18 8zM800 694q-12 0 -19 -8q-5 -6 -5 -17q0 -9 5 -16q7 -8 19 -8q11 0 18 8q6 7 6 16q0 10 -6 17q-7 8 -18 8zM187 511q-12 0 -18 -8
q-6 -7 -6 -17q0 -9 6 -15q6 -8 18 -8q11 0 18 8q7 7 7 15q0 10 -7 17q-7 8 -18 8zM336 511q-12 0 -18 -8q-6 -7 -6 -17q0 -9 6 -15q6 -8 18 -8q11 0 18 8q7 7 7 15q0 10 -7 17q-7 8 -18 8zM514 510q-12 0 -19 -8q-5 -6 -5 -17q0 -9 5 -16q7 -8 19 -8q11 0 18 8q6 7 6 16
q0 10 -6 17q-7 8 -18 8zM679 510q-12 0 -18 -8q-6 -7 -6 -17q0 -9 6 -16q6 -8 18 -8q11 0 18 8q7 7 7 16q0 10 -7 17q-7 8 -18 8zM836 510q-12 0 -18 -7t-6 -17q0 -9 6 -16q6 -8 18 -8q11 0 18 8q7 7 7 16q0 10 -7 17t-18 7zM794 306q-11 0 -18 -7q-5 -7 -5 -17q0 -9 5 -16
q7 -8 18 -8t18 8q6 7 6 16q0 10 -6 17q-7 7 -18 7z" />
    <glyph glyph-name="filledbox" unicode="&#x25a0;" 
d="M969 830h-917v-914h917v914z" />
    <glyph glyph-name="H22073" unicode="&#x25a1;" 
d="M969 830v0h-917v-914h917v914zM87 -49v0v844h847v-844h-847z" />
    <glyph glyph-name="uni25A3" unicode="&#x25a3;" 
d="M114 756v-785h795v785h-795zM874 725v-724h-727v724h727zM302 573v-420h417v420h-417z" />
    <glyph glyph-name="uni25A4" unicode="&#x25a4;" 
d="M114 762v-786h794v786h-794zM875 733v-152h-729v152h729zM146 3v157h729v-157h-729zM875 555v-166h-729v166h729zM875 186h-729v177h729v-177z" />
    <glyph glyph-name="uni25A5" unicode="&#x25a5;" 
d="M114 762v-786h794v786h-794zM875 733v-730h-158v730h158zM146 734h162v-731h-162v731zM530 733h154v-730h-154v730zM498 3h-158v731h158v-731z" />
    <glyph glyph-name="uni25A6" unicode="&#x25a6;" 
d="M114 762v-786h795v786h-795zM875 733v-166h-158v166h158zM146 733h161v-166h-161v166zM146 3v158h161v-158h-161zM875 3h-157v158h157v-158zM339 733h158v-166h-158v166zM530 733h156v-166h-156v166zM875 539v-165h-157v165h157zM875 347v-157h-157v157h157zM497 375
h-158v163h158v-163zM146 375v163h161v-163h-161zM497 190h-158v156h158v-156zM307 190h-161v156h161v-156zM497 3h-158v158h158v-158zM686 539v-165h-156v165h156zM686 346v-156h-156v156h156zM686 161v-158h-156v158h156z" />
    <glyph glyph-name="uni25A7" unicode="&#x25a7;" 
d="M114 762v-786h794v786h-794zM875 733v-344l-344 344h344zM146 3v346l346 -346h-346zM146 714l709 -711h-323l-386 388v323zM875 348v-318l-707 703h321z" />
    <glyph glyph-name="uni25A8" unicode="&#x25a8;" 
d="M114 762v-786h794v786h-794zM146 733h344l-344 -343v343zM875 3h-339l339 338v-338zM856 733l-710 -708v322l386 386h324zM168 3l707 706v-325l-383 -381h-324z" />
    <glyph glyph-name="uni25A9" unicode="&#x25a9;" 
d="M114 762v-786h794v786h-794zM509 28l-161 158l161 158l157 -157zM530 733h325l-162 -162zM146 26v317l2 1l158 -159zM146 705l160 -160l-160 -158v318zM163 3l164 162l162 -162h-326zM875 346v-321l-164 162l161 161zM531 366l163 161l157 -157l-162 -161zM715 549
l159 157v-317zM329 568l-167 165h324l6 -3zM329 523l157 -158l-158 -158l-160 157zM689 165l162 -162h-324zM514 707l157 -157l-162 -162l-158 157z" />
    <glyph glyph-name="triagup" unicode="&#x25b2;" 
d="M509 687l-411 -623h809z" />
    <glyph glyph-name="uni25B3" unicode="&#x25b3;" 
d="M509 687v0l-411 -623h809zM508 626v0l343 -537h-698z" />
    <glyph glyph-name="uni25B6" unicode="&#x25b6;" 
d="M206 -32l623 399l-623 401v-800z" />
    <glyph glyph-name="uni25B7" unicode="&#x25b7;" 
d="M206 -32l623 399l-623 401v-800zM238 714l538 -346l-538 -345v691z" />
    <glyph glyph-name="triagdn" unicode="&#x25bc;" 
d="M917 684h-799l403 -629z" />
    <glyph glyph-name="uni25BD" unicode="&#x25bd;" 
d="M917 684v0h-799l403 -629zM179 656v0h681l-338 -540z" />
    <glyph glyph-name="uni25C0" unicode="&#x25c0;" 
d="M825 -27v798l-628 -401z" />
    <glyph glyph-name="uni25C1" unicode="&#x25c1;" 
d="M825 -27v798l-628 -401zM792 27l-540 342l540 346v-688z" />
    <glyph glyph-name="uni25C6" unicode="&#x25c6;" 
d="M506 838l-460 -462l461 -458l461 459z" />
    <glyph glyph-name="uni25C7" unicode="&#x25c7;" 
d="M506 838l-460 -462l461 -458l461 459zM507 797l419 -420l-419 -415l-419 415z" />
    <glyph glyph-name="uni25C8" unicode="&#x25c8;" 
d="M521 827l-460 -460l460 -458l459 458zM521 784l415 -417l-415 -417l-419 417zM521 677l-314 -310l314 -315l312 315z" />
    <glyph glyph-name="circle" unicode="&#x25cb;" 
d="M514 830v0q-113 0 -204 -39q-84 -36 -145 -104q-57 -63 -87 -147q-28 -80 -28 -169q0 -186 115 -314q129 -144 349 -144q219 0 347 141q116 127 116 317q0 187 -116 316q-129 143 -347 143zM515 804v0q206 0 327 -135q109 -122 109 -299q0 -175 -109 -296
q-121 -135 -327 -135q-207 0 -329 135q-110 121 -110 296q0 176 110 299q122 135 329 135z" />
    <glyph glyph-name="uni25CE" unicode="&#x25ce;" 
d="M514 830v0q-113 0 -204 -39q-84 -36 -145 -104q-57 -63 -87 -147q-28 -80 -28 -169q0 -186 115 -314q129 -144 349 -144q219 0 347 141q116 127 116 317q0 187 -116 316q-129 143 -347 143zM515 804v0q206 0 327 -135q109 -122 109 -299q0 -175 -109 -296
q-121 -135 -327 -135q-207 0 -329 135q-110 121 -110 296q0 176 110 299q122 135 329 135zM516 669v0q-140 0 -222 -91q-74 -83 -74 -203q0 -119 74 -202q82 -92 222 -92q141 0 225 92q75 83 75 202q0 120 -75 203q-84 91 -225 91zM517 643v0q128 0 203 -84q68 -75 68 -184
q0 -108 -68 -183q-75 -84 -203 -84t-202 84q-66 75 -66 183q0 109 66 184q74 84 202 84z" />
    <glyph glyph-name="H18533" unicode="&#x25cf;" 
d="M514 830v0q-113 0 -204 -39q-84 -36 -145 -104q-57 -63 -87 -147q-28 -80 -28 -169q0 -186 115 -314q129 -144 349 -144q111 0 202 40q85 36 145 104q57 63 87 146q30 81 30 168q0 187 -117 316q-129 143 -347 143z" />
    <glyph glyph-name="uni25D0" unicode="&#x25d0;" 
d="M506 780q-190 0 -303 -128q-101 -117 -101 -285q0 -167 101 -284q113 -129 303 -129q203 0 322 129q107 116 107 284t-109 285q-120 128 -320 128zM509 754l5 1q177 0 287 -121q100 -111 100 -267q0 -157 -100 -267q-110 -121 -292 -122v776z" />
    <glyph glyph-name="uni25D1" unicode="&#x25d1;" 
d="M509 755v-778q-169 0 -275 122q-98 112 -98 267q0 156 98 268q106 121 275 121zM511 780q-193 0 -307 -128q-102 -117 -102 -285q0 -167 102 -284q114 -129 307 -129q199 0 317 129q106 116 106 284q0 169 -106 285q-117 128 -317 128z" />
    <glyph glyph-name="uni2605" unicode="&#x2605;" 
d="M605 469l-98 286l-97 -286h-307l244 -183l-97 -301l256 187l263 -196l-103 303l251 190h-312z" />
    <glyph glyph-name="uni2606" unicode="&#x2606;" 
d="M605 469v0l-98 293l-97 -293h-307l244 -183l-97 -301l256 187l263 -196l-103 303l251 190h-312zM175 449v0h256l77 235l77 -235h259l-213 -161l87 -243l-215 160l-207 -157l83 243z" />
    <glyph glyph-name="uni260E" unicode="&#x260e;" 
d="M147 27h669q39 -3 64 21q26 25 10 54q-12 15 -17 33q-3 11 -7 34q-6 39 -15 62q-16 41 -54 83l-4 4q-48 48 -69 83q-36 62 -34 138l2 35q23 4 41 -4q19 -8 24 -26q-1 -10 -5 -20q-2 -6 -6 -16q-5 -10 -7 -15q-3 -10 -3 -21q4 -31 65 -54q54 -20 115 -23q31 -1 44 12
q14 16 14 60q-9 107 -114 159q-110 55 -348 66q-240 -4 -358 -76q-97 -58 -106 -156q-2 -42 14 -60q14 -16 40 -13q82 9 134 31q56 25 52 55q1 11 -3 21q-2 5 -7 14q-5 7 -7 12q-2 7 -1 15q4 23 21 37q17 15 38 12l2 -57q0 -74 -35 -131q-21 -34 -74 -85l-17 -17
q-30 -35 -44 -73q-9 -22 -15 -59q-3 -19 -5 -26q-3 -12 -9 -20q-17 -19 -13 -51q5 -33 28 -38zM633 600v-61q0 -25 -17 -35q-15 -9 -52 -9h-116q-28 1 -42 9q-18 10 -18 32v67q55 -10 102 -12q63 -2 135 9h8zM508 457q94 0 150 -59q50 -53 50 -132q0 -77 -50 -131
q-56 -60 -150 -60q-90 0 -144 60q-47 54 -47 131q0 78 47 132q53 59 144 59z" />
    <glyph glyph-name="uni260F" unicode="&#x260f;" 
d="M147 27h669q39 -3 64 21q26 25 10 54q-12 15 -17 33q-3 11 -7 34q-6 39 -15 62q-16 41 -54 83l-4 4q-48 48 -69 83q-36 62 -34 138l2 35q23 4 41 -4q19 -8 24 -26q-1 -10 -5 -20q-2 -6 -6 -16q-5 -10 -7 -15q-3 -10 -3 -21q4 -31 65 -54q54 -20 115 -23q31 -1 44 12
q14 16 14 60q-9 107 -114 159q-110 55 -348 66q-240 -4 -358 -76q-97 -58 -106 -156q-2 -42 14 -60q14 -16 40 -13q82 9 134 31q56 25 52 55q1 11 -3 21q-2 5 -7 14q-5 7 -7 12q-2 7 -1 15q4 23 21 37q17 15 38 12l2 -57q0 -73 -36 -131q-20 -33 -73 -85l-17 -17
q-30 -35 -44 -73q-9 -22 -15 -59q-3 -19 -5 -26q-3 -12 -9 -20q-17 -19 -13 -51q5 -33 28 -38zM787 50h-598q-29 0 -37 3q-9 4 -8 18t4 24q2 5 7 14q6 11 9 19q5 15 8 38q6 37 23 70q14 27 33 47l21 22q50 50 70 80q34 52 37 114q5 61 1 83q-6 26 -28 23q-31 -2 -55 -20
q-25 -18 -30 -42q0 -13 4 -26q2 -7 9 -21l5 -11q8 -24 -38 -44q-38 -17 -116 -32q-21 -1 -29 13q-7 15 -4 47q16 105 160 159q119 45 275 42q172 -6 279 -44q133 -45 153 -134q7 -45 0 -62q-7 -14 -30 -14q-40 5 -77 14q-44 12 -62 26q-10 9 -9 22q1 9 9 26q12 28 12 41
q-1 23 -29 40q-54 21 -74 13q-17 -7 -18 -43q-2 -73 18 -125q25 -64 93 -128q33 -35 48 -69q9 -21 15 -56q3 -21 6 -31q5 -17 14 -32q20 -37 0 -53q-18 -14 -71 -11zM633 600h-8q-72 -11 -135 -9q-47 2 -102 12v-76q0 -22 18 -32q14 -9 42 -9h116q37 0 52 9q17 10 17 34v71z
M607 578v-46q0 -14 -10 -19q-6 -4 -23 -5l-7 -1h-115q-16 0 -25 5q-13 8 -13 27v41q44 -10 99 -10q53 -1 94 8zM508 463q-95 0 -150 -61q-50 -56 -50 -137q0 -79 50 -134q55 -62 150 -62q94 0 150 62q50 55 50 134q0 81 -50 137q-56 61 -150 61zM509 444q80 0 128 -55
q43 -50 43 -123q0 -71 -44 -121q-48 -56 -130 -56q-83 0 -131 56q-43 50 -42 121q0 73 44 123q49 55 132 55z" />
    <glyph glyph-name="uni261C" unicode="&#x261c;" 
d="M608 565q54 1 95 -12q26 -8 64 -29q34 -19 51 -26q31 -12 67 -17v-216q-33 -2 -58 -10q-15 -4 -41 -15q-35 -15 -61 -22q-45 -13 -112 -19q-29 0 -45 2q-21 3 -23 11q62 38 79 73q16 34 -23 51q12 20 10 35q-3 20 -27 26q-9 1 -12 9q-2 8 8 11q10 4 19 4t17 -4
q20 -48 64 -83q39 -30 82 -38l1 8q-47 12 -82 46q-30 29 -44 64q7 6 6 12q-2 6 -18 2q-17 -3 -40 -1q-14 2 -48 8v0q-12 1 -27 -7q-9 -5 -29 -19q-23 -17 -37 -24q-23 -13 -45 -18q-32 -10 -48 10q-16 19 17 36l16 13q30 24 49 37q32 24 58 40q24 13 61 18q27 4 124 10h3v13
q-123 -7 -168 -19q-31 -8 -63 -34q-13 -10 -21 -15q-13 -10 -27 -19q-7 6 -19 8q-14 2 -41 -1l-227 7q-26 -1 -42 6q-14 6 -17 16q-4 11 4 21q9 10 26 12q189 22 286 30q126 10 238 9zM612 186q63 4 114 18q30 8 74 26q27 12 41 16q22 7 44 8v-32h98v317h-98v-44l-20 2
q-28 10 -52 21q-14 6 -36 19q-41 23 -74 31q-53 12 -156 12q-105 -2 -236 -14q-88 -8 -228 -26q-25 -4 -38 -17t-10 -28q2 -15 18 -25q17 -12 47 -13q56 -3 108 -4q46 -1 94 -1q-23 -10 -33 -27q-10 -15 -6 -33q2 -16 16 -30q15 -15 38 -21q-12 -7 -14 -19q-3 -13 6 -26
q8 -13 27 -22q22 -12 55 -17q-13 -25 13 -43q23 -16 64 -18q19 0 32 2t27 7q19 -11 40 -16q19 -4 45 -3zM967 526v-291h-65v291h65zM356 452q22 3 25 -5q3 -7 -8 -14q-29 -14 -38 -31q-7 -14 0 -27q7 -12 22 -19q15 -6 28 -4q32 4 61 17q17 8 46 29l29 18q16 8 28 -1t2 -19
q-38 -30 -74 -48q-39 -19 -69 -19q-44 4 -82 20q-47 20 -49 47q-3 21 18 37q20 15 52 19h9zM594 362q-19 -38 -65 -64q-46 -25 -107 -32q-33 1 -59 10q-34 12 -44 32q-3 16 4 21t23 0q15 -6 31 -9q15 -3 37 -4q34 4 68 19q36 16 77 48q11 8 23 2q11 -5 12 -15v-8zM612 296
q-14 -31 -50 -57q-40 -29 -81 -31q-31 0 -53 9q-20 8 -25 20q-3 12 2 15q5 4 25 4q45 2 92 24q33 16 63 39q11 9 20 3t9 -17z" />
    <glyph glyph-name="uni261E" unicode="&#x261e;" 
d="M47 535v-318h97v29l36 -3q13 -3 29 -9q10 -3 30 -11q67 -26 110 -33q73 -10 159 11q61 -21 101 -4q38 16 42 57q45 7 65 30t9 58q17 9 29 21q13 12 16 24q2 16 -8 30q-11 16 -36 29l179 2q37 0 61 14q20 11 25 28q3 17 -11 31q-15 15 -42 18q-195 25 -321 34
q-146 10 -251 3q-45 -8 -78 -22q-20 -8 -50 -26q-25 -14 -40 -21q-25 -10 -54 -17v45h-97zM129 522v-292h-66v292h66zM486 207q-77 -13 -142 -2q-38 7 -98 29q-34 13 -50 18q-28 8 -52 7v220q34 5 63 17q17 7 46 25q43 24 72 33q49 15 122 13q150 -3 301 -18q84 -7 194 -22
l7 -1q18 -7 23 -19q5 -11 -3 -23q-9 -12 -27 -18q-20 -8 -46 -7h-274l-52 40q-37 26 -78 33q-29 5 -124 7h-16l5 -9h19q70 -3 97 -7q42 -5 65 -19l133 -98q18 -14 4 -32q-15 -17 -46 -10q-19 3 -40 15q-13 6 -36 23q-20 14 -29 20q-16 8 -28 8l-24 -1q-25 -1 -35 -1
q-16 -1 -31 0q-16 5 -19 0q-4 -5 11 -14q-16 -43 -60 -76q-32 -24 -69 -38l4 -6q45 15 73 34q38 26 60 68l2 7q1 7 5 10q6 4 22 6q15 1 21 -4q7 -4 7 -16q-37 -7 -42 -28q-5 -18 16 -41q-19 -2 -27 -14q-8 -11 -3 -28q5 -18 24 -38q20 -22 55 -43zM688 448q19 -3 37 -13
t26 -24q7 -15 0 -30q-9 -17 -35 -32q-39 -32 -103 -23q-66 9 -121 56q-22 19 -13 31q10 11 36 -2l11 -7q37 -26 55 -35q32 -17 62 -19q32 -1 46 21q14 23 -10 46l-11 9q-17 12 -20 16q-6 8 14 6h26zM596 261q-52 8 -100 38q-50 31 -60 65q-3 12 14 20q16 8 26 -3
q33 -33 77 -52q49 -21 102 -17q10 2 21 5q6 2 16 6q13 5 16 4q6 -2 6 -17q-3 -24 -40 -38q-31 -12 -66 -11h-12zM553 202q-49 7 -86 32q-38 26 -47 58q-5 15 9 23q15 9 28 -3q29 -25 69 -42q42 -18 81 -20q21 3 25 -9q5 -11 -7 -19q-11 -10 -25 -15q-19 -7 -40 -5h-7z" />
    <glyph glyph-name="female" unicode="&#x2640;" 
d="M502 2v0h46l-1 252h247v44h-247v134q71 8 119 59q50 51 50 119q0 76 -56 128t-134 52q-80 0 -136 -52t-56 -128q0 -68 49 -119q48 -51 119 -59v-134h-246v-44h246v-252zM526 749v0q59 0 102 -40q43 -41 43 -99q0 -56 -43 -97t-102 -41q-61 0 -104 41q-43 40 -43 97
q0 58 43 99q43 40 104 40z" />
    <glyph glyph-name="male" unicode="&#x2642;" 
d="M528 -16v0q79 0 135 52q57 51 57 125q0 69 -50 121q-48 50 -118 58v371l221 -299l36 26l-281 366l-282 -367l36 -25l225 299v-371q-72 -7 -120 -58q-49 -51 -49 -121q0 -73 56 -125t134 -52zM528 301v0q60 0 104 -41t44 -99q0 -56 -44 -97t-104 -41t-103 41
q-42 41 -42 97q0 58 42 99q43 41 103 41z" />
    <glyph glyph-name="spade" unicode="&#x2660;" 
d="M375 -50h252v15q-28 47 -55 111q-29 71 -38 121q-5 17 7 22t21 -16q21 -54 68 -83q40 -25 83 -25q66 0 112 51q46 49 46 119q0 95 -107 254q-100 148 -262 309q-151 -158 -248 -306q-107 -165 -107 -260q0 -81 52 -128q44 -38 100 -38q50 0 86 24q38 26 65 82
q11 22 22 18t7 -25q-10 -48 -42 -117q-31 -68 -62 -112v-16z" />
    <glyph glyph-name="uni2661" unicode="&#x2661;" 
d="M515 28l-4 1q-143 145 -207 239q-111 162 -111 309q0 82 36 121q36 40 111 40q50 0 80 -52q17 -29 32 -86l3 -12q5 -22 22 -35q16 -12 36 -12q21 0 36 12q17 13 23 35l7 20q21 61 39 86q30 43 78 43q78 0 114 -43q35 -41 35 -128q0 -109 -102 -259q-57 -85 -188 -232z
M515 653l-1 6q-26 70 -58 101q-48 47 -133 47q-91 0 -150 -61q-57 -60 -57 -149q0 -152 137 -359q103 -154 261 -310q157 167 262 322q142 207 142 327q0 111 -64 173q-57 57 -147 57q-83 0 -132 -48q-36 -36 -60 -106z" />
    <glyph glyph-name="club" unicode="&#x2663;" 
d="M628 -60v17q-40 54 -65 117q-24 59 -31 119q-3 44 6 63q8 15 25 17q13 -86 72 -129q48 -36 116 -36q88 0 140 59q47 52 47 127q0 77 -48 130q-52 57 -141 57q-45 0 -82 -17q-28 -14 -57 -41q-10 0 -19 12q-10 11 -9 23q64 21 96 81q30 56 21 122q-11 68 -58 112
q-53 48 -134 48q-82 0 -134 -47q-47 -43 -56 -110q-11 -65 18 -121q32 -61 97 -86q-4 -12 -11 -19q-8 -7 -20 -7q-23 25 -63 39q-34 11 -69 11q-90 0 -141 -57q-45 -52 -45 -130q0 -76 46 -128q52 -59 140 -59q77 0 130 50q51 47 56 113q16 1 23 -12q9 -18 4 -69
q-6 -61 -34 -123q-22 -50 -61 -105v-21h241z" />
    <glyph glyph-name="uni2664" unicode="&#x2664;" 
d="M378 -73h272v33q-30 55 -43 92q-15 40 -15 74q24 -16 53 -25q29 -10 57 -10q73 0 115 43q42 42 42 115q0 76 -72 192q-79 128 -284 372q-201 -266 -266 -371q-72 -117 -72 -183q0 -95 56 -143q41 -36 90 -36q27 0 62 13q31 11 61 29q0 -26 -18 -75q-15 -45 -38 -90v-30z
M567 -12h-105v8q15 41 23 75q9 35 12 70q1 37 -11 51q-12 13 -41 9q-41 -25 -70 -39q-40 -19 -64 -19q-39 0 -60 34q-21 33 -21 88q0 66 73 181q42 66 140 189l62 80l22 -26q136 -159 184 -232q81 -120 81 -204q0 -53 -35 -80q-26 -21 -58 -21q-24 0 -51 12q-16 7 -44 23
q-13 7 -18 10q-9 4 -13 4q-22 0 -33 -14q-13 -15 -13 -45q2 -36 12 -72q10 -39 28 -71v-11z" />
    <glyph glyph-name="heart" unicode="&#x2665;" 
d="M515 660l-1 6q-26 63 -61 95q-50 46 -130 46q-91 0 -150 -61q-57 -60 -57 -149q0 -138 137 -350q112 -172 261 -319q148 158 262 328q142 211 142 321q0 112 -64 174q-57 56 -147 56q-82 0 -132 -48q-35 -33 -60 -99z" />
    <glyph glyph-name="uni2667" unicode="&#x2667;" 
d="M393 -64h246v37q-2 10 -6 20q-2 7 -8 20q-11 25 -16 40q-8 26 -8 55q-2 16 2 20q5 4 17 -6q25 -23 64 -38q39 -14 76 -14q73 0 128 59q57 61 57 148q0 78 -42 131q-47 62 -131 62q-35 0 -71 -12q-36 -13 -61 -34q-15 -9 -21 -4q-7 5 4 20q41 38 61 69q30 48 30 106
q0 74 -54 129q-57 60 -144 60q-95 0 -151 -59q-49 -52 -49 -122q0 -61 31 -111q23 -37 67 -72q10 -12 5 -18q-4 -5 -16 0q-44 21 -67 29q-35 11 -66 11q-81 0 -133 -59q-50 -57 -50 -138q0 -92 57 -148q53 -53 131 -53q39 0 72 14q32 13 66 42q12 13 20 10q8 -4 5 -20
q-4 -27 -13 -52q-5 -16 -16 -41q-7 -15 -10 -23q-4 -12 -6 -22v-36zM563 -9h-97q14 48 22 96q7 44 7 82q0 45 -17 56q-18 12 -54 -21q-38 -37 -71 -54q-38 -21 -77 -21q-51 0 -84 32q-38 37 -38 105q0 59 35 99q34 38 82 38q31 0 58 -10q15 -5 41 -21l21 -12q12 -6 24 -9
q39 -12 65 19t11 71q-8 10 -18 21q-7 8 -19 20q-37 36 -50 58q-22 37 -22 83q0 53 42 87q41 32 97 32q52 0 91 -38t39 -91q0 -49 -18 -80q-11 -19 -42 -46q-10 -9 -15 -14q-9 -8 -15 -16q-15 -24 -12 -48q3 -21 18 -37q14 -15 34 -19q21 -4 40 5q6 4 15 9l15 9q27 17 42 23
q26 11 56 11q53 0 83 -37q29 -37 29 -101q0 -62 -42 -103q-36 -36 -81 -36q-38 0 -70 17q-22 12 -63 46q-44 45 -65 30q-18 -11 -18 -63q0 -40 4 -85q6 -52 17 -87z" />
    <glyph glyph-name="uni2668" unicode="&#x2668;" 
d="M754 303l-8 -13q48 -23 79 -47q47 -37 47 -73q0 -62 -110 -100q-103 -36 -253 -36q-173 0 -259 36q-77 32 -77 89q0 38 51 80q44 37 105 60l-4 13q-93 -19 -158 -67q-68 -52 -68 -110q0 -95 120 -150q114 -51 301 -51q206 0 317 62q103 57 103 151q0 54 -61 100
q-53 40 -125 56zM687 749h-12q-6 -26 -17 -52q-7 -16 -21 -44q-16 -30 -21 -46q-9 -26 -9 -51q0 -36 6 -70q3 -21 13 -56q9 -32 12 -49q6 -27 6 -56q0 -24 -6 -53q-2 -17 -10 -52q-12 -50 -13 -75q-3 -39 10 -69h12q6 32 19 63q8 18 27 51q20 36 27 56q13 33 13 66
q0 28 -7 57q-4 17 -15 50q-12 37 -17 58q-7 36 -7 72q0 17 2 37q2 13 6 37q8 45 9 65q2 36 -7 61zM407 750h-12q-5 -31 -17 -59q-7 -17 -22 -44q-15 -28 -21 -42q-8 -23 -8 -48q0 -34 6 -67q3 -20 13 -55q9 -32 12 -50q6 -29 6 -59q0 -23 -6 -53q-2 -17 -10 -52
q-12 -50 -13 -74q-3 -40 10 -70h12q6 32 19 63q8 18 27 50q20 37 27 56q13 33 13 66q0 28 -7 56q-4 17 -15 50q-12 36 -17 58q-7 36 -7 74q0 17 2 37q2 13 6 37q8 45 9 65q2 36 -7 61zM548 795l-14 2q-3 -34 -14 -66q-7 -18 -25 -52q-18 -35 -25 -56q-11 -34 -11 -72
q0 -14 6 -41q4 -16 15 -53q14 -47 19 -71q10 -40 10 -68q0 -27 -7 -57q-4 -18 -14 -51q-13 -43 -16 -66q-5 -38 3 -76h15q8 24 22 51l24 48q28 51 38 77q17 43 17 81q0 40 -9 72q-5 20 -18 51q-12 30 -16 47q-7 28 -7 61q0 20 4 43q2 13 9 40q11 46 12 72q1 42 -18 84z" />
    <glyph glyph-name="uni2669" unicode="&#x2669;" 
d="M589 796h-40v-665q0 -16 -9 -20q-5 -3 -24 -3h-24q-15 -1 -29 -6q-36 -13 -63 -41q-26 -27 -34 -55q-9 -29 5 -47q16 -20 58 -20q58 2 110 59q50 54 50 106v692z" />
    <glyph glyph-name="musicalnote" unicode="&#x266a;" 
d="M436 792h-12v-667q0 -11 -8 -14q-6 -2 -22 -1q-19 0 -30 -1q-19 -1 -36 -9q-33 -12 -58 -40q-25 -26 -33 -54q-9 -29 6 -47q15 -19 57 -18q56 0 109 57t53 115v495q23 -24 54 -49q19 -14 54 -38q59 -41 79 -65q32 -38 32 -90q2 -45 -44 -112q-41 -59 -89 -96l8 -7
q50 27 92 69q46 46 70 97q27 57 21 113q-7 62 -54 117q-29 31 -61 59q-19 16 -53 43q-47 36 -70 58q-36 36 -65 85z" />
    <glyph glyph-name="uni266C" unicode="&#x266c;" 
d="M301 685v-507q0 -29 -13 -39q-8 -7 -36 -12q-15 -2 -23 -4q-14 -3 -26 -8q-46 -22 -75 -53q-24 -27 -30 -56q-6 -26 6 -44q13 -17 40 -17q82 6 138 70q52 60 52 132v273l440 98v-236q0 -16 -8 -21q-6 -4 -23 -6q-21 -2 -34 -6q-24 -6 -46 -21q-44 -33 -62 -67
q-17 -29 -12 -55q3 -23 22 -37q18 -13 43 -13q51 1 103 65q49 60 49 108v566zM334 525v57l440 98v-52z" />
    <glyph glyph-name="uni266D" unicode="&#x266d;" 
d="M387 713h-40v-696q162 33 261 139q94 100 87 212q-7 51 -41 86q-32 33 -79 42q-48 10 -96 -9q-53 -21 -92 -71v297zM387 59v316q26 36 54 56q35 25 72 24q36 -3 61 -37q26 -36 23 -88q-2 -78 -67 -159q-62 -77 -143 -112z" />
    <glyph glyph-name="uni3000" unicode="&#x3000;" 
 />
    <glyph glyph-name="uni3001" unicode="&#x3001;" 
d="M755 766l173 -100l25 39l-172 98z" />
    <glyph glyph-name="uni3002" unicode="&#x3002;" 
d="M829 573v0q42 0 72 29q31 29 31 70q0 43 -31 73q-30 29 -72 29q-43 0 -73 -29q-30 -30 -30 -73q0 -41 30 -70t73 -29zM829 735v0q26 0 45 -18q18 -18 18 -44q0 -25 -18 -43q-19 -19 -45 -19t-44 19q-17 18 -17 43q0 26 17 44q18 18 44 18z" />
    <glyph glyph-name="uni3003" unicode="&#x3003;" 
d="M486 188h20q36 59 72 130q20 42 54 116l28 61q8 16 -2 33t-27 17q-16 3 -27 -5q-15 -10 -21 -42q-9 -49 -34 -129q-29 -96 -63 -181zM337 188h20q49 80 94 173q37 76 60 134q6 18 -3 33q-10 17 -28 17q-15 3 -25 -5q-14 -11 -22 -42l-4 -12q-19 -76 -34 -128
q-28 -95 -58 -170z" />
    <glyph glyph-name="uni3008" unicode="&#x3008;" 
d="M876 -41l31 26l-276 409l276 404l-35 26l-293 -429z" />
    <glyph glyph-name="uni3009" unicode="&#x3009;" 
d="M144 -41l296 436l-292 429l-35 -26l276 -404l-276 -409z" />
    <glyph glyph-name="uni300A" unicode="&#x300a;" 
d="M907 -41l31 26l-278 409l278 405l-33 25l-295 -429zM783 -41l32 26l-277 409l277 405l-35 25l-293 -429z" />
    <glyph glyph-name="uni300B" unicode="&#x300b;" 
d="M246 -41l297 436l-294 429l-34 -25l277 -405l-277 -409zM123 -41l297 436l-294 429l-34 -25l277 -405l-277 -409z" />
    <glyph glyph-name="uni300C" unicode="&#x300c;" 
d="M764 806v0h198v44h-245v-428h47v384z" />
    <glyph glyph-name="uni300D" unicode="&#x300d;" 
d="M55 -94v0h245l-1 426h-48v-382h-196v-44z" />
    <glyph glyph-name="uni300E" unicode="&#x300e;" 
d="M784 758v0h192v104h-302v-462h110v358zM941 829v0v-38h-192v-357h-42l1 395h233z" />
    <glyph glyph-name="uni300F" unicode="&#x300f;" 
d="M341 -105v0v463h-111v-357h-190v-106h301zM265 324v0h41v-395h-233v38h192v357z" />
    <glyph glyph-name="uni3010" unicode="&#x3010;" 
d="M931 811v0l1 24h-211v-938h210v25q-79 49 -126 175q-43 114 -43 240v57q0 132 38 238q44 120 131 179z" />
    <glyph glyph-name="uni3011" unicode="&#x3011;" 
d="M81 -103v0h211v938h-211v-24q86 -59 130 -179q39 -105 39 -238v-57q0 -127 -43 -240q-47 -126 -126 -175v-25z" />
    <glyph glyph-name="uni3013" unicode="&#x3013;" 
d="M20 527v0v-30h978v30h-978zM20 249v0v-31h978v31h-978z" />
    <glyph glyph-name="uni3014" unicode="&#x3014;" 
d="M788 -103v0h143v37h-102v864h102v37h-143v-938z" />
    <glyph glyph-name="uni3015" unicode="&#x3015;" 
d="M81 -99v0h144v940h-144v-38h102v-864h-102v-38z" />
    <glyph glyph-name="uni3041" unicode="&#x3041;" 
d="M297 488v-44q19 -6 67 -7q47 -1 70 3q-3 -29 -4 -62q-1 -19 -2 -52v-11q-84 -25 -144 -105q-51 -68 -51 -117q0 -44 25 -67q21 -20 53 -21q43 0 84 21q29 15 68 47q1 -5 5 -14q3 -5 8 -15l11 -23l46 34q-5 7 -11 20q-4 8 -12 26l-6 14q35 35 73 94t53 102q78 -7 112 -52
q22 -30 23 -69q6 -80 -64 -129q-47 -33 -111 -44l34 -51q97 24 152 89q49 57 49 123q0 62 -40 106q-47 53 -139 69l20 43l-62 20q-2 -13 -7 -31q-3 -12 -8 -29q-34 -4 -62 -10q-27 -5 -49 -13q0 20 3 56q3 30 7 57q48 7 90 15q50 8 88 17v51q-38 -10 -86 -20q-26 -5 -67 -12
l-16 -4v1q1 23 4 42q5 32 18 64l-65 13l-14 -124zM340 57h-23q-21 3 -25 28q-3 25 12 58q16 36 46 67q34 36 78 56q0 -35 6 -83q7 -44 13 -61q-20 -19 -47 -36q-32 -20 -60 -29zM476 259l2 30q12 8 41 14q21 4 54 7q-11 -36 -41 -84q-16 -25 -41 -60q-7 25 -11 46
q-4 24 -4 47z" />
    <glyph glyph-name="uni3042" unicode="&#x3042;" 
d="M384 638l-168 1l1 -52q25 -3 73 -3q27 0 81 2h5l-4 -37l-9 -119q-100 -41 -168 -126q-64 -80 -64 -153q0 -54 35 -81q25 -18 75 -26q58 6 104 33q29 17 62 49q5 -14 14 -33q8 -17 16 -31l53 41l-4 7q-10 16 -15 27q-9 19 -12 36q58 67 99 136q30 52 61 121q77 6 131 -53
q47 -53 47 -117q0 -57 -27 -101q-23 -38 -63 -65q-34 -22 -74 -34q-35 -9 -60 -8l48 -54q98 8 168 86q70 77 70 172q0 100 -77 165q-67 57 -148 57q2 11 7 18q2 4 7 10q4 5 5 8q2 4 2 9q-11 7 -29 13q-13 5 -35 10l-18 -49l-6 -19q-45 -6 -86 -14q-34 -7 -59 -14q-1 15 4 66
q5 53 11 74q63 7 117 16q65 11 108 26v55q-30 -13 -113 -29q-73 -15 -102 -17q6 55 19 86q6 17 18 31q4 5 5 8t0 9q-15 6 -44 11q-24 4 -46 5q-2 -31 -5 -65q-2 -20 -7 -57zM195 137v33q8 60 60 119q46 53 106 85q-3 -47 7 -110q9 -56 20 -87q-59 -63 -118 -75
q-58 -12 -75 35zM422 335v70q20 10 52 16q27 5 80 10q-21 -59 -59 -121q-29 -46 -56 -78q-7 25 -11 53q-6 32 -6 50z" />
    <glyph glyph-name="uni3043" unicode="&#x3043;" 
d="M530 117l-38 40q-13 -37 -34 -59q-21 -23 -41 -21q-44 0 -73 90q-20 63 -26 134q-8 79 -4 116q2 22 10 36q2 4 3 7q2 4 2 10l-77 8q2 -65 7 -120q5 -68 13 -115q11 -87 48 -154q43 -79 97 -79q34 0 69 37q30 32 44 70zM702 422l-44 -25q38 -43 81 -127q36 -70 56 -128
l54 31q-18 62 -72 148q-46 72 -75 101z" />
    <glyph glyph-name="uni3044" unicode="&#x3044;" 
d="M255 672l-92 17q-3 -67 3 -163q7 -108 22 -174q12 -74 56 -151q54 -94 111 -94q43 0 87 45q35 35 61 84l-38 43q-25 -43 -50 -71q-30 -35 -51 -35q-42 16 -75 79q-30 58 -46 141q-16 80 -13 155q3 79 25 124zM721 620l-49 -29q41 -50 90 -143q57 -106 73 -177l64 30
q-23 83 -89 194q-56 93 -89 125z" />
    <glyph glyph-name="uni3045" unicode="&#x3045;" 
d="M467 646l-32 -35q17 -16 73 -42q50 -22 97 -38l31 43q-38 12 -93 35q-56 24 -76 37zM299 381l48 -56q55 41 106 65q57 26 99 26q54 2 73 -49q11 -30 9 -82q0 -90 -60 -172q-45 -60 -87 -82l52 -42q74 58 117 157q35 81 35 150q0 89 -38 131q-33 38 -97 38q-33 0 -84 -17
q-30 -10 -89 -35q-33 -15 -48 -21q-24 -9 -36 -11z" />
    <glyph glyph-name="uni3046" unicode="&#x3046;" 
d="M433 806l-40 -40q35 -30 97 -60q51 -25 107 -45l38 56q-36 7 -112 42q-67 31 -90 47zM221 478l62 -62q65 45 110 67q67 33 138 44q64 14 91 -49q18 -40 17 -95q7 -116 -58 -223q-61 -102 -142 -128l64 -44q94 58 150 168q52 103 52 213q0 125 -60 178q-41 36 -104 36
q-62 -3 -129 -27q-39 -14 -103 -45q-35 -17 -50 -23q-24 -9 -38 -10z" />
    <glyph glyph-name="uni3047" unicode="&#x3047;" 
d="M503 621l-31 -38q22 -16 80 -38q52 -19 91 -28l32 49q-32 5 -97 26q-57 19 -75 29zM322 408l30 -54l93 21q51 12 68 15q25 5 35 5t10 -6q-1 -6 -9 -20q-57 -83 -168 -202q-96 -103 -114 -114l56 -39q71 93 118 137q57 54 94 54q23 4 34 -19q7 -14 15 -54q5 -33 10 -48
q7 -25 20 -40q17 -27 81 -32q36 -3 107 2l17 1l16 61q-46 -7 -73 -9q-31 -4 -58 -4q-32 -2 -49 26q-10 17 -21 65q-9 39 -16 55q-12 28 -32 36q-14 5 -26 4q-7 0 -20 -3l-12 -3q-8 -1 -14 0q18 36 75 97q49 53 79 76l-23 19q-16 14 -23 19q-11 7 -20 5q-13 -17 -132 -34
q-77 -11 -148 -17z" />
    <glyph glyph-name="uni3048" unicode="&#x3048;" 
d="M443 795l-39 -47q33 -26 103 -54q60 -24 118 -38l35 62q-45 3 -119 30q-72 26 -98 47zM232 525l27 -68q27 3 68 13q25 6 76 19q79 21 103 23q38 4 17 -22q-55 -86 -203 -244q-138 -148 -169 -164l67 -47q64 101 145 169q79 65 132 65q28 0 39 -27q7 -17 11 -65
q4 -40 9 -60q7 -34 22 -56q26 -29 120 -36q51 -3 133 1h2l19 75q-39 -9 -93 -14q-54 -4 -88 -1q-34 5 -49 38q-9 21 -15 73q-8 58 -19 81q-18 39 -60 43q-23 0 -47 -6q-13 -4 -35 -12l-11 -5q67 77 122 135q64 66 100 95l-26 24q-20 19 -29 25q-14 10 -26 10
q-8 -13 -147 -36q-130 -22 -195 -26z" />
    <glyph glyph-name="uni3049" unicode="&#x3049;" 
d="M293 453l9 -47q15 -2 43 -1q25 0 59 2v-147l-4 -1q-77 -41 -105 -65q-47 -39 -47 -86q9 -50 55 -81q39 -26 90 -33q52 4 65 56q7 30 1 106q-2 30 -3 44q0 23 3 37q117 47 197 34q85 -14 96 -94q0 -60 -65 -102q-54 -36 -102 -36l42 -49q96 28 145 91q37 49 37 103
q0 60 -61 102q-51 37 -101 37q-54 0 -115 -16q-41 -10 -74 -25l-2 60q0 38 1 71q41 7 67 12q35 7 55 14v53q-23 -8 -56 -16q-26 -6 -65 -13q2 51 7 81q5 36 14 44l-75 13v-145q-37 -3 -64 -4q-30 -1 -47 1zM404 210v-130q-8 -42 -47 -25q-37 17 -49 58q-5 9 11 31
q24 32 85 66zM728 514l-39 -34q35 -17 72 -46q38 -30 52 -52l47 34q-27 28 -69 60q-45 33 -63 38z" />
    <glyph glyph-name="uni304A" unicode="&#x304a;" 
d="M329 769l3 -178q-45 -4 -82 -5q-40 -1 -66 2l11 -55q25 -4 62 -3q34 1 76 5l3 -183q-79 -39 -132 -95t-53 -100q0 -49 67 -94q60 -41 103 -41q33 0 55 24q23 24 23 62q-3 22 -5 61q-2 23 -4 71l-5 82q73 36 142 50q67 14 120 5q52 -8 81 -38q31 -32 31 -82
q0 -99 -74 -143q-54 -32 -126 -28l48 -63q106 21 168 92q51 59 51 120q0 104 -69 155q-56 40 -141 40q-67 0 -143 -23q-61 -18 -92 -38v78q1 51 4 96q42 8 86 17q38 9 66 17l-4 61q-29 -11 -67 -22q-38 -10 -79 -17q3 61 8 99q6 44 16 56zM726 670l-39 -39q25 -8 77 -49
q50 -40 78 -73l47 47q-44 40 -87 71q-45 31 -76 43zM337 296v-172q2 -27 -17 -35q-16 -8 -42 1q-25 8 -44 25q-20 19 -21 37q-7 29 37 76q39 43 87 68z" />
    <glyph glyph-name="uni304B" unicode="&#x304b;" 
d="M352 749l-2 -45q-4 -40 -12 -82q-7 -40 -17 -80l-15 -2q-83 -14 -115 -18q-51 -8 -72 -8l34 -73q14 12 55 23q24 6 88 18l8 1q-41 -130 -108 -251q-55 -98 -90 -132l65 -34q63 98 117 224q40 95 75 205l5 2l15 1q60 14 97 14q35 1 54 -11q16 -11 23 -35q5 -20 5 -58
q-5 -121 -27 -195q-19 -64 -51 -92q-26 -23 -61 -24q-21 -1 -57 8l-20 4l35 -73q131 -29 191 101q39 86 52 263q5 102 -44 142q-33 26 -92 26l-109 -17l24 86q5 35 15 54q5 11 15 20q4 4 5 6q2 3 1 8zM742 612l-46 -33q32 -29 99 -116q71 -91 76 -116l57 43q-36 65 -104 140
q-52 59 -82 82z" />
    <glyph glyph-name="uni304C" unicode="&#x304c;" 
d="M361 751l-2 -45q-4 -40 -12 -84q-7 -40 -18 -83l-34 -5q-73 -11 -101 -15q-45 -7 -65 -7l34 -72q14 12 57 23q30 8 92 18q-41 -128 -108 -248q-54 -97 -89 -131l65 -35q63 98 116 222q41 97 74 203l23 5q115 26 151 3q29 -19 29 -94q-6 -122 -28 -196q-20 -63 -52 -92
q-26 -22 -61 -23q-21 0 -56 9l-19 4l35 -74q131 -29 191 102q38 84 51 263q5 102 -44 141q-33 26 -92 26l-111 -17l25 89q5 35 15 55q5 11 15 20q4 4 5 6q2 3 1 8zM755 605l-46 -32q33 -31 99 -116q71 -91 76 -116l57 42q-36 65 -104 140q-52 59 -82 82zM862 809l-30 -26
q15 -12 33 -27q11 -10 32 -29l25 -23l32 30q-23 24 -50 45q-24 20 -42 30zM791 745l-33 -26q11 -8 42 -39q27 -28 48 -50l34 33q-19 22 -49 48q-16 14 -40 32z" />
    <glyph glyph-name="uni304D" unicode="&#x304d;" 
d="M471 773l-84 -9q9 -23 23 -52q8 -18 25 -52l10 -20q-55 -12 -109 -18q-49 -6 -76 -6l28 -56q38 0 88 8q45 8 97 20l48 -90q-79 -22 -162 -34q-68 -10 -123 -10l21 -60q81 6 157 19q70 13 137 33l71 -120l15 -25q-244 40 -350 -12q-77 -38 -76 -118q0 -89 133 -135
q104 -36 244 -36l31 73q-53 -12 -116 -10q-60 2 -114 17t-86 39q-34 25 -34 55q0 51 49 78q47 25 126 25t150 -19q70 -20 96 -49l60 53q-37 37 -77 91q-37 49 -73 108q38 13 80 31q30 13 73 33l-32 54q-36 -20 -75 -37q-36 -15 -76 -29l-9 16l-19 38q-10 20 -17 36
q48 14 91 31q40 15 65 28l-33 51q-30 -17 -68 -32q-37 -15 -78 -26q-17 40 -25 70q-8 31 -6 48z" />
    </font>
</defs>
</svg>
